<mxfile host="app.diagrams.net" modified="2023-08-23T12:55:56.096Z" agent="Mozilla/5.0 (Windows NT 10.0; Win64; x64) AppleWebKit/537.36 (KHTML, like Gecko) Chrome/116.0.0.0 Safari/537.36" etag="f6ilfXJIvNOwWI8c4Ftl" version="21.6.5" type="github" pages="6">
  <diagram name="第 1 页" id="CrQ0aTaLahwgxUJB0Oti">
    <mxGraphModel dx="1020" dy="496" grid="0" gridSize="10" guides="1" tooltips="1" connect="1" arrows="1" fold="1" page="1" pageScale="1" pageWidth="1200" pageHeight="1920" math="0" shadow="0">
      <root>
        <mxCell id="0" />
        <mxCell id="1" parent="0" />
        <mxCell id="eXfeWmbaZbOtzLUSjpVF-14" style="edgeStyle=orthogonalEdgeStyle;rounded=0;orthogonalLoop=1;jettySize=auto;html=1;exitX=1;exitY=0.5;exitDx=0;exitDy=0;entryX=0;entryY=0.5;entryDx=0;entryDy=0;strokeColor=#00AB7A;strokeWidth=2;" parent="1" source="eXfeWmbaZbOtzLUSjpVF-1" target="eXfeWmbaZbOtzLUSjpVF-7" edge="1">
          <mxGeometry relative="1" as="geometry" />
        </mxCell>
        <mxCell id="eXfeWmbaZbOtzLUSjpVF-15" style="edgeStyle=orthogonalEdgeStyle;rounded=0;orthogonalLoop=1;jettySize=auto;html=1;exitX=1;exitY=0.5;exitDx=0;exitDy=0;entryX=0;entryY=0.5;entryDx=0;entryDy=0;strokeColor=#00AB7A;strokeWidth=2;" parent="1" source="eXfeWmbaZbOtzLUSjpVF-1" target="eXfeWmbaZbOtzLUSjpVF-8" edge="1">
          <mxGeometry relative="1" as="geometry" />
        </mxCell>
        <mxCell id="eXfeWmbaZbOtzLUSjpVF-1" value="监测发现" style="rounded=0;whiteSpace=wrap;html=1;fillColor=#00ab7a;fontColor=#ffffff;strokeColor=#2D7600;" parent="1" vertex="1">
          <mxGeometry x="74" y="267" width="120" height="60" as="geometry" />
        </mxCell>
        <mxCell id="eXfeWmbaZbOtzLUSjpVF-3" value="" style="rounded=0;whiteSpace=wrap;html=1;fillColor=#eeeeee;strokeColor=#36393d;" parent="1" vertex="1">
          <mxGeometry x="367" y="322" width="748" height="180" as="geometry" />
        </mxCell>
        <mxCell id="eXfeWmbaZbOtzLUSjpVF-4" value="&lt;div&gt;①对重点人投毒进行社工攻击&lt;/div&gt;&lt;div&gt;&lt;br&gt;&lt;/div&gt;&lt;div&gt;③发现重要敏感数据被窃取（窃取敏感数据）&lt;/div&gt;&lt;div&gt;&lt;br&gt;&lt;/div&gt;&lt;div&gt;⑤邮件系统被盯控（顶控邮件系统）&lt;/div&gt;&lt;div&gt;&lt;br&gt;&lt;/div&gt;&lt;div&gt;⑦供应链打击&lt;/div&gt;&lt;div&gt;&lt;br&gt;&lt;/div&gt;&lt;div&gt;⑨内网敏感信息被搜集利用（网段信息、密码本、网络拓扑、源代码、组织架构信息等让防守方补充）（内网敏感信息搜集利用）&lt;/div&gt;" style="text;html=1;strokeColor=none;fillColor=none;align=left;verticalAlign=middle;whiteSpace=wrap;rounded=0;" parent="1" vertex="1">
          <mxGeometry x="387" y="332" width="270" height="160" as="geometry" />
        </mxCell>
        <mxCell id="eXfeWmbaZbOtzLUSjpVF-5" value="&lt;div&gt;②发现隐蔽攻击隧道（搭建隐蔽攻击隧道）&lt;/div&gt;&lt;div&gt;&lt;br&gt;&lt;/div&gt;&lt;div&gt;④系统被控制，植入木马等（获取系统控制权， 植入木马等）&lt;/div&gt;&lt;div&gt;&lt;br&gt;&lt;/div&gt;&lt;div&gt;⑥近源攻击突破网络防线&lt;/div&gt;&lt;div&gt;&lt;br&gt;&lt;/div&gt;&lt;div&gt;⑧通过下属单位、跨网，迁回攻击&lt;/div&gt;&lt;div&gt;&lt;br&gt;&lt;/div&gt;&lt;div&gt;&amp;nbsp;⑩漏洞利用、口令盗用、权限提升等高危操作&lt;/div&gt;" style="text;html=1;strokeColor=none;fillColor=none;align=left;verticalAlign=middle;whiteSpace=wrap;rounded=0;" parent="1" vertex="1">
          <mxGeometry x="733" y="325" width="300" height="160" as="geometry" />
        </mxCell>
        <mxCell id="eXfeWmbaZbOtzLUSjpVF-7" value="及时发现性" style="rounded=0;whiteSpace=wrap;html=1;fillColor=#647687;fontColor=#ffffff;strokeColor=#314354;" parent="1" vertex="1">
          <mxGeometry x="244" y="206" width="120" height="40" as="geometry" />
        </mxCell>
        <mxCell id="eXfeWmbaZbOtzLUSjpVF-8" value="发现攻击类型" style="rounded=0;whiteSpace=wrap;html=1;fillColor=#647687;fontColor=#ffffff;strokeColor=#314354;" parent="1" vertex="1">
          <mxGeometry x="244" y="370" width="120" height="40" as="geometry" />
        </mxCell>
        <mxCell id="eXfeWmbaZbOtzLUSjpVF-17" value="" style="rounded=0;whiteSpace=wrap;html=1;fillColor=#eeeeee;strokeColor=#36393d;" parent="1" vertex="1">
          <mxGeometry x="367" y="168" width="309" height="108" as="geometry" />
        </mxCell>
        <mxCell id="eXfeWmbaZbOtzLUSjpVF-18" value="攻击时间：" style="text;html=1;strokeColor=none;fillColor=none;align=left;verticalAlign=middle;whiteSpace=wrap;rounded=0;" parent="1" vertex="1">
          <mxGeometry x="395" y="184" width="254" height="30" as="geometry" />
        </mxCell>
        <mxCell id="eXfeWmbaZbOtzLUSjpVF-19" value="发现时间：" style="text;html=1;strokeColor=none;fillColor=none;align=left;verticalAlign=middle;whiteSpace=wrap;rounded=0;" parent="1" vertex="1">
          <mxGeometry x="398" y="235" width="245" height="30" as="geometry" />
        </mxCell>
        <mxCell id="kLGyThrhckxe5NP_JQHb-1" value="2023-08-23 10:05:03" style="rounded=0;whiteSpace=wrap;html=1;" vertex="1" parent="1">
          <mxGeometry x="471" y="190" width="186" height="24" as="geometry" />
        </mxCell>
        <mxCell id="kLGyThrhckxe5NP_JQHb-2" value="2023-08-23 10:06" style="rounded=0;whiteSpace=wrap;html=1;" vertex="1" parent="1">
          <mxGeometry x="471" y="238" width="189" height="24" as="geometry" />
        </mxCell>
        <mxCell id="6mD-07ws9WpTAznpwPZ0-1" value="" style="shape=image;verticalLabelPosition=bottom;labelBackgroundColor=default;verticalAlign=top;aspect=fixed;imageAspect=0;image=data:image/png,iVBORw0KGgoAAAANSUhEUgAAAMgAAADICAYAAACtWK6eAAAAAXNSR0IArs4c6QAACGdJREFUeF7t3UtW21gUheErjySdUJ5AUvRCzQRGEhhJmElIjyIT8CKdTCRSLRPIMpQf8m/Zukfnr7Y31t1bX5lXcFP8zwZsYGMDjd3YgA1sbkAg3h02sKUBgXh72IBAvAdsgDXgKwjrzVSSBgSSZGiPyRoQCOvNVJIGBJJkaI/JGhAI681UkgYEkmRoj8kaEAjrzVSSBgSSZGiPyRoQCOvNVJIGBJJkaI/JGhAI681UkgYEkmRoj8kaEAjrzVSSBgSSZGiPyRoQCOvNVJIGBJJkaI/JGhAI681UkgYEkmRoj8kaEAjrzVSSBgSSZGiPyRoQCOvNVJIGBJJkaI/JGhAI681UkgYEkmRoj8kaEAjrzVSSBgSSZGiPyRoQCOvNVJIGBJJkaI/JGhAI681UkgaqATKfn1+Utr1I0rvH3NbAbHa3WNzf1VBSPUDOPl53pXyuoRSvYdwGmlJuFo8P1+Nexe9nF0gNK3gNrxoQyJobYu4riEyeGxCIQMSwpQGBCEQgAtnvHvBTrP36mvKjfQXxFWTK9/fBZxMIANKV5nbWtd8Obt8PMHoDbTP71JTuctOFCAQAabruavHj++3o63oBBzcwf//hsmuaLwLZo8pdX4MIZI8yK3+oQMBAAgGlBY0IBAwnEFBa0IhAwHACAaUFjQgEDCcQUFrQiEDAcAIBpQWNCAQMJxBQWtCIQMBwAgGlBY0IBAwnEFBa0IhAwHACAaUFjQgEDCcQUFrQiEDAcAIBpQWNCAQMJxBQWtCIQMBwAgGlBY0IBAwnEFBa0IhAwHACAaUFjQgEDCcQUFrQiEDAcAIBpQWNCAQMJxBQWtCIQMBwAgGlBY0IBAwnEFBa0IhAwHACAaUFjQgEDCcQUFrQiEDAcAIBpQWNCAQMJxBQWtCIQMBwAgGlBY0IBAwnEFDaCSLz+fm7tu0+Pz7+ezXU0wkENCkQUNqRI8s3Vu3a9uvyaZZ/PHwoJAIBwwkElHbEyCqOl6cZColAwHACAaUdKbIOx5BIBAKGEwgo7QiRbTiGQiIQMJxAQGkDR/rgGAKJQMBwAgGlDRjZB8ehSAQChhMIKG2gCMHx8tTNbPbPYnF/t8+lCGSftp4fKxBQ2gCRg3DAt8UTCBhOIKC0AyNj4FheskDAcAIBpR0QGQuHQOBoAoHFgdiYOAQCBnsq7ezjdVfK501x3+UWFvsmNjYOgcAdBQKL2yNWAw6B7DHY6kMFAovrGasFh0B6Dvb2YQKBxfWI1YRDID0GW/cQgcDidsRqwyEQuLNAYHFbYjXiEAjcWSCwuA2xWnEIBO4sEFjcmljNOAQCdxYILO5NrHYcAoE7CwQWtxKLgEMgcGeBwOKeY1FwCATuXBOQs7O/v8xmzc1icf8THueksUg4BAJvjVqA/PX+w9fSNBellJ/P/xioaiTRcAgkMJAVHC+nqBpJRBwCCQpkDY6qkUTFIZCAQLbgqBJJZBwCCQakB46qkETHIZBAQPbAUQWSKeAQSBAgu/5wwJZjjPKF+0E4wJ/mgTP2iu3qvinlZvH4cN3rgx35Qc2RP37vD3/qb/Mu/6x/advLbf/MtxYkU8LhK0hvEq8feGogT0MFQDI1HAIJBKR2JFPEIZBgQGpFMlUcAgkIpDYkU8YhkKBAakEydRwCCQxkbCQZcAgkOJCxkGTBIZAJADk1kkw4BDIRIKdCkg2HQCYE5NhIdv3KxbYqyTs7wWkGj+06t79qsqbyMX6S3nf5Y/zEfddNMlUcvoL0vevePK5mIEO/kmTGIZCJAhkKSfn166Jrmi+kpsifVq2ed9f/IPwUK9inWK/GPfAXHEsp7zLj8BWErB/sHaYO/Jpk74am8srxcnBfQfa+BeK9BdupkEwNh68gAMdTaQHfo/DYSKaIQyCJgAzwhfvGtqaKQyDJgBwDyZRxCCQhkCGRTB2HQJIC+fMdmh1fS22rJwMOgSQH0ucbDusqyoJDIAJ5amDXd+VWa8qEQyAC+dNAHyTZcAhEIK8a2IYkIw6BCOR/DaxDkhWHQASytoFVJJlxCEQgGxtYIimz2d1icX8Ha5pEzF9WBDPu+oK26bqrxY/vt+BDG6msAYGAQQQCSgsaEQgYTiCgtKARgYDhBAJKCxoRCBhOIKC0oBGBgOEEAkoLGhEIGE4goLSgEYGA4QQCSgsaEQgYTiCgtKARgYDhBAJKCxoRCBhOIKC0oBGBgOEEAkoLGhEIGE4goLSgEYGA4QQCSgsaEQgYTiCgtKARgYDhBAJKCxoRCBhOIKC0oBGBgOEEAkoLGhEIGE4goLSgEYGA4QQCSgsaEQgYTiCgtKARgYDhBAJKCxoRCBhOIKC0oBGBgOEEAkoLGhEIGE4goLSgEYGA4QQCSgsaEQgYTiCgtKARgYDhdgHpSnM769pv4EMbqayBtpl9akp3uemymlJuFo8P1zVcdlPDRSyvYReQWq7T6zh+AwJZ07FAjn/jRXkGgQgkyr06ynUKRCCj3HhRnlQgAolyr45ynQIRyCg3XpQnFYhAotyro1ynQNYBmZ9flLa9GGURn7SuBip6H8dqfg5S10JejQ38bkAg3gk2sKUBgXh72IBAvAdsgDXgKwjrzVSSBgSSZGiPyRoQCOvNVJIGBJJkaI/JGhAI681UkgYEkmRoj8kaEAjrzVSSBgSSZGiPyRoQCOvNVJIGBJJkaI/JGhAI681UkgYEkmRoj8kaEAjrzVSSBgSSZGiPyRoQCOvNVJIGBJJkaI/JGhAI681UkgYEkmRoj8kaEAjrzVSSBgSSZGiPyRoQCOvNVJIGBJJkaI/JGhAI681UkgYEkmRoj8kaEAjrzVSSBgSSZGiPyRoQCOvNVJIGBJJkaI/JGhAI681UkgYEkmRoj8ka+A94Z15Q9DZVigAAAABJRU5ErkJggg==;" vertex="1" parent="1">
          <mxGeometry x="713" y="461" width="20" height="20" as="geometry" />
        </mxCell>
        <mxCell id="6mD-07ws9WpTAznpwPZ0-2" value="" style="shape=image;verticalLabelPosition=bottom;labelBackgroundColor=default;verticalAlign=top;aspect=fixed;imageAspect=0;image=data:image/png,iVBORw0KGgoAAAANSUhEUgAAAMgAAADICAYAAACtWK6eAAAAAXNSR0IArs4c6QAACGdJREFUeF7t3UtW21gUheErjySdUJ5AUvRCzQRGEhhJmElIjyIT8CKdTCRSLRPIMpQf8m/Zukfnr7Y31t1bX5lXcFP8zwZsYGMDjd3YgA1sbkAg3h02sKUBgXh72IBAvAdsgDXgKwjrzVSSBgSSZGiPyRoQCOvNVJIGBJJkaI/JGhAI681UkgYEkmRoj8kaEAjrzVSSBgSSZGiPyRoQCOvNVJIGBJJkaI/JGhAI681UkgYEkmRoj8kaEAjrzVSSBgSSZGiPyRoQCOvNVJIGBJJkaI/JGhAI681UkgYEkmRoj8kaEAjrzVSSBgSSZGiPyRoQCOvNVJIGBJJkaI/JGhAI681UkgYEkmRoj8kaEAjrzVSSBgSSZGiPyRoQCOvNVJIGBJJkaI/JGhAI681UkgaqATKfn1+Utr1I0rvH3NbAbHa3WNzf1VBSPUDOPl53pXyuoRSvYdwGmlJuFo8P1+Nexe9nF0gNK3gNrxoQyJobYu4riEyeGxCIQMSwpQGBCEQgAtnvHvBTrP36mvKjfQXxFWTK9/fBZxMIANKV5nbWtd8Obt8PMHoDbTP71JTuctOFCAQAabruavHj++3o63oBBzcwf//hsmuaLwLZo8pdX4MIZI8yK3+oQMBAAgGlBY0IBAwnEFBa0IhAwHACAaUFjQgEDCcQUFrQiEDAcAIBpQWNCAQMJxBQWtCIQMBwAgGlBY0IBAwnEFBa0IhAwHACAaUFjQgEDCcQUFrQiEDAcAIBpQWNCAQMJxBQWtCIQMBwAgGlBY0IBAwnEFBa0IhAwHACAaUFjQgEDCcQUFrQiEDAcAIBpQWNCAQMJxBQWtCIQMBwAgGlBY0IBAwnEFBa0IhAwHACAaUFjQgEDCcQUFrQiEDAcAIBpQWNCAQMJxBQWtCIQMBwAgGlBY0IBAwnEFDaCSLz+fm7tu0+Pz7+ezXU0wkENCkQUNqRI8s3Vu3a9uvyaZZ/PHwoJAIBwwkElHbEyCqOl6cZColAwHACAaUdKbIOx5BIBAKGEwgo7QiRbTiGQiIQMJxAQGkDR/rgGAKJQMBwAgGlDRjZB8ehSAQChhMIKG2gCMHx8tTNbPbPYnF/t8+lCGSftp4fKxBQ2gCRg3DAt8UTCBhOIKC0AyNj4FheskDAcAIBpR0QGQuHQOBoAoHFgdiYOAQCBnsq7ezjdVfK501x3+UWFvsmNjYOgcAdBQKL2yNWAw6B7DHY6kMFAovrGasFh0B6Dvb2YQKBxfWI1YRDID0GW/cQgcDidsRqwyEQuLNAYHFbYjXiEAjcWSCwuA2xWnEIBO4sEFjcmljNOAQCdxYILO5NrHYcAoE7CwQWtxKLgEMgcGeBwOKeY1FwCATuXBOQs7O/v8xmzc1icf8THueksUg4BAJvjVqA/PX+w9fSNBellJ/P/xioaiTRcAgkMJAVHC+nqBpJRBwCCQpkDY6qkUTFIZCAQLbgqBJJZBwCCQakB46qkETHIZBAQPbAUQWSKeAQSBAgu/5wwJZjjPKF+0E4wJ/mgTP2iu3qvinlZvH4cN3rgx35Qc2RP37vD3/qb/Mu/6x/advLbf/MtxYkU8LhK0hvEq8feGogT0MFQDI1HAIJBKR2JFPEIZBgQGpFMlUcAgkIpDYkU8YhkKBAakEydRwCCQxkbCQZcAgkOJCxkGTBIZAJADk1kkw4BDIRIKdCkg2HQCYE5NhIdv3KxbYqyTs7wWkGj+06t79qsqbyMX6S3nf5Y/zEfddNMlUcvoL0vevePK5mIEO/kmTGIZCJAhkKSfn166Jrmi+kpsifVq2ed9f/IPwUK9inWK/GPfAXHEsp7zLj8BWErB/sHaYO/Jpk74am8srxcnBfQfa+BeK9BdupkEwNh68gAMdTaQHfo/DYSKaIQyCJgAzwhfvGtqaKQyDJgBwDyZRxCCQhkCGRTB2HQJIC+fMdmh1fS22rJwMOgSQH0ucbDusqyoJDIAJ5amDXd+VWa8qEQyAC+dNAHyTZcAhEIK8a2IYkIw6BCOR/DaxDkhWHQASytoFVJJlxCEQgGxtYIimz2d1icX8Ha5pEzF9WBDPu+oK26bqrxY/vt+BDG6msAYGAQQQCSgsaEQgYTiCgtKARgYDhBAJKCxoRCBhOIKC0oBGBgOEEAkoLGhEIGE4goLSgEYGA4QQCSgsaEQgYTiCgtKARgYDhBAJKCxoRCBhOIKC0oBGBgOEEAkoLGhEIGE4goLSgEYGA4QQCSgsaEQgYTiCgtKARgYDhBAJKCxoRCBhOIKC0oBGBgOEEAkoLGhEIGE4goLSgEYGA4QQCSgsaEQgYTiCgtKARgYDhBAJKCxoRCBhOIKC0oBGBgOEEAkoLGhEIGE4goLSgEYGA4QQCSgsaEQgYTiCgtKARgYDhdgHpSnM769pv4EMbqayBtpl9akp3uemymlJuFo8P1zVcdlPDRSyvYReQWq7T6zh+AwJZ07FAjn/jRXkGgQgkyr06ynUKRCCj3HhRnlQgAolyr45ynQIRyCg3XpQnFYhAotyro1ynQNYBmZ9flLa9GGURn7SuBip6H8dqfg5S10JejQ38bkAg3gk2sKUBgXh72IBAvAdsgDXgKwjrzVSSBgSSZGiPyRoQCOvNVJIGBJJkaI/JGhAI681UkgYEkmRoj8kaEAjrzVSSBgSSZGiPyRoQCOvNVJIGBJJkaI/JGhAI681UkgYEkmRoj8kaEAjrzVSSBgSSZGiPyRoQCOvNVJIGBJJkaI/JGhAI681UkgYEkmRoj8kaEAjrzVSSBgSSZGiPyRoQCOvNVJIGBJJkaI/JGhAI681UkgYEkmRoj8kaEAjrzVSSBgSSZGiPyRoQCOvNVJIGBJJkaI/JGhAI681UkgYEkmRoj8ka+A94Z15Q9DZVigAAAABJRU5ErkJggg==;" vertex="1" parent="1">
          <mxGeometry x="371" y="447" width="20" height="20" as="geometry" />
        </mxCell>
        <mxCell id="6mD-07ws9WpTAznpwPZ0-3" value="" style="shape=image;verticalLabelPosition=bottom;labelBackgroundColor=default;verticalAlign=top;aspect=fixed;imageAspect=0;image=data:image/png,iVBORw0KGgoAAAANSUhEUgAAAMgAAADICAYAAACtWK6eAAAAAXNSR0IArs4c6QAAB0hJREFUeF7t2W1y03YAhPHI5CBwg0zs74WTFE4CnKT0JOUAdoYbNAcB1HEnnTKdvqC/vbG2+eWztFo962dkOdOVPwQQ+EcCEzYIIPDPBAji04HAvxAgiI8HAgTxGUBgjIAnyBg3Zz0RAgR5IkO7zTECBBnj5qwnQoAgT2RotzlGgCBj3Jz1RAgQ5IkM7TbHCBBkjJuzngiBmCA3NzfPr6+vn19dXb18Iizd5iMT+Pr16/3xkpvN5n6/339MXP7sgux2u3fzPP94dXV1lMMfAo9F4H6app/3+/27c17wbILsdruX8zz/RIxzziNrgMBZRTmLIA9PjbcDN+MUBCIEpml6f46nycmCbLfbX7xnRDYWejqBD4fD4c0pMScJ4slxCnrnPgaBU58kw4I8vHMcnx7+EFg1gWmaXo3+yjUsyHa7/dUL+ao/F8r9SeD+cDi8GAEyJMjt7e3raZqOv1j5Q6CCwDzPb+7u7j4sLTskiKfHUsyOXwGBoafIqCDzCm5YBQQWERh5F1ksiK9XizZx8IoIEGRFY6iyPgIjP/kufoKM/O/jcDgsvs768Gq0NgLb7XbRV32CrG1BfaIECBLFK7ydAEHaF9Q/SoAgUbzC2wkQpH1B/aMECBLFK7ydAEHaF9Q/SoAgUbzC2wkQpH1B/aMECBLFK7ydAEHaF9Q/SoAgUbzC2wkQpH1B/aMECBLFK7ydAEHaF9Q/SoAgUbzC2wkQpH1B/aMECBLFK7ydAEHaF9Q/SoAgUbzC2wkQpH1B/aMECBLFK7ydAEHaF9Q/SoAgUbzC2wkQpH1B/aMECBLFK7ydAEHaF9Q/SoAgUbzC2wkQpH1B/aMECBLFK7ydAEHaF9Q/SoAgUbzC2wkQpH1B/aMECBLFK7ydAEHaF9Q/SoAgUbzC2wkQpH1B/aMECBLFK7ydAEHaF9Q/SoAgUbzC2wkQpH1B/aMECBLFK7ydAEHaF9Q/SoAgUbzC2wkQpH1B/aMECBLFK7ydAEHaF9Q/SoAgUbzC2wkQpH1B/aMECBLFK7ydAEHaF9Q/SoAgUbzC2wkQpH1B/aMECBLFK7ydAEHaF9Q/SoAgUbzC2wkQpH1B/aMECBLFK7ydAEHaF9Q/SoAgUbzC2wkQpH1B/aMECBLFK7ydAEHaF9Q/SoAgUbzC2wkQpH1B/aMECBLFK7ydAEHaF9Q/SoAgUbzC2wkQpH1B/aMECBLFK7ydAEHaF9Q/SoAgUbzC2wkQpH1B/aMECBLFK7ydAEHaF9Q/SoAgUbzC2wkQpH1B/aMECBLFK7ydAEHaF9Q/SoAgUbzC2wkQpH1B/aMECBLFK7ydAEHaF9Q/SoAgUbzC2wkQpH1B/aMECBLFK7ydAEHaF9Q/SoAgUbzC2wkQpH1B/aMECBLFK7ydAEHaF9Q/SoAgUbzC2wkQpH1B/aMECBLFK7ydAEHaF9Q/SoAgUbzC2wkQpH1B/aMECBLFK7ydAEHaF9Q/SoAgUbzC2wkQpH1B/aMECBLFK7ydAEHaF9Q/SoAgUbzC2wkQpH1B/aMECBLFK7ydAEHaF9Q/SoAgUbzC2wkQpH1B/aMECBLFK7ydAEHaF9Q/SoAgUbzC2wkQpH1B/aMECBLFK7ydAEHaF9Q/SoAgUbzC2wkQpH1B/aMECBLFK7ydAEHaF9Q/SoAgUbzC2wkQpH1B/aMECBLFK7ydAEHaF9Q/SoAgUbzC2wkQpH1B/aMECBLFK7ydAEHaF9Q/SoAgUbzC2wkQpH1B/aMECBLFK7ydAEHaF9Q/SoAgUbzC2wkQpH1B/aMECBLFK7ydAEHaF9Q/SoAgUbzC2wkQpH1B/aMECBLFK7ydAEHaF9Q/SoAgUbzC2wkQpH1B/aMECBLFK7ydAEHaF9Q/SoAgUbzC2wkQpH1B/aMECBLFK7ydAEHaF9Q/SoAgUbzC2wkQpH1B/aME/jeCRCkJR+A7Cczz/Obu7u7Ddx7++2HTkoOPx+52u5fzPP+y9DzHI3BpAo8iyM3NzfNnz579eumbdX0ElhL48uXLi0+fPt0vOW/xE+QYvt1uj0+Ql0su5FgELkzg4+FweLW0w5Agt7e3r6dp+mnpxRyPwKUIjHy9GnoHOZ708DXrKIinyKUWd90lBO4Ph8OLJSf8cezQE8TL+ghq51yKwDRNr/b7/ceR6w8L8iDJu3me345c2DkIPAaBaZre7/f7d6PXOkkQkoxid94jERh6Mf+228mCkOSRpnaZRQROfXKc/A7y17YPv2wdv249X3QnDkbgvATup2l6M/rO8dcqZ3mC/BF6/HXr+vr69TzPP/iF67yrS/tPAkcxfj7lfePvrnBWQb69wFGWzWbz+8/Am83GU+U/93XAIIGPnz9/vl/6H/LvvVZMkO8t4DgE1kyAIGteR7eLEyDIxSdQYM0ECLLmdXS7OAGCXHwCBdZMgCBrXke3ixMgyMUnUGDNBAiy5nV0uzgBglx8AgXWTIAga15Ht4sTIMjFJ1BgzQQIsuZ1dLs4gd8AVTnKMgr30rsAAAAASUVORK5CYII=;" vertex="1" parent="1">
          <mxGeometry x="715" y="406" width="16" height="16" as="geometry" />
        </mxCell>
        <mxCell id="6mD-07ws9WpTAznpwPZ0-4" value="" style="shape=image;verticalLabelPosition=bottom;labelBackgroundColor=default;verticalAlign=top;aspect=fixed;imageAspect=0;image=data:image/png,iVBORw0KGgoAAAANSUhEUgAAAMgAAADICAYAAACtWK6eAAAAAXNSR0IArs4c6QAAB0hJREFUeF7t2W1y03YAhPHI5CBwg0zs74WTFE4CnKT0JOUAdoYbNAcB1HEnnTKdvqC/vbG2+eWztFo962dkOdOVPwQQ+EcCEzYIIPDPBAji04HAvxAgiI8HAgTxGUBgjIAnyBg3Zz0RAgR5IkO7zTECBBnj5qwnQoAgT2RotzlGgCBj3Jz1RAgQ5IkM7TbHCBBkjJuzngiBmCA3NzfPr6+vn19dXb18Iizd5iMT+Pr16/3xkpvN5n6/339MXP7sgux2u3fzPP94dXV1lMMfAo9F4H6app/3+/27c17wbILsdruX8zz/RIxzziNrgMBZRTmLIA9PjbcDN+MUBCIEpml6f46nycmCbLfbX7xnRDYWejqBD4fD4c0pMScJ4slxCnrnPgaBU58kw4I8vHMcnx7+EFg1gWmaXo3+yjUsyHa7/dUL+ao/F8r9SeD+cDi8GAEyJMjt7e3raZqOv1j5Q6CCwDzPb+7u7j4sLTskiKfHUsyOXwGBoafIqCDzCm5YBQQWERh5F1ksiK9XizZx8IoIEGRFY6iyPgIjP/kufoKM/O/jcDgsvs768Gq0NgLb7XbRV32CrG1BfaIECBLFK7ydAEHaF9Q/SoAgUbzC2wkQpH1B/aMECBLFK7ydAEHaF9Q/SoAgUbzC2wkQpH1B/aMECBLFK7ydAEHaF9Q/SoAgUbzC2wkQpH1B/aMECBLFK7ydAEHaF9Q/SoAgUbzC2wkQpH1B/aMECBLFK7ydAEHaF9Q/SoAgUbzC2wkQpH1B/aMECBLFK7ydAEHaF9Q/SoAgUbzC2wkQpH1B/aMECBLFK7ydAEHaF9Q/SoAgUbzC2wkQpH1B/aMECBLFK7ydAEHaF9Q/SoAgUbzC2wkQpH1B/aMECBLFK7ydAEHaF9Q/SoAgUbzC2wkQpH1B/aMECBLFK7ydAEHaF9Q/SoAgUbzC2wkQpH1B/aMECBLFK7ydAEHaF9Q/SoAgUbzC2wkQpH1B/aMECBLFK7ydAEHaF9Q/SoAgUbzC2wkQpH1B/aMECBLFK7ydAEHaF9Q/SoAgUbzC2wkQpH1B/aMECBLFK7ydAEHaF9Q/SoAgUbzC2wkQpH1B/aMECBLFK7ydAEHaF9Q/SoAgUbzC2wkQpH1B/aMECBLFK7ydAEHaF9Q/SoAgUbzC2wkQpH1B/aMECBLFK7ydAEHaF9Q/SoAgUbzC2wkQpH1B/aMECBLFK7ydAEHaF9Q/SoAgUbzC2wkQpH1B/aMECBLFK7ydAEHaF9Q/SoAgUbzC2wkQpH1B/aMECBLFK7ydAEHaF9Q/SoAgUbzC2wkQpH1B/aMECBLFK7ydAEHaF9Q/SoAgUbzC2wkQpH1B/aMECBLFK7ydAEHaF9Q/SoAgUbzC2wkQpH1B/aMECBLFK7ydAEHaF9Q/SoAgUbzC2wkQpH1B/aMECBLFK7ydAEHaF9Q/SoAgUbzC2wkQpH1B/aMECBLFK7ydAEHaF9Q/SoAgUbzC2wkQpH1B/aMECBLFK7ydAEHaF9Q/SoAgUbzC2wkQpH1B/aMECBLFK7ydAEHaF9Q/SoAgUbzC2wkQpH1B/aMECBLFK7ydAEHaF9Q/SoAgUbzC2wkQpH1B/aMECBLFK7ydAEHaF9Q/SoAgUbzC2wkQpH1B/aMECBLFK7ydAEHaF9Q/SoAgUbzC2wkQpH1B/aMECBLFK7ydAEHaF9Q/SoAgUbzC2wkQpH1B/aMECBLFK7ydAEHaF9Q/SoAgUbzC2wkQpH1B/aMECBLFK7ydAEHaF9Q/SoAgUbzC2wkQpH1B/aMECBLFK7ydAEHaF9Q/SoAgUbzC2wkQpH1B/aMECBLFK7ydAEHaF9Q/SoAgUbzC2wkQpH1B/aMECBLFK7ydAEHaF9Q/SoAgUbzC2wkQpH1B/aMECBLFK7ydAEHaF9Q/SoAgUbzC2wkQpH1B/aME/jeCRCkJR+A7Cczz/Obu7u7Ddx7++2HTkoOPx+52u5fzPP+y9DzHI3BpAo8iyM3NzfNnz579eumbdX0ElhL48uXLi0+fPt0vOW/xE+QYvt1uj0+Ql0su5FgELkzg4+FweLW0w5Agt7e3r6dp+mnpxRyPwKUIjHy9GnoHOZ708DXrKIinyKUWd90lBO4Ph8OLJSf8cezQE8TL+ghq51yKwDRNr/b7/ceR6w8L8iDJu3me345c2DkIPAaBaZre7/f7d6PXOkkQkoxid94jERh6Mf+228mCkOSRpnaZRQROfXKc/A7y17YPv2wdv249X3QnDkbgvATup2l6M/rO8dcqZ3mC/BF6/HXr+vr69TzPP/iF67yrS/tPAkcxfj7lfePvrnBWQb69wFGWzWbz+8/Am83GU+U/93XAIIGPnz9/vl/6H/LvvVZMkO8t4DgE1kyAIGteR7eLEyDIxSdQYM0ECLLmdXS7OAGCXHwCBdZMgCBrXke3ixMgyMUnUGDNBAiy5nV0uzgBglx8AgXWTIAga15Ht4sTIMjFJ1BgzQQIsuZ1dLs4gd8AVTnKMgr30rsAAAAASUVORK5CYII=;" vertex="1" parent="1">
          <mxGeometry x="715" y="435" width="16" height="16" as="geometry" />
        </mxCell>
        <mxCell id="6mD-07ws9WpTAznpwPZ0-6" value="" style="shape=image;verticalLabelPosition=bottom;labelBackgroundColor=default;verticalAlign=top;aspect=fixed;imageAspect=0;image=data:image/png,iVBORw0KGgoAAAANSUhEUgAAAMgAAADICAYAAACtWK6eAAAAAXNSR0IArs4c6QAAB0hJREFUeF7t2W1y03YAhPHI5CBwg0zs74WTFE4CnKT0JOUAdoYbNAcB1HEnnTKdvqC/vbG2+eWztFo962dkOdOVPwQQ+EcCEzYIIPDPBAji04HAvxAgiI8HAgTxGUBgjIAnyBg3Zz0RAgR5IkO7zTECBBnj5qwnQoAgT2RotzlGgCBj3Jz1RAgQ5IkM7TbHCBBkjJuzngiBmCA3NzfPr6+vn19dXb18Iizd5iMT+Pr16/3xkpvN5n6/339MXP7sgux2u3fzPP94dXV1lMMfAo9F4H6app/3+/27c17wbILsdruX8zz/RIxzziNrgMBZRTmLIA9PjbcDN+MUBCIEpml6f46nycmCbLfbX7xnRDYWejqBD4fD4c0pMScJ4slxCnrnPgaBU58kw4I8vHMcnx7+EFg1gWmaXo3+yjUsyHa7/dUL+ao/F8r9SeD+cDi8GAEyJMjt7e3raZqOv1j5Q6CCwDzPb+7u7j4sLTskiKfHUsyOXwGBoafIqCDzCm5YBQQWERh5F1ksiK9XizZx8IoIEGRFY6iyPgIjP/kufoKM/O/jcDgsvs768Gq0NgLb7XbRV32CrG1BfaIECBLFK7ydAEHaF9Q/SoAgUbzC2wkQpH1B/aMECBLFK7ydAEHaF9Q/SoAgUbzC2wkQpH1B/aMECBLFK7ydAEHaF9Q/SoAgUbzC2wkQpH1B/aMECBLFK7ydAEHaF9Q/SoAgUbzC2wkQpH1B/aMECBLFK7ydAEHaF9Q/SoAgUbzC2wkQpH1B/aMECBLFK7ydAEHaF9Q/SoAgUbzC2wkQpH1B/aMECBLFK7ydAEHaF9Q/SoAgUbzC2wkQpH1B/aMECBLFK7ydAEHaF9Q/SoAgUbzC2wkQpH1B/aMECBLFK7ydAEHaF9Q/SoAgUbzC2wkQpH1B/aMECBLFK7ydAEHaF9Q/SoAgUbzC2wkQpH1B/aMECBLFK7ydAEHaF9Q/SoAgUbzC2wkQpH1B/aMECBLFK7ydAEHaF9Q/SoAgUbzC2wkQpH1B/aMECBLFK7ydAEHaF9Q/SoAgUbzC2wkQpH1B/aMECBLFK7ydAEHaF9Q/SoAgUbzC2wkQpH1B/aMECBLFK7ydAEHaF9Q/SoAgUbzC2wkQpH1B/aMECBLFK7ydAEHaF9Q/SoAgUbzC2wkQpH1B/aMECBLFK7ydAEHaF9Q/SoAgUbzC2wkQpH1B/aMECBLFK7ydAEHaF9Q/SoAgUbzC2wkQpH1B/aMECBLFK7ydAEHaF9Q/SoAgUbzC2wkQpH1B/aMECBLFK7ydAEHaF9Q/SoAgUbzC2wkQpH1B/aMECBLFK7ydAEHaF9Q/SoAgUbzC2wkQpH1B/aMECBLFK7ydAEHaF9Q/SoAgUbzC2wkQpH1B/aMECBLFK7ydAEHaF9Q/SoAgUbzC2wkQpH1B/aMECBLFK7ydAEHaF9Q/SoAgUbzC2wkQpH1B/aMECBLFK7ydAEHaF9Q/SoAgUbzC2wkQpH1B/aMECBLFK7ydAEHaF9Q/SoAgUbzC2wkQpH1B/aMECBLFK7ydAEHaF9Q/SoAgUbzC2wkQpH1B/aMECBLFK7ydAEHaF9Q/SoAgUbzC2wkQpH1B/aMECBLFK7ydAEHaF9Q/SoAgUbzC2wkQpH1B/aMECBLFK7ydAEHaF9Q/SoAgUbzC2wkQpH1B/aMECBLFK7ydAEHaF9Q/SoAgUbzC2wkQpH1B/aMECBLFK7ydAEHaF9Q/SoAgUbzC2wkQpH1B/aMECBLFK7ydAEHaF9Q/SoAgUbzC2wkQpH1B/aMECBLFK7ydAEHaF9Q/SoAgUbzC2wkQpH1B/aMECBLFK7ydAEHaF9Q/SoAgUbzC2wkQpH1B/aMECBLFK7ydAEHaF9Q/SoAgUbzC2wkQpH1B/aMECBLFK7ydAEHaF9Q/SoAgUbzC2wkQpH1B/aME/jeCRCkJR+A7Cczz/Obu7u7Ddx7++2HTkoOPx+52u5fzPP+y9DzHI3BpAo8iyM3NzfNnz579eumbdX0ElhL48uXLi0+fPt0vOW/xE+QYvt1uj0+Ql0su5FgELkzg4+FweLW0w5Agt7e3r6dp+mnpxRyPwKUIjHy9GnoHOZ708DXrKIinyKUWd90lBO4Ph8OLJSf8cezQE8TL+ghq51yKwDRNr/b7/ceR6w8L8iDJu3me345c2DkIPAaBaZre7/f7d6PXOkkQkoxid94jERh6Mf+228mCkOSRpnaZRQROfXKc/A7y17YPv2wdv249X3QnDkbgvATup2l6M/rO8dcqZ3mC/BF6/HXr+vr69TzPP/iF67yrS/tPAkcxfj7lfePvrnBWQb69wFGWzWbz+8/Am83GU+U/93XAIIGPnz9/vl/6H/LvvVZMkO8t4DgE1kyAIGteR7eLEyDIxSdQYM0ECLLmdXS7OAGCXHwCBdZMgCBrXke3ixMgyMUnUGDNBAiy5nV0uzgBglx8AgXWTIAga15Ht4sTIMjFJ1BgzQQIsuZ1dLs4gd8AVTnKMgr30rsAAAAASUVORK5CYII=;" vertex="1" parent="1">
          <mxGeometry x="715" y="362" width="16" height="16" as="geometry" />
        </mxCell>
        <mxCell id="6mD-07ws9WpTAznpwPZ0-7" value="" style="shape=image;verticalLabelPosition=bottom;labelBackgroundColor=default;verticalAlign=top;aspect=fixed;imageAspect=0;image=data:image/png,iVBORw0KGgoAAAANSUhEUgAAAMgAAADICAYAAACtWK6eAAAAAXNSR0IArs4c6QAAB0hJREFUeF7t2W1y03YAhPHI5CBwg0zs74WTFE4CnKT0JOUAdoYbNAcB1HEnnTKdvqC/vbG2+eWztFo962dkOdOVPwQQ+EcCEzYIIPDPBAji04HAvxAgiI8HAgTxGUBgjIAnyBg3Zz0RAgR5IkO7zTECBBnj5qwnQoAgT2RotzlGgCBj3Jz1RAgQ5IkM7TbHCBBkjJuzngiBmCA3NzfPr6+vn19dXb18Iizd5iMT+Pr16/3xkpvN5n6/339MXP7sgux2u3fzPP94dXV1lMMfAo9F4H6app/3+/27c17wbILsdruX8zz/RIxzziNrgMBZRTmLIA9PjbcDN+MUBCIEpml6f46nycmCbLfbX7xnRDYWejqBD4fD4c0pMScJ4slxCnrnPgaBU58kw4I8vHMcnx7+EFg1gWmaXo3+yjUsyHa7/dUL+ao/F8r9SeD+cDi8GAEyJMjt7e3raZqOv1j5Q6CCwDzPb+7u7j4sLTskiKfHUsyOXwGBoafIqCDzCm5YBQQWERh5F1ksiK9XizZx8IoIEGRFY6iyPgIjP/kufoKM/O/jcDgsvs768Gq0NgLb7XbRV32CrG1BfaIECBLFK7ydAEHaF9Q/SoAgUbzC2wkQpH1B/aMECBLFK7ydAEHaF9Q/SoAgUbzC2wkQpH1B/aMECBLFK7ydAEHaF9Q/SoAgUbzC2wkQpH1B/aMECBLFK7ydAEHaF9Q/SoAgUbzC2wkQpH1B/aMECBLFK7ydAEHaF9Q/SoAgUbzC2wkQpH1B/aMECBLFK7ydAEHaF9Q/SoAgUbzC2wkQpH1B/aMECBLFK7ydAEHaF9Q/SoAgUbzC2wkQpH1B/aMECBLFK7ydAEHaF9Q/SoAgUbzC2wkQpH1B/aMECBLFK7ydAEHaF9Q/SoAgUbzC2wkQpH1B/aMECBLFK7ydAEHaF9Q/SoAgUbzC2wkQpH1B/aMECBLFK7ydAEHaF9Q/SoAgUbzC2wkQpH1B/aMECBLFK7ydAEHaF9Q/SoAgUbzC2wkQpH1B/aMECBLFK7ydAEHaF9Q/SoAgUbzC2wkQpH1B/aMECBLFK7ydAEHaF9Q/SoAgUbzC2wkQpH1B/aMECBLFK7ydAEHaF9Q/SoAgUbzC2wkQpH1B/aMECBLFK7ydAEHaF9Q/SoAgUbzC2wkQpH1B/aMECBLFK7ydAEHaF9Q/SoAgUbzC2wkQpH1B/aMECBLFK7ydAEHaF9Q/SoAgUbzC2wkQpH1B/aMECBLFK7ydAEHaF9Q/SoAgUbzC2wkQpH1B/aMECBLFK7ydAEHaF9Q/SoAgUbzC2wkQpH1B/aMECBLFK7ydAEHaF9Q/SoAgUbzC2wkQpH1B/aMECBLFK7ydAEHaF9Q/SoAgUbzC2wkQpH1B/aMECBLFK7ydAEHaF9Q/SoAgUbzC2wkQpH1B/aMECBLFK7ydAEHaF9Q/SoAgUbzC2wkQpH1B/aMECBLFK7ydAEHaF9Q/SoAgUbzC2wkQpH1B/aMECBLFK7ydAEHaF9Q/SoAgUbzC2wkQpH1B/aMECBLFK7ydAEHaF9Q/SoAgUbzC2wkQpH1B/aMECBLFK7ydAEHaF9Q/SoAgUbzC2wkQpH1B/aMECBLFK7ydAEHaF9Q/SoAgUbzC2wkQpH1B/aMECBLFK7ydAEHaF9Q/SoAgUbzC2wkQpH1B/aMECBLFK7ydAEHaF9Q/SoAgUbzC2wkQpH1B/aMECBLFK7ydAEHaF9Q/SoAgUbzC2wkQpH1B/aMECBLFK7ydAEHaF9Q/SoAgUbzC2wkQpH1B/aMECBLFK7ydAEHaF9Q/SoAgUbzC2wkQpH1B/aMECBLFK7ydAEHaF9Q/SoAgUbzC2wkQpH1B/aMECBLFK7ydAEHaF9Q/SoAgUbzC2wkQpH1B/aMECBLFK7ydAEHaF9Q/SoAgUbzC2wkQpH1B/aME/jeCRCkJR+A7Cczz/Obu7u7Ddx7++2HTkoOPx+52u5fzPP+y9DzHI3BpAo8iyM3NzfNnz579eumbdX0ElhL48uXLi0+fPt0vOW/xE+QYvt1uj0+Ql0su5FgELkzg4+FweLW0w5Agt7e3r6dp+mnpxRyPwKUIjHy9GnoHOZ708DXrKIinyKUWd90lBO4Ph8OLJSf8cezQE8TL+ghq51yKwDRNr/b7/ceR6w8L8iDJu3me345c2DkIPAaBaZre7/f7d6PXOkkQkoxid94jERh6Mf+228mCkOSRpnaZRQROfXKc/A7y17YPv2wdv249X3QnDkbgvATup2l6M/rO8dcqZ3mC/BF6/HXr+vr69TzPP/iF67yrS/tPAkcxfj7lfePvrnBWQb69wFGWzWbz+8/Am83GU+U/93XAIIGPnz9/vl/6H/LvvVZMkO8t4DgE1kyAIGteR7eLEyDIxSdQYM0ECLLmdXS7OAGCXHwCBdZMgCBrXke3ixMgyMUnUGDNBAiy5nV0uzgBglx8AgXWTIAga15Ht4sTIMjFJ1BgzQQIsuZ1dLs4gd8AVTnKMgr30rsAAAAASUVORK5CYII=;" vertex="1" parent="1">
          <mxGeometry x="715" y="332" width="16" height="16" as="geometry" />
        </mxCell>
        <mxCell id="6mD-07ws9WpTAznpwPZ0-8" value="" style="shape=image;verticalLabelPosition=bottom;labelBackgroundColor=default;verticalAlign=top;aspect=fixed;imageAspect=0;image=data:image/png,iVBORw0KGgoAAAANSUhEUgAAAMgAAADICAYAAACtWK6eAAAAAXNSR0IArs4c6QAAB0hJREFUeF7t2W1y03YAhPHI5CBwg0zs74WTFE4CnKT0JOUAdoYbNAcB1HEnnTKdvqC/vbG2+eWztFo962dkOdOVPwQQ+EcCEzYIIPDPBAji04HAvxAgiI8HAgTxGUBgjIAnyBg3Zz0RAgR5IkO7zTECBBnj5qwnQoAgT2RotzlGgCBj3Jz1RAgQ5IkM7TbHCBBkjJuzngiBmCA3NzfPr6+vn19dXb18Iizd5iMT+Pr16/3xkpvN5n6/339MXP7sgux2u3fzPP94dXV1lMMfAo9F4H6app/3+/27c17wbILsdruX8zz/RIxzziNrgMBZRTmLIA9PjbcDN+MUBCIEpml6f46nycmCbLfbX7xnRDYWejqBD4fD4c0pMScJ4slxCnrnPgaBU58kw4I8vHMcnx7+EFg1gWmaXo3+yjUsyHa7/dUL+ao/F8r9SeD+cDi8GAEyJMjt7e3raZqOv1j5Q6CCwDzPb+7u7j4sLTskiKfHUsyOXwGBoafIqCDzCm5YBQQWERh5F1ksiK9XizZx8IoIEGRFY6iyPgIjP/kufoKM/O/jcDgsvs768Gq0NgLb7XbRV32CrG1BfaIECBLFK7ydAEHaF9Q/SoAgUbzC2wkQpH1B/aMECBLFK7ydAEHaF9Q/SoAgUbzC2wkQpH1B/aMECBLFK7ydAEHaF9Q/SoAgUbzC2wkQpH1B/aMECBLFK7ydAEHaF9Q/SoAgUbzC2wkQpH1B/aMECBLFK7ydAEHaF9Q/SoAgUbzC2wkQpH1B/aMECBLFK7ydAEHaF9Q/SoAgUbzC2wkQpH1B/aMECBLFK7ydAEHaF9Q/SoAgUbzC2wkQpH1B/aMECBLFK7ydAEHaF9Q/SoAgUbzC2wkQpH1B/aMECBLFK7ydAEHaF9Q/SoAgUbzC2wkQpH1B/aMECBLFK7ydAEHaF9Q/SoAgUbzC2wkQpH1B/aMECBLFK7ydAEHaF9Q/SoAgUbzC2wkQpH1B/aMECBLFK7ydAEHaF9Q/SoAgUbzC2wkQpH1B/aMECBLFK7ydAEHaF9Q/SoAgUbzC2wkQpH1B/aMECBLFK7ydAEHaF9Q/SoAgUbzC2wkQpH1B/aMECBLFK7ydAEHaF9Q/SoAgUbzC2wkQpH1B/aMECBLFK7ydAEHaF9Q/SoAgUbzC2wkQpH1B/aMECBLFK7ydAEHaF9Q/SoAgUbzC2wkQpH1B/aMECBLFK7ydAEHaF9Q/SoAgUbzC2wkQpH1B/aMECBLFK7ydAEHaF9Q/SoAgUbzC2wkQpH1B/aMECBLFK7ydAEHaF9Q/SoAgUbzC2wkQpH1B/aMECBLFK7ydAEHaF9Q/SoAgUbzC2wkQpH1B/aMECBLFK7ydAEHaF9Q/SoAgUbzC2wkQpH1B/aMECBLFK7ydAEHaF9Q/SoAgUbzC2wkQpH1B/aMECBLFK7ydAEHaF9Q/SoAgUbzC2wkQpH1B/aMECBLFK7ydAEHaF9Q/SoAgUbzC2wkQpH1B/aMECBLFK7ydAEHaF9Q/SoAgUbzC2wkQpH1B/aMECBLFK7ydAEHaF9Q/SoAgUbzC2wkQpH1B/aMECBLFK7ydAEHaF9Q/SoAgUbzC2wkQpH1B/aMECBLFK7ydAEHaF9Q/SoAgUbzC2wkQpH1B/aMECBLFK7ydAEHaF9Q/SoAgUbzC2wkQpH1B/aMECBLFK7ydAEHaF9Q/SoAgUbzC2wkQpH1B/aMECBLFK7ydAEHaF9Q/SoAgUbzC2wkQpH1B/aMECBLFK7ydAEHaF9Q/SoAgUbzC2wkQpH1B/aMECBLFK7ydAEHaF9Q/SoAgUbzC2wkQpH1B/aMECBLFK7ydAEHaF9Q/SoAgUbzC2wkQpH1B/aMECBLFK7ydAEHaF9Q/SoAgUbzC2wkQpH1B/aMECBLFK7ydAEHaF9Q/SoAgUbzC2wkQpH1B/aME/jeCRCkJR+A7Cczz/Obu7u7Ddx7++2HTkoOPx+52u5fzPP+y9DzHI3BpAo8iyM3NzfNnz579eumbdX0ElhL48uXLi0+fPt0vOW/xE+QYvt1uj0+Ql0su5FgELkzg4+FweLW0w5Agt7e3r6dp+mnpxRyPwKUIjHy9GnoHOZ708DXrKIinyKUWd90lBO4Ph8OLJSf8cezQE8TL+ghq51yKwDRNr/b7/ceR6w8L8iDJu3me345c2DkIPAaBaZre7/f7d6PXOkkQkoxid94jERh6Mf+228mCkOSRpnaZRQROfXKc/A7y17YPv2wdv249X3QnDkbgvATup2l6M/rO8dcqZ3mC/BF6/HXr+vr69TzPP/iF67yrS/tPAkcxfj7lfePvrnBWQb69wFGWzWbz+8/Am83GU+U/93XAIIGPnz9/vl/6H/LvvVZMkO8t4DgE1kyAIGteR7eLEyDIxSdQYM0ECLLmdXS7OAGCXHwCBdZMgCBrXke3ixMgyMUnUGDNBAiy5nV0uzgBglx8AgXWTIAga15Ht4sTIMjFJ1BgzQQIsuZ1dLs4gd8AVTnKMgr30rsAAAAASUVORK5CYII=;" vertex="1" parent="1">
          <mxGeometry x="371" y="419" width="16" height="16" as="geometry" />
        </mxCell>
        <mxCell id="6mD-07ws9WpTAznpwPZ0-9" value="" style="shape=image;verticalLabelPosition=bottom;labelBackgroundColor=default;verticalAlign=top;aspect=fixed;imageAspect=0;image=data:image/png,iVBORw0KGgoAAAANSUhEUgAAAMgAAADICAYAAACtWK6eAAAAAXNSR0IArs4c6QAAB0hJREFUeF7t2W1y03YAhPHI5CBwg0zs74WTFE4CnKT0JOUAdoYbNAcB1HEnnTKdvqC/vbG2+eWztFo962dkOdOVPwQQ+EcCEzYIIPDPBAji04HAvxAgiI8HAgTxGUBgjIAnyBg3Zz0RAgR5IkO7zTECBBnj5qwnQoAgT2RotzlGgCBj3Jz1RAgQ5IkM7TbHCBBkjJuzngiBmCA3NzfPr6+vn19dXb18Iizd5iMT+Pr16/3xkpvN5n6/339MXP7sgux2u3fzPP94dXV1lMMfAo9F4H6app/3+/27c17wbILsdruX8zz/RIxzziNrgMBZRTmLIA9PjbcDN+MUBCIEpml6f46nycmCbLfbX7xnRDYWejqBD4fD4c0pMScJ4slxCnrnPgaBU58kw4I8vHMcnx7+EFg1gWmaXo3+yjUsyHa7/dUL+ao/F8r9SeD+cDi8GAEyJMjt7e3raZqOv1j5Q6CCwDzPb+7u7j4sLTskiKfHUsyOXwGBoafIqCDzCm5YBQQWERh5F1ksiK9XizZx8IoIEGRFY6iyPgIjP/kufoKM/O/jcDgsvs768Gq0NgLb7XbRV32CrG1BfaIECBLFK7ydAEHaF9Q/SoAgUbzC2wkQpH1B/aMECBLFK7ydAEHaF9Q/SoAgUbzC2wkQpH1B/aMECBLFK7ydAEHaF9Q/SoAgUbzC2wkQpH1B/aMECBLFK7ydAEHaF9Q/SoAgUbzC2wkQpH1B/aMECBLFK7ydAEHaF9Q/SoAgUbzC2wkQpH1B/aMECBLFK7ydAEHaF9Q/SoAgUbzC2wkQpH1B/aMECBLFK7ydAEHaF9Q/SoAgUbzC2wkQpH1B/aMECBLFK7ydAEHaF9Q/SoAgUbzC2wkQpH1B/aMECBLFK7ydAEHaF9Q/SoAgUbzC2wkQpH1B/aMECBLFK7ydAEHaF9Q/SoAgUbzC2wkQpH1B/aMECBLFK7ydAEHaF9Q/SoAgUbzC2wkQpH1B/aMECBLFK7ydAEHaF9Q/SoAgUbzC2wkQpH1B/aMECBLFK7ydAEHaF9Q/SoAgUbzC2wkQpH1B/aMECBLFK7ydAEHaF9Q/SoAgUbzC2wkQpH1B/aMECBLFK7ydAEHaF9Q/SoAgUbzC2wkQpH1B/aMECBLFK7ydAEHaF9Q/SoAgUbzC2wkQpH1B/aMECBLFK7ydAEHaF9Q/SoAgUbzC2wkQpH1B/aMECBLFK7ydAEHaF9Q/SoAgUbzC2wkQpH1B/aMECBLFK7ydAEHaF9Q/SoAgUbzC2wkQpH1B/aMECBLFK7ydAEHaF9Q/SoAgUbzC2wkQpH1B/aMECBLFK7ydAEHaF9Q/SoAgUbzC2wkQpH1B/aMECBLFK7ydAEHaF9Q/SoAgUbzC2wkQpH1B/aMECBLFK7ydAEHaF9Q/SoAgUbzC2wkQpH1B/aMECBLFK7ydAEHaF9Q/SoAgUbzC2wkQpH1B/aMECBLFK7ydAEHaF9Q/SoAgUbzC2wkQpH1B/aMECBLFK7ydAEHaF9Q/SoAgUbzC2wkQpH1B/aMECBLFK7ydAEHaF9Q/SoAgUbzC2wkQpH1B/aMECBLFK7ydAEHaF9Q/SoAgUbzC2wkQpH1B/aMECBLFK7ydAEHaF9Q/SoAgUbzC2wkQpH1B/aMECBLFK7ydAEHaF9Q/SoAgUbzC2wkQpH1B/aMECBLFK7ydAEHaF9Q/SoAgUbzC2wkQpH1B/aMECBLFK7ydAEHaF9Q/SoAgUbzC2wkQpH1B/aMECBLFK7ydAEHaF9Q/SoAgUbzC2wkQpH1B/aMECBLFK7ydAEHaF9Q/SoAgUbzC2wkQpH1B/aMECBLFK7ydAEHaF9Q/SoAgUbzC2wkQpH1B/aMECBLFK7ydAEHaF9Q/SoAgUbzC2wkQpH1B/aMECBLFK7ydAEHaF9Q/SoAgUbzC2wkQpH1B/aME/jeCRCkJR+A7Cczz/Obu7u7Ddx7++2HTkoOPx+52u5fzPP+y9DzHI3BpAo8iyM3NzfNnz579eumbdX0ElhL48uXLi0+fPt0vOW/xE+QYvt1uj0+Ql0su5FgELkzg4+FweLW0w5Agt7e3r6dp+mnpxRyPwKUIjHy9GnoHOZ708DXrKIinyKUWd90lBO4Ph8OLJSf8cezQE8TL+ghq51yKwDRNr/b7/ceR6w8L8iDJu3me345c2DkIPAaBaZre7/f7d6PXOkkQkoxid94jERh6Mf+228mCkOSRpnaZRQROfXKc/A7y17YPv2wdv249X3QnDkbgvATup2l6M/rO8dcqZ3mC/BF6/HXr+vr69TzPP/iF67yrS/tPAkcxfj7lfePvrnBWQb69wFGWzWbz+8/Am83GU+U/93XAIIGPnz9/vl/6H/LvvVZMkO8t4DgE1kyAIGteR7eLEyDIxSdQYM0ECLLmdXS7OAGCXHwCBdZMgCBrXke3ixMgyMUnUGDNBAiy5nV0uzgBglx8AgXWTIAga15Ht4sTIMjFJ1BgzQQIsuZ1dLs4gd8AVTnKMgr30rsAAAAASUVORK5CYII=;" vertex="1" parent="1">
          <mxGeometry x="371" y="390" width="16" height="16" as="geometry" />
        </mxCell>
        <mxCell id="6mD-07ws9WpTAznpwPZ0-10" value="" style="shape=image;verticalLabelPosition=bottom;labelBackgroundColor=default;verticalAlign=top;aspect=fixed;imageAspect=0;image=data:image/png,iVBORw0KGgoAAAANSUhEUgAAAMgAAADICAYAAACtWK6eAAAAAXNSR0IArs4c6QAAB0hJREFUeF7t2W1y03YAhPHI5CBwg0zs74WTFE4CnKT0JOUAdoYbNAcB1HEnnTKdvqC/vbG2+eWztFo962dkOdOVPwQQ+EcCEzYIIPDPBAji04HAvxAgiI8HAgTxGUBgjIAnyBg3Zz0RAgR5IkO7zTECBBnj5qwnQoAgT2RotzlGgCBj3Jz1RAgQ5IkM7TbHCBBkjJuzngiBmCA3NzfPr6+vn19dXb18Iizd5iMT+Pr16/3xkpvN5n6/339MXP7sgux2u3fzPP94dXV1lMMfAo9F4H6app/3+/27c17wbILsdruX8zz/RIxzziNrgMBZRTmLIA9PjbcDN+MUBCIEpml6f46nycmCbLfbX7xnRDYWejqBD4fD4c0pMScJ4slxCnrnPgaBU58kw4I8vHMcnx7+EFg1gWmaXo3+yjUsyHa7/dUL+ao/F8r9SeD+cDi8GAEyJMjt7e3raZqOv1j5Q6CCwDzPb+7u7j4sLTskiKfHUsyOXwGBoafIqCDzCm5YBQQWERh5F1ksiK9XizZx8IoIEGRFY6iyPgIjP/kufoKM/O/jcDgsvs768Gq0NgLb7XbRV32CrG1BfaIECBLFK7ydAEHaF9Q/SoAgUbzC2wkQpH1B/aMECBLFK7ydAEHaF9Q/SoAgUbzC2wkQpH1B/aMECBLFK7ydAEHaF9Q/SoAgUbzC2wkQpH1B/aMECBLFK7ydAEHaF9Q/SoAgUbzC2wkQpH1B/aMECBLFK7ydAEHaF9Q/SoAgUbzC2wkQpH1B/aMECBLFK7ydAEHaF9Q/SoAgUbzC2wkQpH1B/aMECBLFK7ydAEHaF9Q/SoAgUbzC2wkQpH1B/aMECBLFK7ydAEHaF9Q/SoAgUbzC2wkQpH1B/aMECBLFK7ydAEHaF9Q/SoAgUbzC2wkQpH1B/aMECBLFK7ydAEHaF9Q/SoAgUbzC2wkQpH1B/aMECBLFK7ydAEHaF9Q/SoAgUbzC2wkQpH1B/aMECBLFK7ydAEHaF9Q/SoAgUbzC2wkQpH1B/aMECBLFK7ydAEHaF9Q/SoAgUbzC2wkQpH1B/aMECBLFK7ydAEHaF9Q/SoAgUbzC2wkQpH1B/aMECBLFK7ydAEHaF9Q/SoAgUbzC2wkQpH1B/aMECBLFK7ydAEHaF9Q/SoAgUbzC2wkQpH1B/aMECBLFK7ydAEHaF9Q/SoAgUbzC2wkQpH1B/aMECBLFK7ydAEHaF9Q/SoAgUbzC2wkQpH1B/aMECBLFK7ydAEHaF9Q/SoAgUbzC2wkQpH1B/aMECBLFK7ydAEHaF9Q/SoAgUbzC2wkQpH1B/aMECBLFK7ydAEHaF9Q/SoAgUbzC2wkQpH1B/aMECBLFK7ydAEHaF9Q/SoAgUbzC2wkQpH1B/aMECBLFK7ydAEHaF9Q/SoAgUbzC2wkQpH1B/aMECBLFK7ydAEHaF9Q/SoAgUbzC2wkQpH1B/aMECBLFK7ydAEHaF9Q/SoAgUbzC2wkQpH1B/aMECBLFK7ydAEHaF9Q/SoAgUbzC2wkQpH1B/aMECBLFK7ydAEHaF9Q/SoAgUbzC2wkQpH1B/aMECBLFK7ydAEHaF9Q/SoAgUbzC2wkQpH1B/aMECBLFK7ydAEHaF9Q/SoAgUbzC2wkQpH1B/aMECBLFK7ydAEHaF9Q/SoAgUbzC2wkQpH1B/aMECBLFK7ydAEHaF9Q/SoAgUbzC2wkQpH1B/aMECBLFK7ydAEHaF9Q/SoAgUbzC2wkQpH1B/aMECBLFK7ydAEHaF9Q/SoAgUbzC2wkQpH1B/aMECBLFK7ydAEHaF9Q/SoAgUbzC2wkQpH1B/aMECBLFK7ydAEHaF9Q/SoAgUbzC2wkQpH1B/aMECBLFK7ydAEHaF9Q/SoAgUbzC2wkQpH1B/aMECBLFK7ydAEHaF9Q/SoAgUbzC2wkQpH1B/aME/jeCRCkJR+A7Cczz/Obu7u7Ddx7++2HTkoOPx+52u5fzPP+y9DzHI3BpAo8iyM3NzfNnz579eumbdX0ElhL48uXLi0+fPt0vOW/xE+QYvt1uj0+Ql0su5FgELkzg4+FweLW0w5Agt7e3r6dp+mnpxRyPwKUIjHy9GnoHOZ708DXrKIinyKUWd90lBO4Ph8OLJSf8cezQE8TL+ghq51yKwDRNr/b7/ceR6w8L8iDJu3me345c2DkIPAaBaZre7/f7d6PXOkkQkoxid94jERh6Mf+228mCkOSRpnaZRQROfXKc/A7y17YPv2wdv249X3QnDkbgvATup2l6M/rO8dcqZ3mC/BF6/HXr+vr69TzPP/iF67yrS/tPAkcxfj7lfePvrnBWQb69wFGWzWbz+8/Am83GU+U/93XAIIGPnz9/vl/6H/LvvVZMkO8t4DgE1kyAIGteR7eLEyDIxSdQYM0ECLLmdXS7OAGCXHwCBdZMgCBrXke3ixMgyMUnUGDNBAiy5nV0uzgBglx8AgXWTIAga15Ht4sTIMjFJ1BgzQQIsuZ1dLs4gd8AVTnKMgr30rsAAAAASUVORK5CYII=;" vertex="1" parent="1">
          <mxGeometry x="373" y="362" width="16" height="16" as="geometry" />
        </mxCell>
        <mxCell id="6mD-07ws9WpTAznpwPZ0-11" value="" style="shape=image;verticalLabelPosition=bottom;labelBackgroundColor=default;verticalAlign=top;aspect=fixed;imageAspect=0;image=data:image/png,iVBORw0KGgoAAAANSUhEUgAAAMgAAADICAYAAACtWK6eAAAAAXNSR0IArs4c6QAAB0hJREFUeF7t2W1y03YAhPHI5CBwg0zs74WTFE4CnKT0JOUAdoYbNAcB1HEnnTKdvqC/vbG2+eWztFo962dkOdOVPwQQ+EcCEzYIIPDPBAji04HAvxAgiI8HAgTxGUBgjIAnyBg3Zz0RAgR5IkO7zTECBBnj5qwnQoAgT2RotzlGgCBj3Jz1RAgQ5IkM7TbHCBBkjJuzngiBmCA3NzfPr6+vn19dXb18Iizd5iMT+Pr16/3xkpvN5n6/339MXP7sgux2u3fzPP94dXV1lMMfAo9F4H6app/3+/27c17wbILsdruX8zz/RIxzziNrgMBZRTmLIA9PjbcDN+MUBCIEpml6f46nycmCbLfbX7xnRDYWejqBD4fD4c0pMScJ4slxCnrnPgaBU58kw4I8vHMcnx7+EFg1gWmaXo3+yjUsyHa7/dUL+ao/F8r9SeD+cDi8GAEyJMjt7e3raZqOv1j5Q6CCwDzPb+7u7j4sLTskiKfHUsyOXwGBoafIqCDzCm5YBQQWERh5F1ksiK9XizZx8IoIEGRFY6iyPgIjP/kufoKM/O/jcDgsvs768Gq0NgLb7XbRV32CrG1BfaIECBLFK7ydAEHaF9Q/SoAgUbzC2wkQpH1B/aMECBLFK7ydAEHaF9Q/SoAgUbzC2wkQpH1B/aMECBLFK7ydAEHaF9Q/SoAgUbzC2wkQpH1B/aMECBLFK7ydAEHaF9Q/SoAgUbzC2wkQpH1B/aMECBLFK7ydAEHaF9Q/SoAgUbzC2wkQpH1B/aMECBLFK7ydAEHaF9Q/SoAgUbzC2wkQpH1B/aMECBLFK7ydAEHaF9Q/SoAgUbzC2wkQpH1B/aMECBLFK7ydAEHaF9Q/SoAgUbzC2wkQpH1B/aMECBLFK7ydAEHaF9Q/SoAgUbzC2wkQpH1B/aMECBLFK7ydAEHaF9Q/SoAgUbzC2wkQpH1B/aMECBLFK7ydAEHaF9Q/SoAgUbzC2wkQpH1B/aMECBLFK7ydAEHaF9Q/SoAgUbzC2wkQpH1B/aMECBLFK7ydAEHaF9Q/SoAgUbzC2wkQpH1B/aMECBLFK7ydAEHaF9Q/SoAgUbzC2wkQpH1B/aMECBLFK7ydAEHaF9Q/SoAgUbzC2wkQpH1B/aMECBLFK7ydAEHaF9Q/SoAgUbzC2wkQpH1B/aMECBLFK7ydAEHaF9Q/SoAgUbzC2wkQpH1B/aMECBLFK7ydAEHaF9Q/SoAgUbzC2wkQpH1B/aMECBLFK7ydAEHaF9Q/SoAgUbzC2wkQpH1B/aMECBLFK7ydAEHaF9Q/SoAgUbzC2wkQpH1B/aMECBLFK7ydAEHaF9Q/SoAgUbzC2wkQpH1B/aMECBLFK7ydAEHaF9Q/SoAgUbzC2wkQpH1B/aMECBLFK7ydAEHaF9Q/SoAgUbzC2wkQpH1B/aMECBLFK7ydAEHaF9Q/SoAgUbzC2wkQpH1B/aMECBLFK7ydAEHaF9Q/SoAgUbzC2wkQpH1B/aMECBLFK7ydAEHaF9Q/SoAgUbzC2wkQpH1B/aMECBLFK7ydAEHaF9Q/SoAgUbzC2wkQpH1B/aMECBLFK7ydAEHaF9Q/SoAgUbzC2wkQpH1B/aMECBLFK7ydAEHaF9Q/SoAgUbzC2wkQpH1B/aMECBLFK7ydAEHaF9Q/SoAgUbzC2wkQpH1B/aMECBLFK7ydAEHaF9Q/SoAgUbzC2wkQpH1B/aMECBLFK7ydAEHaF9Q/SoAgUbzC2wkQpH1B/aMECBLFK7ydAEHaF9Q/SoAgUbzC2wkQpH1B/aMECBLFK7ydAEHaF9Q/SoAgUbzC2wkQpH1B/aMECBLFK7ydAEHaF9Q/SoAgUbzC2wkQpH1B/aMECBLFK7ydAEHaF9Q/SoAgUbzC2wkQpH1B/aMECBLFK7ydAEHaF9Q/SoAgUbzC2wkQpH1B/aME/jeCRCkJR+A7Cczz/Obu7u7Ddx7++2HTkoOPx+52u5fzPP+y9DzHI3BpAo8iyM3NzfNnz579eumbdX0ElhL48uXLi0+fPt0vOW/xE+QYvt1uj0+Ql0su5FgELkzg4+FweLW0w5Agt7e3r6dp+mnpxRyPwKUIjHy9GnoHOZ708DXrKIinyKUWd90lBO4Ph8OLJSf8cezQE8TL+ghq51yKwDRNr/b7/ceR6w8L8iDJu3me345c2DkIPAaBaZre7/f7d6PXOkkQkoxid94jERh6Mf+228mCkOSRpnaZRQROfXKc/A7y17YPv2wdv249X3QnDkbgvATup2l6M/rO8dcqZ3mC/BF6/HXr+vr69TzPP/iF67yrS/tPAkcxfj7lfePvrnBWQb69wFGWzWbz+8/Am83GU+U/93XAIIGPnz9/vl/6H/LvvVZMkO8t4DgE1kyAIGteR7eLEyDIxSdQYM0ECLLmdXS7OAGCXHwCBdZMgCBrXke3ixMgyMUnUGDNBAiy5nV0uzgBglx8AgXWTIAga15Ht4sTIMjFJ1BgzQQIsuZ1dLs4gd8AVTnKMgr30rsAAAAASUVORK5CYII=;" vertex="1" parent="1">
          <mxGeometry x="371" y="330" width="16" height="16" as="geometry" />
        </mxCell>
      </root>
    </mxGraphModel>
  </diagram>
  <diagram id="p5nM-cw93ejrtOuZQk2b" name="第 2 页">
    <mxGraphModel dx="1020" dy="496" grid="0" gridSize="10" guides="1" tooltips="1" connect="1" arrows="1" fold="1" page="1" pageScale="1" pageWidth="1200" pageHeight="1920" math="0" shadow="0">
      <root>
        <mxCell id="0" />
        <mxCell id="1" parent="0" />
        <mxCell id="lrqYtt0-dxsMB4nwOzM2-1" style="edgeStyle=orthogonalEdgeStyle;rounded=0;orthogonalLoop=1;jettySize=auto;html=1;exitX=1;exitY=0.5;exitDx=0;exitDy=0;entryX=0;entryY=0.5;entryDx=0;entryDy=0;strokeColor=#00AB7A;strokeWidth=2;" edge="1" parent="1" source="lrqYtt0-dxsMB4nwOzM2-3" target="lrqYtt0-dxsMB4nwOzM2-7">
          <mxGeometry relative="1" as="geometry" />
        </mxCell>
        <mxCell id="lrqYtt0-dxsMB4nwOzM2-2" style="edgeStyle=orthogonalEdgeStyle;rounded=0;orthogonalLoop=1;jettySize=auto;html=1;exitX=1;exitY=0.5;exitDx=0;exitDy=0;entryX=0;entryY=0.5;entryDx=0;entryDy=0;strokeColor=#00AB7A;strokeWidth=2;" edge="1" parent="1" source="lrqYtt0-dxsMB4nwOzM2-3" target="lrqYtt0-dxsMB4nwOzM2-8">
          <mxGeometry relative="1" as="geometry" />
        </mxCell>
        <mxCell id="lrqYtt0-dxsMB4nwOzM2-3" value="分析研判" style="rounded=0;whiteSpace=wrap;html=1;fillColor=#00ab7a;fontColor=#ffffff;strokeColor=#2D7600;" vertex="1" parent="1">
          <mxGeometry x="59" y="297" width="120" height="60" as="geometry" />
        </mxCell>
        <mxCell id="lrqYtt0-dxsMB4nwOzM2-7" value="攻击痕迹提取" style="rounded=0;whiteSpace=wrap;html=1;fillColor=#647687;fontColor=#ffffff;strokeColor=#314354;" vertex="1" parent="1">
          <mxGeometry x="229" y="236" width="120" height="40" as="geometry" />
        </mxCell>
        <mxCell id="lrqYtt0-dxsMB4nwOzM2-8" value="攻击样本分析" style="rounded=0;whiteSpace=wrap;html=1;fillColor=#647687;fontColor=#ffffff;strokeColor=#314354;" vertex="1" parent="1">
          <mxGeometry x="229" y="400" width="120" height="40" as="geometry" />
        </mxCell>
        <mxCell id="lrqYtt0-dxsMB4nwOzM2-13" value="" style="group" vertex="1" connectable="0" parent="1">
          <mxGeometry x="369" y="361" width="499" height="121" as="geometry" />
        </mxCell>
        <mxCell id="lrqYtt0-dxsMB4nwOzM2-4" value="" style="rounded=0;whiteSpace=wrap;html=1;fillColor=#eeeeee;strokeColor=#36393d;" vertex="1" parent="lrqYtt0-dxsMB4nwOzM2-13">
          <mxGeometry y="3.4571428571428573" width="478" height="117.54285714285714" as="geometry" />
        </mxCell>
        <mxCell id="lrqYtt0-dxsMB4nwOzM2-5" value="&lt;div&gt;能够对该起事件涉及的恶意进程、&lt;span style=&quot;background-color: initial;&quot;&gt;样本等进行分析，包括功能特点、回连信息等&lt;/span&gt;&lt;/div&gt;" style="text;html=1;strokeColor=none;fillColor=none;align=left;verticalAlign=middle;whiteSpace=wrap;rounded=0;" vertex="1" parent="lrqYtt0-dxsMB4nwOzM2-13">
          <mxGeometry x="29" width="434" height="65.69" as="geometry" />
        </mxCell>
        <mxCell id="lrqYtt0-dxsMB4nwOzM2-12" value="能够对攻击源IP位置及资产数据、攻击频次、攻击历史信息、攻击意图等进行分析" style="text;html=1;strokeColor=none;fillColor=none;align=center;verticalAlign=middle;whiteSpace=wrap;rounded=0;" vertex="1" parent="lrqYtt0-dxsMB4nwOzM2-13">
          <mxGeometry x="17" y="72.60000000000001" width="458" height="34.57142857142857" as="geometry" />
        </mxCell>
        <mxCell id="QfJUEXI76-W85iUlvRfH-2" value="" style="shape=image;verticalLabelPosition=bottom;labelBackgroundColor=default;verticalAlign=top;aspect=fixed;imageAspect=0;image=data:image/png,iVBORw0KGgoAAAANSUhEUgAAAMgAAADICAYAAACtWK6eAAAAAXNSR0IArs4c6QAAB0hJREFUeF7t2W1y03YAhPHI5CBwg0zs74WTFE4CnKT0JOUAdoYbNAcB1HEnnTKdvqC/vbG2+eWztFo962dkOdOVPwQQ+EcCEzYIIPDPBAji04HAvxAgiI8HAgTxGUBgjIAnyBg3Zz0RAgR5IkO7zTECBBnj5qwnQoAgT2RotzlGgCBj3Jz1RAgQ5IkM7TbHCBBkjJuzngiBmCA3NzfPr6+vn19dXb18Iizd5iMT+Pr16/3xkpvN5n6/339MXP7sgux2u3fzPP94dXV1lMMfAo9F4H6app/3+/27c17wbILsdruX8zz/RIxzziNrgMBZRTmLIA9PjbcDN+MUBCIEpml6f46nycmCbLfbX7xnRDYWejqBD4fD4c0pMScJ4slxCnrnPgaBU58kw4I8vHMcnx7+EFg1gWmaXo3+yjUsyHa7/dUL+ao/F8r9SeD+cDi8GAEyJMjt7e3raZqOv1j5Q6CCwDzPb+7u7j4sLTskiKfHUsyOXwGBoafIqCDzCm5YBQQWERh5F1ksiK9XizZx8IoIEGRFY6iyPgIjP/kufoKM/O/jcDgsvs768Gq0NgLb7XbRV32CrG1BfaIECBLFK7ydAEHaF9Q/SoAgUbzC2wkQpH1B/aMECBLFK7ydAEHaF9Q/SoAgUbzC2wkQpH1B/aMECBLFK7ydAEHaF9Q/SoAgUbzC2wkQpH1B/aMECBLFK7ydAEHaF9Q/SoAgUbzC2wkQpH1B/aMECBLFK7ydAEHaF9Q/SoAgUbzC2wkQpH1B/aMECBLFK7ydAEHaF9Q/SoAgUbzC2wkQpH1B/aMECBLFK7ydAEHaF9Q/SoAgUbzC2wkQpH1B/aMECBLFK7ydAEHaF9Q/SoAgUbzC2wkQpH1B/aMECBLFK7ydAEHaF9Q/SoAgUbzC2wkQpH1B/aMECBLFK7ydAEHaF9Q/SoAgUbzC2wkQpH1B/aMECBLFK7ydAEHaF9Q/SoAgUbzC2wkQpH1B/aMECBLFK7ydAEHaF9Q/SoAgUbzC2wkQpH1B/aMECBLFK7ydAEHaF9Q/SoAgUbzC2wkQpH1B/aMECBLFK7ydAEHaF9Q/SoAgUbzC2wkQpH1B/aMECBLFK7ydAEHaF9Q/SoAgUbzC2wkQpH1B/aMECBLFK7ydAEHaF9Q/SoAgUbzC2wkQpH1B/aMECBLFK7ydAEHaF9Q/SoAgUbzC2wkQpH1B/aMECBLFK7ydAEHaF9Q/SoAgUbzC2wkQpH1B/aMECBLFK7ydAEHaF9Q/SoAgUbzC2wkQpH1B/aMECBLFK7ydAEHaF9Q/SoAgUbzC2wkQpH1B/aMECBLFK7ydAEHaF9Q/SoAgUbzC2wkQpH1B/aMECBLFK7ydAEHaF9Q/SoAgUbzC2wkQpH1B/aMECBLFK7ydAEHaF9Q/SoAgUbzC2wkQpH1B/aMECBLFK7ydAEHaF9Q/SoAgUbzC2wkQpH1B/aMECBLFK7ydAEHaF9Q/SoAgUbzC2wkQpH1B/aMECBLFK7ydAEHaF9Q/SoAgUbzC2wkQpH1B/aMECBLFK7ydAEHaF9Q/SoAgUbzC2wkQpH1B/aMECBLFK7ydAEHaF9Q/SoAgUbzC2wkQpH1B/aMECBLFK7ydAEHaF9Q/SoAgUbzC2wkQpH1B/aMECBLFK7ydAEHaF9Q/SoAgUbzC2wkQpH1B/aMECBLFK7ydAEHaF9Q/SoAgUbzC2wkQpH1B/aMECBLFK7ydAEHaF9Q/SoAgUbzC2wkQpH1B/aMECBLFK7ydAEHaF9Q/SoAgUbzC2wkQpH1B/aMECBLFK7ydAEHaF9Q/SoAgUbzC2wkQpH1B/aMECBLFK7ydAEHaF9Q/SoAgUbzC2wkQpH1B/aMECBLFK7ydAEHaF9Q/SoAgUbzC2wkQpH1B/aMECBLFK7ydAEHaF9Q/SoAgUbzC2wkQpH1B/aME/jeCRCkJR+A7Cczz/Obu7u7Ddx7++2HTkoOPx+52u5fzPP+y9DzHI3BpAo8iyM3NzfNnz579eumbdX0ElhL48uXLi0+fPt0vOW/xE+QYvt1uj0+Ql0su5FgELkzg4+FweLW0w5Agt7e3r6dp+mnpxRyPwKUIjHy9GnoHOZ708DXrKIinyKUWd90lBO4Ph8OLJSf8cezQE8TL+ghq51yKwDRNr/b7/ceR6w8L8iDJu3me345c2DkIPAaBaZre7/f7d6PXOkkQkoxid94jERh6Mf+228mCkOSRpnaZRQROfXKc/A7y17YPv2wdv249X3QnDkbgvATup2l6M/rO8dcqZ3mC/BF6/HXr+vr69TzPP/iF67yrS/tPAkcxfj7lfePvrnBWQb69wFGWzWbz+8/Am83GU+U/93XAIIGPnz9/vl/6H/LvvVZMkO8t4DgE1kyAIGteR7eLEyDIxSdQYM0ECLLmdXS7OAGCXHwCBdZMgCBrXke3ixMgyMUnUGDNBAiy5nV0uzgBglx8AgXWTIAga15Ht4sTIMjFJ1BgzQQIsuZ1dLs4gd8AVTnKMgr30rsAAAAASUVORK5CYII=;" vertex="1" parent="lrqYtt0-dxsMB4nwOzM2-13">
          <mxGeometry x="8" y="24.849999999999966" width="16" height="16" as="geometry" />
        </mxCell>
        <mxCell id="c94uidjxYoYFsFCssFPT-5" value="" style="shape=image;verticalLabelPosition=bottom;labelBackgroundColor=default;verticalAlign=top;aspect=fixed;imageAspect=0;image=data:image/png,iVBORw0KGgoAAAANSUhEUgAAAMgAAADICAYAAACtWK6eAAAAAXNSR0IArs4c6QAACGdJREFUeF7t3UtW21gUheErjySdUJ5AUvRCzQRGEhhJmElIjyIT8CKdTCRSLRPIMpQf8m/Zukfnr7Y31t1bX5lXcFP8zwZsYGMDjd3YgA1sbkAg3h02sKUBgXh72IBAvAdsgDXgKwjrzVSSBgSSZGiPyRoQCOvNVJIGBJJkaI/JGhAI681UkgYEkmRoj8kaEAjrzVSSBgSSZGiPyRoQCOvNVJIGBJJkaI/JGhAI681UkgYEkmRoj8kaEAjrzVSSBgSSZGiPyRoQCOvNVJIGBJJkaI/JGhAI681UkgYEkmRoj8kaEAjrzVSSBgSSZGiPyRoQCOvNVJIGBJJkaI/JGhAI681UkgYEkmRoj8kaEAjrzVSSBgSSZGiPyRoQCOvNVJIGBJJkaI/JGhAI681UkgaqATKfn1+Utr1I0rvH3NbAbHa3WNzf1VBSPUDOPl53pXyuoRSvYdwGmlJuFo8P1+Nexe9nF0gNK3gNrxoQyJobYu4riEyeGxCIQMSwpQGBCEQgAtnvHvBTrP36mvKjfQXxFWTK9/fBZxMIANKV5nbWtd8Obt8PMHoDbTP71JTuctOFCAQAabruavHj++3o63oBBzcwf//hsmuaLwLZo8pdX4MIZI8yK3+oQMBAAgGlBY0IBAwnEFBa0IhAwHACAaUFjQgEDCcQUFrQiEDAcAIBpQWNCAQMJxBQWtCIQMBwAgGlBY0IBAwnEFBa0IhAwHACAaUFjQgEDCcQUFrQiEDAcAIBpQWNCAQMJxBQWtCIQMBwAgGlBY0IBAwnEFBa0IhAwHACAaUFjQgEDCcQUFrQiEDAcAIBpQWNCAQMJxBQWtCIQMBwAgGlBY0IBAwnEFBa0IhAwHACAaUFjQgEDCcQUFrQiEDAcAIBpQWNCAQMJxBQWtCIQMBwAgGlBY0IBAwnEFDaCSLz+fm7tu0+Pz7+ezXU0wkENCkQUNqRI8s3Vu3a9uvyaZZ/PHwoJAIBwwkElHbEyCqOl6cZColAwHACAaUdKbIOx5BIBAKGEwgo7QiRbTiGQiIQMJxAQGkDR/rgGAKJQMBwAgGlDRjZB8ehSAQChhMIKG2gCMHx8tTNbPbPYnF/t8+lCGSftp4fKxBQ2gCRg3DAt8UTCBhOIKC0AyNj4FheskDAcAIBpR0QGQuHQOBoAoHFgdiYOAQCBnsq7ezjdVfK501x3+UWFvsmNjYOgcAdBQKL2yNWAw6B7DHY6kMFAovrGasFh0B6Dvb2YQKBxfWI1YRDID0GW/cQgcDidsRqwyEQuLNAYHFbYjXiEAjcWSCwuA2xWnEIBO4sEFjcmljNOAQCdxYILO5NrHYcAoE7CwQWtxKLgEMgcGeBwOKeY1FwCATuXBOQs7O/v8xmzc1icf8THueksUg4BAJvjVqA/PX+w9fSNBellJ/P/xioaiTRcAgkMJAVHC+nqBpJRBwCCQpkDY6qkUTFIZCAQLbgqBJJZBwCCQakB46qkETHIZBAQPbAUQWSKeAQSBAgu/5wwJZjjPKF+0E4wJ/mgTP2iu3qvinlZvH4cN3rgx35Qc2RP37vD3/qb/Mu/6x/advLbf/MtxYkU8LhK0hvEq8feGogT0MFQDI1HAIJBKR2JFPEIZBgQGpFMlUcAgkIpDYkU8YhkKBAakEydRwCCQxkbCQZcAgkOJCxkGTBIZAJADk1kkw4BDIRIKdCkg2HQCYE5NhIdv3KxbYqyTs7wWkGj+06t79qsqbyMX6S3nf5Y/zEfddNMlUcvoL0vevePK5mIEO/kmTGIZCJAhkKSfn166Jrmi+kpsifVq2ed9f/IPwUK9inWK/GPfAXHEsp7zLj8BWErB/sHaYO/Jpk74am8srxcnBfQfa+BeK9BdupkEwNh68gAMdTaQHfo/DYSKaIQyCJgAzwhfvGtqaKQyDJgBwDyZRxCCQhkCGRTB2HQJIC+fMdmh1fS22rJwMOgSQH0ucbDusqyoJDIAJ5amDXd+VWa8qEQyAC+dNAHyTZcAhEIK8a2IYkIw6BCOR/DaxDkhWHQASytoFVJJlxCEQgGxtYIimz2d1icX8Ha5pEzF9WBDPu+oK26bqrxY/vt+BDG6msAYGAQQQCSgsaEQgYTiCgtKARgYDhBAJKCxoRCBhOIKC0oBGBgOEEAkoLGhEIGE4goLSgEYGA4QQCSgsaEQgYTiCgtKARgYDhBAJKCxoRCBhOIKC0oBGBgOEEAkoLGhEIGE4goLSgEYGA4QQCSgsaEQgYTiCgtKARgYDhBAJKCxoRCBhOIKC0oBGBgOEEAkoLGhEIGE4goLSgEYGA4QQCSgsaEQgYTiCgtKARgYDhBAJKCxoRCBhOIKC0oBGBgOEEAkoLGhEIGE4goLSgEYGA4QQCSgsaEQgYTiCgtKARgYDhdgHpSnM769pv4EMbqayBtpl9akp3uemymlJuFo8P1zVcdlPDRSyvYReQWq7T6zh+AwJZ07FAjn/jRXkGgQgkyr06ynUKRCCj3HhRnlQgAolyr45ynQIRyCg3XpQnFYhAotyro1ynQNYBmZ9flLa9GGURn7SuBip6H8dqfg5S10JejQ38bkAg3gk2sKUBgXh72IBAvAdsgDXgKwjrzVSSBgSSZGiPyRoQCOvNVJIGBJJkaI/JGhAI681UkgYEkmRoj8kaEAjrzVSSBgSSZGiPyRoQCOvNVJIGBJJkaI/JGhAI681UkgYEkmRoj8kaEAjrzVSSBgSSZGiPyRoQCOvNVJIGBJJkaI/JGhAI681UkgYEkmRoj8kaEAjrzVSSBgSSZGiPyRoQCOvNVJIGBJJkaI/JGhAI681UkgYEkmRoj8kaEAjrzVSSBgSSZGiPyRoQCOvNVJIGBJJkaI/JGhAI681UkgYEkmRoj8ka+A94Z15Q9DZVigAAAABJRU5ErkJggg==;" vertex="1" parent="lrqYtt0-dxsMB4nwOzM2-13">
          <mxGeometry x="6" y="79.89" width="20" height="20" as="geometry" />
        </mxCell>
        <mxCell id="lrqYtt0-dxsMB4nwOzM2-15" value="" style="group" vertex="1" connectable="0" parent="1">
          <mxGeometry x="369" y="187" width="332" height="108" as="geometry" />
        </mxCell>
        <mxCell id="lrqYtt0-dxsMB4nwOzM2-9" value="" style="rounded=0;whiteSpace=wrap;html=1;fillColor=#eeeeee;strokeColor=#36393d;" vertex="1" parent="lrqYtt0-dxsMB4nwOzM2-15">
          <mxGeometry width="332" height="108" as="geometry" />
        </mxCell>
        <mxCell id="lrqYtt0-dxsMB4nwOzM2-10" value="能够提取该起事件对应的攻击日志" style="text;html=1;strokeColor=none;fillColor=none;align=left;verticalAlign=middle;whiteSpace=wrap;rounded=0;" vertex="1" parent="lrqYtt0-dxsMB4nwOzM2-15">
          <mxGeometry x="25" y="21" width="254" height="30" as="geometry" />
        </mxCell>
        <mxCell id="lrqYtt0-dxsMB4nwOzM2-11" value="能够发现恶意进程、捕获攻击样本、发现复改账号等" style="text;html=1;strokeColor=none;fillColor=none;align=left;verticalAlign=middle;whiteSpace=wrap;rounded=0;" vertex="1" parent="lrqYtt0-dxsMB4nwOzM2-15">
          <mxGeometry x="25" y="69" width="297" height="30" as="geometry" />
        </mxCell>
        <mxCell id="QfJUEXI76-W85iUlvRfH-3" value="" style="shape=image;verticalLabelPosition=bottom;labelBackgroundColor=default;verticalAlign=top;aspect=fixed;imageAspect=0;image=data:image/png,iVBORw0KGgoAAAANSUhEUgAAAMgAAADICAYAAACtWK6eAAAAAXNSR0IArs4c6QAAB0hJREFUeF7t2W1y03YAhPHI5CBwg0zs74WTFE4CnKT0JOUAdoYbNAcB1HEnnTKdvqC/vbG2+eWztFo962dkOdOVPwQQ+EcCEzYIIPDPBAji04HAvxAgiI8HAgTxGUBgjIAnyBg3Zz0RAgR5IkO7zTECBBnj5qwnQoAgT2RotzlGgCBj3Jz1RAgQ5IkM7TbHCBBkjJuzngiBmCA3NzfPr6+vn19dXb18Iizd5iMT+Pr16/3xkpvN5n6/339MXP7sgux2u3fzPP94dXV1lMMfAo9F4H6app/3+/27c17wbILsdruX8zz/RIxzziNrgMBZRTmLIA9PjbcDN+MUBCIEpml6f46nycmCbLfbX7xnRDYWejqBD4fD4c0pMScJ4slxCnrnPgaBU58kw4I8vHMcnx7+EFg1gWmaXo3+yjUsyHa7/dUL+ao/F8r9SeD+cDi8GAEyJMjt7e3raZqOv1j5Q6CCwDzPb+7u7j4sLTskiKfHUsyOXwGBoafIqCDzCm5YBQQWERh5F1ksiK9XizZx8IoIEGRFY6iyPgIjP/kufoKM/O/jcDgsvs768Gq0NgLb7XbRV32CrG1BfaIECBLFK7ydAEHaF9Q/SoAgUbzC2wkQpH1B/aMECBLFK7ydAEHaF9Q/SoAgUbzC2wkQpH1B/aMECBLFK7ydAEHaF9Q/SoAgUbzC2wkQpH1B/aMECBLFK7ydAEHaF9Q/SoAgUbzC2wkQpH1B/aMECBLFK7ydAEHaF9Q/SoAgUbzC2wkQpH1B/aMECBLFK7ydAEHaF9Q/SoAgUbzC2wkQpH1B/aMECBLFK7ydAEHaF9Q/SoAgUbzC2wkQpH1B/aMECBLFK7ydAEHaF9Q/SoAgUbzC2wkQpH1B/aMECBLFK7ydAEHaF9Q/SoAgUbzC2wkQpH1B/aMECBLFK7ydAEHaF9Q/SoAgUbzC2wkQpH1B/aMECBLFK7ydAEHaF9Q/SoAgUbzC2wkQpH1B/aMECBLFK7ydAEHaF9Q/SoAgUbzC2wkQpH1B/aMECBLFK7ydAEHaF9Q/SoAgUbzC2wkQpH1B/aMECBLFK7ydAEHaF9Q/SoAgUbzC2wkQpH1B/aMECBLFK7ydAEHaF9Q/SoAgUbzC2wkQpH1B/aMECBLFK7ydAEHaF9Q/SoAgUbzC2wkQpH1B/aMECBLFK7ydAEHaF9Q/SoAgUbzC2wkQpH1B/aMECBLFK7ydAEHaF9Q/SoAgUbzC2wkQpH1B/aMECBLFK7ydAEHaF9Q/SoAgUbzC2wkQpH1B/aMECBLFK7ydAEHaF9Q/SoAgUbzC2wkQpH1B/aMECBLFK7ydAEHaF9Q/SoAgUbzC2wkQpH1B/aMECBLFK7ydAEHaF9Q/SoAgUbzC2wkQpH1B/aMECBLFK7ydAEHaF9Q/SoAgUbzC2wkQpH1B/aMECBLFK7ydAEHaF9Q/SoAgUbzC2wkQpH1B/aMECBLFK7ydAEHaF9Q/SoAgUbzC2wkQpH1B/aMECBLFK7ydAEHaF9Q/SoAgUbzC2wkQpH1B/aMECBLFK7ydAEHaF9Q/SoAgUbzC2wkQpH1B/aMECBLFK7ydAEHaF9Q/SoAgUbzC2wkQpH1B/aMECBLFK7ydAEHaF9Q/SoAgUbzC2wkQpH1B/aMECBLFK7ydAEHaF9Q/SoAgUbzC2wkQpH1B/aMECBLFK7ydAEHaF9Q/SoAgUbzC2wkQpH1B/aMECBLFK7ydAEHaF9Q/SoAgUbzC2wkQpH1B/aMECBLFK7ydAEHaF9Q/SoAgUbzC2wkQpH1B/aMECBLFK7ydAEHaF9Q/SoAgUbzC2wkQpH1B/aMECBLFK7ydAEHaF9Q/SoAgUbzC2wkQpH1B/aMECBLFK7ydAEHaF9Q/SoAgUbzC2wkQpH1B/aMECBLFK7ydAEHaF9Q/SoAgUbzC2wkQpH1B/aME/jeCRCkJR+A7Cczz/Obu7u7Ddx7++2HTkoOPx+52u5fzPP+y9DzHI3BpAo8iyM3NzfNnz579eumbdX0ElhL48uXLi0+fPt0vOW/xE+QYvt1uj0+Ql0su5FgELkzg4+FweLW0w5Agt7e3r6dp+mnpxRyPwKUIjHy9GnoHOZ708DXrKIinyKUWd90lBO4Ph8OLJSf8cezQE8TL+ghq51yKwDRNr/b7/ceR6w8L8iDJu3me345c2DkIPAaBaZre7/f7d6PXOkkQkoxid94jERh6Mf+228mCkOSRpnaZRQROfXKc/A7y17YPv2wdv249X3QnDkbgvATup2l6M/rO8dcqZ3mC/BF6/HXr+vr69TzPP/iF67yrS/tPAkcxfj7lfePvrnBWQb69wFGWzWbz+8/Am83GU+U/93XAIIGPnz9/vl/6H/LvvVZMkO8t4DgE1kyAIGteR7eLEyDIxSdQYM0ECLLmdXS7OAGCXHwCBdZMgCBrXke3ixMgyMUnUGDNBAiy5nV0uzgBglx8AgXWTIAga15Ht4sTIMjFJ1BgzQQIsuZ1dLs4gd8AVTnKMgr30rsAAAAASUVORK5CYII=;" vertex="1" parent="lrqYtt0-dxsMB4nwOzM2-15">
          <mxGeometry x="9" y="76" width="16" height="16" as="geometry" />
        </mxCell>
        <mxCell id="c94uidjxYoYFsFCssFPT-1" value="" style="shape=image;verticalLabelPosition=bottom;labelBackgroundColor=default;verticalAlign=top;aspect=fixed;imageAspect=0;image=data:image/png,iVBORw0KGgoAAAANSUhEUgAAAMgAAADICAYAAACtWK6eAAAAAXNSR0IArs4c6QAACGdJREFUeF7t3UtW21gUheErjySdUJ5AUvRCzQRGEhhJmElIjyIT8CKdTCRSLRPIMpQf8m/Zukfnr7Y31t1bX5lXcFP8zwZsYGMDjd3YgA1sbkAg3h02sKUBgXh72IBAvAdsgDXgKwjrzVSSBgSSZGiPyRoQCOvNVJIGBJJkaI/JGhAI681UkgYEkmRoj8kaEAjrzVSSBgSSZGiPyRoQCOvNVJIGBJJkaI/JGhAI681UkgYEkmRoj8kaEAjrzVSSBgSSZGiPyRoQCOvNVJIGBJJkaI/JGhAI681UkgYEkmRoj8kaEAjrzVSSBgSSZGiPyRoQCOvNVJIGBJJkaI/JGhAI681UkgYEkmRoj8kaEAjrzVSSBgSSZGiPyRoQCOvNVJIGBJJkaI/JGhAI681UkgaqATKfn1+Utr1I0rvH3NbAbHa3WNzf1VBSPUDOPl53pXyuoRSvYdwGmlJuFo8P1+Nexe9nF0gNK3gNrxoQyJobYu4riEyeGxCIQMSwpQGBCEQgAtnvHvBTrP36mvKjfQXxFWTK9/fBZxMIANKV5nbWtd8Obt8PMHoDbTP71JTuctOFCAQAabruavHj++3o63oBBzcwf//hsmuaLwLZo8pdX4MIZI8yK3+oQMBAAgGlBY0IBAwnEFBa0IhAwHACAaUFjQgEDCcQUFrQiEDAcAIBpQWNCAQMJxBQWtCIQMBwAgGlBY0IBAwnEFBa0IhAwHACAaUFjQgEDCcQUFrQiEDAcAIBpQWNCAQMJxBQWtCIQMBwAgGlBY0IBAwnEFBa0IhAwHACAaUFjQgEDCcQUFrQiEDAcAIBpQWNCAQMJxBQWtCIQMBwAgGlBY0IBAwnEFBa0IhAwHACAaUFjQgEDCcQUFrQiEDAcAIBpQWNCAQMJxBQWtCIQMBwAgGlBY0IBAwnEFDaCSLz+fm7tu0+Pz7+ezXU0wkENCkQUNqRI8s3Vu3a9uvyaZZ/PHwoJAIBwwkElHbEyCqOl6cZColAwHACAaUdKbIOx5BIBAKGEwgo7QiRbTiGQiIQMJxAQGkDR/rgGAKJQMBwAgGlDRjZB8ehSAQChhMIKG2gCMHx8tTNbPbPYnF/t8+lCGSftp4fKxBQ2gCRg3DAt8UTCBhOIKC0AyNj4FheskDAcAIBpR0QGQuHQOBoAoHFgdiYOAQCBnsq7ezjdVfK501x3+UWFvsmNjYOgcAdBQKL2yNWAw6B7DHY6kMFAovrGasFh0B6Dvb2YQKBxfWI1YRDID0GW/cQgcDidsRqwyEQuLNAYHFbYjXiEAjcWSCwuA2xWnEIBO4sEFjcmljNOAQCdxYILO5NrHYcAoE7CwQWtxKLgEMgcGeBwOKeY1FwCATuXBOQs7O/v8xmzc1icf8THueksUg4BAJvjVqA/PX+w9fSNBellJ/P/xioaiTRcAgkMJAVHC+nqBpJRBwCCQpkDY6qkUTFIZCAQLbgqBJJZBwCCQakB46qkETHIZBAQPbAUQWSKeAQSBAgu/5wwJZjjPKF+0E4wJ/mgTP2iu3qvinlZvH4cN3rgx35Qc2RP37vD3/qb/Mu/6x/advLbf/MtxYkU8LhK0hvEq8feGogT0MFQDI1HAIJBKR2JFPEIZBgQGpFMlUcAgkIpDYkU8YhkKBAakEydRwCCQxkbCQZcAgkOJCxkGTBIZAJADk1kkw4BDIRIKdCkg2HQCYE5NhIdv3KxbYqyTs7wWkGj+06t79qsqbyMX6S3nf5Y/zEfddNMlUcvoL0vevePK5mIEO/kmTGIZCJAhkKSfn166Jrmi+kpsifVq2ed9f/IPwUK9inWK/GPfAXHEsp7zLj8BWErB/sHaYO/Jpk74am8srxcnBfQfa+BeK9BdupkEwNh68gAMdTaQHfo/DYSKaIQyCJgAzwhfvGtqaKQyDJgBwDyZRxCCQhkCGRTB2HQJIC+fMdmh1fS22rJwMOgSQH0ucbDusqyoJDIAJ5amDXd+VWa8qEQyAC+dNAHyTZcAhEIK8a2IYkIw6BCOR/DaxDkhWHQASytoFVJJlxCEQgGxtYIimz2d1icX8Ha5pEzF9WBDPu+oK26bqrxY/vt+BDG6msAYGAQQQCSgsaEQgYTiCgtKARgYDhBAJKCxoRCBhOIKC0oBGBgOEEAkoLGhEIGE4goLSgEYGA4QQCSgsaEQgYTiCgtKARgYDhBAJKCxoRCBhOIKC0oBGBgOEEAkoLGhEIGE4goLSgEYGA4QQCSgsaEQgYTiCgtKARgYDhBAJKCxoRCBhOIKC0oBGBgOEEAkoLGhEIGE4goLSgEYGA4QQCSgsaEQgYTiCgtKARgYDhBAJKCxoRCBhOIKC0oBGBgOEEAkoLGhEIGE4goLSgEYGA4QQCSgsaEQgYTiCgtKARgYDhdgHpSnM769pv4EMbqayBtpl9akp3uemymlJuFo8P1zVcdlPDRSyvYReQWq7T6zh+AwJZ07FAjn/jRXkGgQgkyr06ynUKRCCj3HhRnlQgAolyr45ynQIRyCg3XpQnFYhAotyro1ynQNYBmZ9flLa9GGURn7SuBip6H8dqfg5S10JejQ38bkAg3gk2sKUBgXh72IBAvAdsgDXgKwjrzVSSBgSSZGiPyRoQCOvNVJIGBJJkaI/JGhAI681UkgYEkmRoj8kaEAjrzVSSBgSSZGiPyRoQCOvNVJIGBJJkaI/JGhAI681UkgYEkmRoj8kaEAjrzVSSBgSSZGiPyRoQCOvNVJIGBJJkaI/JGhAI681UkgYEkmRoj8kaEAjrzVSSBgSSZGiPyRoQCOvNVJIGBJJkaI/JGhAI681UkgYEkmRoj8kaEAjrzVSSBgSSZGiPyRoQCOvNVJIGBJJkaI/JGhAI681UkgYEkmRoj8ka+A94Z15Q9DZVigAAAABJRU5ErkJggg==;" vertex="1" parent="lrqYtt0-dxsMB4nwOzM2-15">
          <mxGeometry x="7" y="26" width="20" height="20" as="geometry" />
        </mxCell>
        <mxCell id="iaoxiX3m0feoWWZWAeur-1" value="" style="shape=image;verticalLabelPosition=bottom;labelBackgroundColor=default;verticalAlign=top;aspect=fixed;imageAspect=0;image=data:image/png,iVBORw0KGgoAAAANSUhEUgAAAMgAAADICAYAAACtWK6eAAAAAXNSR0IArs4c6QAACGdJREFUeF7t3UtW21gUheErjySdUJ5AUvRCzQRGEhhJmElIjyIT8CKdTCRSLRPIMpQf8m/Zukfnr7Y31t1bX5lXcFP8zwZsYGMDjd3YgA1sbkAg3h02sKUBgXh72IBAvAdsgDXgKwjrzVSSBgSSZGiPyRoQCOvNVJIGBJJkaI/JGhAI681UkgYEkmRoj8kaEAjrzVSSBgSSZGiPyRoQCOvNVJIGBJJkaI/JGhAI681UkgYEkmRoj8kaEAjrzVSSBgSSZGiPyRoQCOvNVJIGBJJkaI/JGhAI681UkgYEkmRoj8kaEAjrzVSSBgSSZGiPyRoQCOvNVJIGBJJkaI/JGhAI681UkgYEkmRoj8kaEAjrzVSSBgSSZGiPyRoQCOvNVJIGBJJkaI/JGhAI681UkgaqATKfn1+Utr1I0rvH3NbAbHa3WNzf1VBSPUDOPl53pXyuoRSvYdwGmlJuFo8P1+Nexe9nF0gNK3gNrxoQyJobYu4riEyeGxCIQMSwpQGBCEQgAtnvHvBTrP36mvKjfQXxFWTK9/fBZxMIANKV5nbWtd8Obt8PMHoDbTP71JTuctOFCAQAabruavHj++3o63oBBzcwf//hsmuaLwLZo8pdX4MIZI8yK3+oQMBAAgGlBY0IBAwnEFBa0IhAwHACAaUFjQgEDCcQUFrQiEDAcAIBpQWNCAQMJxBQWtCIQMBwAgGlBY0IBAwnEFBa0IhAwHACAaUFjQgEDCcQUFrQiEDAcAIBpQWNCAQMJxBQWtCIQMBwAgGlBY0IBAwnEFBa0IhAwHACAaUFjQgEDCcQUFrQiEDAcAIBpQWNCAQMJxBQWtCIQMBwAgGlBY0IBAwnEFBa0IhAwHACAaUFjQgEDCcQUFrQiEDAcAIBpQWNCAQMJxBQWtCIQMBwAgGlBY0IBAwnEFDaCSLz+fm7tu0+Pz7+ezXU0wkENCkQUNqRI8s3Vu3a9uvyaZZ/PHwoJAIBwwkElHbEyCqOl6cZColAwHACAaUdKbIOx5BIBAKGEwgo7QiRbTiGQiIQMJxAQGkDR/rgGAKJQMBwAgGlDRjZB8ehSAQChhMIKG2gCMHx8tTNbPbPYnF/t8+lCGSftp4fKxBQ2gCRg3DAt8UTCBhOIKC0AyNj4FheskDAcAIBpR0QGQuHQOBoAoHFgdiYOAQCBnsq7ezjdVfK501x3+UWFvsmNjYOgcAdBQKL2yNWAw6B7DHY6kMFAovrGasFh0B6Dvb2YQKBxfWI1YRDID0GW/cQgcDidsRqwyEQuLNAYHFbYjXiEAjcWSCwuA2xWnEIBO4sEFjcmljNOAQCdxYILO5NrHYcAoE7CwQWtxKLgEMgcGeBwOKeY1FwCATuXBOQs7O/v8xmzc1icf8THueksUg4BAJvjVqA/PX+w9fSNBellJ/P/xioaiTRcAgkMJAVHC+nqBpJRBwCCQpkDY6qkUTFIZCAQLbgqBJJZBwCCQakB46qkETHIZBAQPbAUQWSKeAQSBAgu/5wwJZjjPKF+0E4wJ/mgTP2iu3qvinlZvH4cN3rgx35Qc2RP37vD3/qb/Mu/6x/advLbf/MtxYkU8LhK0hvEq8feGogT0MFQDI1HAIJBKR2JFPEIZBgQGpFMlUcAgkIpDYkU8YhkKBAakEydRwCCQxkbCQZcAgkOJCxkGTBIZAJADk1kkw4BDIRIKdCkg2HQCYE5NhIdv3KxbYqyTs7wWkGj+06t79qsqbyMX6S3nf5Y/zEfddNMlUcvoL0vevePK5mIEO/kmTGIZCJAhkKSfn166Jrmi+kpsifVq2ed9f/IPwUK9inWK/GPfAXHEsp7zLj8BWErB/sHaYO/Jpk74am8srxcnBfQfa+BeK9BdupkEwNh68gAMdTaQHfo/DYSKaIQyCJgAzwhfvGtqaKQyDJgBwDyZRxCCQhkCGRTB2HQJIC+fMdmh1fS22rJwMOgSQH0ucbDusqyoJDIAJ5amDXd+VWa8qEQyAC+dNAHyTZcAhEIK8a2IYkIw6BCOR/DaxDkhWHQASytoFVJJlxCEQgGxtYIimz2d1icX8Ha5pEzF9WBDPu+oK26bqrxY/vt+BDG6msAYGAQQQCSgsaEQgYTiCgtKARgYDhBAJKCxoRCBhOIKC0oBGBgOEEAkoLGhEIGE4goLSgEYGA4QQCSgsaEQgYTiCgtKARgYDhBAJKCxoRCBhOIKC0oBGBgOEEAkoLGhEIGE4goLSgEYGA4QQCSgsaEQgYTiCgtKARgYDhBAJKCxoRCBhOIKC0oBGBgOEEAkoLGhEIGE4goLSgEYGA4QQCSgsaEQgYTiCgtKARgYDhBAJKCxoRCBhOIKC0oBGBgOEEAkoLGhEIGE4goLSgEYGA4QQCSgsaEQgYTiCgtKARgYDhdgHpSnM769pv4EMbqayBtpl9akp3uemymlJuFo8P1zVcdlPDRSyvYReQWq7T6zh+AwJZ07FAjn/jRXkGgQgkyr06ynUKRCCj3HhRnlQgAolyr45ynQIRyCg3XpQnFYhAotyro1ynQNYBmZ9flLa9GGURn7SuBip6H8dqfg5S10JejQ38bkAg3gk2sKUBgXh72IBAvAdsgDXgKwjrzVSSBgSSZGiPyRoQCOvNVJIGBJJkaI/JGhAI681UkgYEkmRoj8kaEAjrzVSSBgSSZGiPyRoQCOvNVJIGBJJkaI/JGhAI681UkgYEkmRoj8kaEAjrzVSSBgSSZGiPyRoQCOvNVJIGBJJkaI/JGhAI681UkgYEkmRoj8kaEAjrzVSSBgSSZGiPyRoQCOvNVJIGBJJkaI/JGhAI681UkgYEkmRoj8kaEAjrzVSSBgSSZGiPyRoQCOvNVJIGBJJkaI/JGhAI681UkgYEkmRoj8ka+A94Z15Q9DZVigAAAABJRU5ErkJggg==;" vertex="1" parent="1">
          <mxGeometry x="236" y="246" width="20" height="20" as="geometry" />
        </mxCell>
        <mxCell id="iaoxiX3m0feoWWZWAeur-2" value="" style="shape=image;verticalLabelPosition=bottom;labelBackgroundColor=default;verticalAlign=top;aspect=fixed;imageAspect=0;image=data:image/png,iVBORw0KGgoAAAANSUhEUgAAAMgAAADICAYAAACtWK6eAAAAAXNSR0IArs4c6QAACGdJREFUeF7t3UtW21gUheErjySdUJ5AUvRCzQRGEhhJmElIjyIT8CKdTCRSLRPIMpQf8m/Zukfnr7Y31t1bX5lXcFP8zwZsYGMDjd3YgA1sbkAg3h02sKUBgXh72IBAvAdsgDXgKwjrzVSSBgSSZGiPyRoQCOvNVJIGBJJkaI/JGhAI681UkgYEkmRoj8kaEAjrzVSSBgSSZGiPyRoQCOvNVJIGBJJkaI/JGhAI681UkgYEkmRoj8kaEAjrzVSSBgSSZGiPyRoQCOvNVJIGBJJkaI/JGhAI681UkgYEkmRoj8kaEAjrzVSSBgSSZGiPyRoQCOvNVJIGBJJkaI/JGhAI681UkgYEkmRoj8kaEAjrzVSSBgSSZGiPyRoQCOvNVJIGBJJkaI/JGhAI681UkgaqATKfn1+Utr1I0rvH3NbAbHa3WNzf1VBSPUDOPl53pXyuoRSvYdwGmlJuFo8P1+Nexe9nF0gNK3gNrxoQyJobYu4riEyeGxCIQMSwpQGBCEQgAtnvHvBTrP36mvKjfQXxFWTK9/fBZxMIANKV5nbWtd8Obt8PMHoDbTP71JTuctOFCAQAabruavHj++3o63oBBzcwf//hsmuaLwLZo8pdX4MIZI8yK3+oQMBAAgGlBY0IBAwnEFBa0IhAwHACAaUFjQgEDCcQUFrQiEDAcAIBpQWNCAQMJxBQWtCIQMBwAgGlBY0IBAwnEFBa0IhAwHACAaUFjQgEDCcQUFrQiEDAcAIBpQWNCAQMJxBQWtCIQMBwAgGlBY0IBAwnEFBa0IhAwHACAaUFjQgEDCcQUFrQiEDAcAIBpQWNCAQMJxBQWtCIQMBwAgGlBY0IBAwnEFBa0IhAwHACAaUFjQgEDCcQUFrQiEDAcAIBpQWNCAQMJxBQWtCIQMBwAgGlBY0IBAwnEFDaCSLz+fm7tu0+Pz7+ezXU0wkENCkQUNqRI8s3Vu3a9uvyaZZ/PHwoJAIBwwkElHbEyCqOl6cZColAwHACAaUdKbIOx5BIBAKGEwgo7QiRbTiGQiIQMJxAQGkDR/rgGAKJQMBwAgGlDRjZB8ehSAQChhMIKG2gCMHx8tTNbPbPYnF/t8+lCGSftp4fKxBQ2gCRg3DAt8UTCBhOIKC0AyNj4FheskDAcAIBpR0QGQuHQOBoAoHFgdiYOAQCBnsq7ezjdVfK501x3+UWFvsmNjYOgcAdBQKL2yNWAw6B7DHY6kMFAovrGasFh0B6Dvb2YQKBxfWI1YRDID0GW/cQgcDidsRqwyEQuLNAYHFbYjXiEAjcWSCwuA2xWnEIBO4sEFjcmljNOAQCdxYILO5NrHYcAoE7CwQWtxKLgEMgcGeBwOKeY1FwCATuXBOQs7O/v8xmzc1icf8THueksUg4BAJvjVqA/PX+w9fSNBellJ/P/xioaiTRcAgkMJAVHC+nqBpJRBwCCQpkDY6qkUTFIZCAQLbgqBJJZBwCCQakB46qkETHIZBAQPbAUQWSKeAQSBAgu/5wwJZjjPKF+0E4wJ/mgTP2iu3qvinlZvH4cN3rgx35Qc2RP37vD3/qb/Mu/6x/advLbf/MtxYkU8LhK0hvEq8feGogT0MFQDI1HAIJBKR2JFPEIZBgQGpFMlUcAgkIpDYkU8YhkKBAakEydRwCCQxkbCQZcAgkOJCxkGTBIZAJADk1kkw4BDIRIKdCkg2HQCYE5NhIdv3KxbYqyTs7wWkGj+06t79qsqbyMX6S3nf5Y/zEfddNMlUcvoL0vevePK5mIEO/kmTGIZCJAhkKSfn166Jrmi+kpsifVq2ed9f/IPwUK9inWK/GPfAXHEsp7zLj8BWErB/sHaYO/Jpk74am8srxcnBfQfa+BeK9BdupkEwNh68gAMdTaQHfo/DYSKaIQyCJgAzwhfvGtqaKQyDJgBwDyZRxCCQhkCGRTB2HQJIC+fMdmh1fS22rJwMOgSQH0ucbDusqyoJDIAJ5amDXd+VWa8qEQyAC+dNAHyTZcAhEIK8a2IYkIw6BCOR/DaxDkhWHQASytoFVJJlxCEQgGxtYIimz2d1icX8Ha5pEzF9WBDPu+oK26bqrxY/vt+BDG6msAYGAQQQCSgsaEQgYTiCgtKARgYDhBAJKCxoRCBhOIKC0oBGBgOEEAkoLGhEIGE4goLSgEYGA4QQCSgsaEQgYTiCgtKARgYDhBAJKCxoRCBhOIKC0oBGBgOEEAkoLGhEIGE4goLSgEYGA4QQCSgsaEQgYTiCgtKARgYDhBAJKCxoRCBhOIKC0oBGBgOEEAkoLGhEIGE4goLSgEYGA4QQCSgsaEQgYTiCgtKARgYDhBAJKCxoRCBhOIKC0oBGBgOEEAkoLGhEIGE4goLSgEYGA4QQCSgsaEQgYTiCgtKARgYDhdgHpSnM769pv4EMbqayBtpl9akp3uemymlJuFo8P1zVcdlPDRSyvYReQWq7T6zh+AwJZ07FAjn/jRXkGgQgkyr06ynUKRCCj3HhRnlQgAolyr45ynQIRyCg3XpQnFYhAotyro1ynQNYBmZ9flLa9GGURn7SuBip6H8dqfg5S10JejQ38bkAg3gk2sKUBgXh72IBAvAdsgDXgKwjrzVSSBgSSZGiPyRoQCOvNVJIGBJJkaI/JGhAI681UkgYEkmRoj8kaEAjrzVSSBgSSZGiPyRoQCOvNVJIGBJJkaI/JGhAI681UkgYEkmRoj8kaEAjrzVSSBgSSZGiPyRoQCOvNVJIGBJJkaI/JGhAI681UkgYEkmRoj8kaEAjrzVSSBgSSZGiPyRoQCOvNVJIGBJJkaI/JGhAI681UkgYEkmRoj8kaEAjrzVSSBgSSZGiPyRoQCOvNVJIGBJJkaI/JGhAI681UkgYEkmRoj8ka+A94Z15Q9DZVigAAAABJRU5ErkJggg==;" vertex="1" parent="1">
          <mxGeometry x="236" y="412" width="20" height="20" as="geometry" />
        </mxCell>
      </root>
    </mxGraphModel>
  </diagram>
  <diagram id="-f3bvK2FAPAgoRqjRuOI" name="第 3 页">
    <mxGraphModel dx="1020" dy="496" grid="0" gridSize="10" guides="1" tooltips="1" connect="1" arrows="1" fold="1" page="1" pageScale="1" pageWidth="1200" pageHeight="1920" math="0" shadow="0">
      <root>
        <mxCell id="0" />
        <mxCell id="1" parent="0" />
        <mxCell id="UHfykyBwoHdar6ruTP-_-1" style="edgeStyle=orthogonalEdgeStyle;rounded=0;orthogonalLoop=1;jettySize=auto;html=1;exitX=1;exitY=0.5;exitDx=0;exitDy=0;entryX=0;entryY=0.5;entryDx=0;entryDy=0;strokeColor=#00AB7A;strokeWidth=2;" edge="1" parent="1" source="UHfykyBwoHdar6ruTP-_-3" target="UHfykyBwoHdar6ruTP-_-4">
          <mxGeometry relative="1" as="geometry" />
        </mxCell>
        <mxCell id="UHfykyBwoHdar6ruTP-_-2" style="edgeStyle=orthogonalEdgeStyle;rounded=0;orthogonalLoop=1;jettySize=auto;html=1;exitX=1;exitY=0.5;exitDx=0;exitDy=0;entryX=0;entryY=0.5;entryDx=0;entryDy=0;strokeColor=#00AB7A;strokeWidth=2;" edge="1" parent="1" source="UHfykyBwoHdar6ruTP-_-3" target="UHfykyBwoHdar6ruTP-_-5">
          <mxGeometry relative="1" as="geometry" />
        </mxCell>
        <mxCell id="UHfykyBwoHdar6ruTP-_-3" value="应急处置" style="rounded=0;whiteSpace=wrap;html=1;fillColor=#00ab7a;fontColor=#ffffff;strokeColor=#2D7600;" vertex="1" parent="1">
          <mxGeometry x="99" y="318" width="120" height="60" as="geometry" />
        </mxCell>
        <mxCell id="UHfykyBwoHdar6ruTP-_-4" value="事件分类分级和响应预案" style="rounded=0;whiteSpace=wrap;html=1;fillColor=#647687;fontColor=#ffffff;strokeColor=#314354;" vertex="1" parent="1">
          <mxGeometry x="269" y="122" width="182" height="40" as="geometry" />
        </mxCell>
        <mxCell id="UHfykyBwoHdar6ruTP-_-5" value="攻击阻断" style="rounded=0;whiteSpace=wrap;html=1;fillColor=#647687;fontColor=#ffffff;strokeColor=#314354;" vertex="1" parent="1">
          <mxGeometry x="269" y="654" width="120" height="40" as="geometry" />
        </mxCell>
        <mxCell id="UHfykyBwoHdar6ruTP-_-10" value="" style="group;fillColor=#f9f7ed;strokeColor=#36393d;" vertex="1" connectable="0" parent="1">
          <mxGeometry x="476" y="92" width="332" height="249" as="geometry" />
        </mxCell>
        <mxCell id="UHfykyBwoHdar6ruTP-_-11" value="" style="rounded=0;whiteSpace=wrap;html=1;fillColor=#eeeeee;strokeColor=#36393d;" vertex="1" parent="UHfykyBwoHdar6ruTP-_-10">
          <mxGeometry width="332" height="249.00000000000003" as="geometry" />
        </mxCell>
        <mxCell id="UHfykyBwoHdar6ruTP-_-12" value="分类等级：" style="text;html=1;strokeColor=none;fillColor=none;align=left;verticalAlign=middle;whiteSpace=wrap;rounded=0;" vertex="1" parent="UHfykyBwoHdar6ruTP-_-10">
          <mxGeometry x="10" y="2" width="68" height="35.17" as="geometry" />
        </mxCell>
        <mxCell id="UHfykyBwoHdar6ruTP-_-13" value="上传附件：" style="text;html=1;strokeColor=none;fillColor=none;align=left;verticalAlign=middle;whiteSpace=wrap;rounded=0;" vertex="1" parent="UHfykyBwoHdar6ruTP-_-10">
          <mxGeometry x="10" y="124" width="73" height="30.43" as="geometry" />
        </mxCell>
        <mxCell id="UHfykyBwoHdar6ruTP-_-14" value="" style="rounded=0;whiteSpace=wrap;html=1;" vertex="1" parent="UHfykyBwoHdar6ruTP-_-10">
          <mxGeometry x="10" y="37.17" width="314" height="75.16981132075472" as="geometry" />
        </mxCell>
        <mxCell id="UHfykyBwoHdar6ruTP-_-16" value="" style="rounded=0;whiteSpace=wrap;html=1;fillColor=#eeeeee;strokeColor=#36393d;" vertex="1" parent="1">
          <mxGeometry x="409" y="378" width="485" height="518" as="geometry" />
        </mxCell>
        <mxCell id="UHfykyBwoHdar6ruTP-_-17" value="阻断有效攻击源" style="text;html=1;strokeColor=none;fillColor=none;align=center;verticalAlign=middle;whiteSpace=wrap;rounded=0;" vertex="1" parent="1">
          <mxGeometry x="421" y="387" width="98" height="30" as="geometry" />
        </mxCell>
        <mxCell id="UHfykyBwoHdar6ruTP-_-18" value="时间" style="text;html=1;strokeColor=none;fillColor=none;align=center;verticalAlign=middle;whiteSpace=wrap;rounded=0;fontStyle=1" vertex="1" parent="1">
          <mxGeometry x="424" y="411" width="60" height="30" as="geometry" />
        </mxCell>
        <mxCell id="UHfykyBwoHdar6ruTP-_-19" value="攻击时间：" style="text;html=1;strokeColor=none;fillColor=none;align=center;verticalAlign=middle;whiteSpace=wrap;rounded=0;" vertex="1" parent="1">
          <mxGeometry x="427" y="445" width="83" height="30" as="geometry" />
        </mxCell>
        <mxCell id="UHfykyBwoHdar6ruTP-_-20" value="发现时间：" style="text;html=1;strokeColor=none;fillColor=none;align=center;verticalAlign=middle;whiteSpace=wrap;rounded=0;" vertex="1" parent="1">
          <mxGeometry x="427" y="475" width="83" height="30" as="geometry" />
        </mxCell>
        <mxCell id="UHfykyBwoHdar6ruTP-_-21" value="阻断时间：" style="text;html=1;strokeColor=none;fillColor=none;align=center;verticalAlign=middle;whiteSpace=wrap;rounded=0;" vertex="1" parent="1">
          <mxGeometry x="428.5" y="505" width="83" height="30" as="geometry" />
        </mxCell>
        <mxCell id="UHfykyBwoHdar6ruTP-_-22" value="阻断方式" style="text;html=1;strokeColor=none;fillColor=none;align=center;verticalAlign=middle;whiteSpace=wrap;rounded=0;fontStyle=1" vertex="1" parent="1">
          <mxGeometry x="421" y="530" width="60" height="30" as="geometry" />
        </mxCell>
        <mxCell id="UHfykyBwoHdar6ruTP-_-23" value="2023-08-23 10:05:03" style="rounded=0;whiteSpace=wrap;html=1;" vertex="1" parent="1">
          <mxGeometry x="510" y="449" width="323" height="22" as="geometry" />
        </mxCell>
        <mxCell id="UHfykyBwoHdar6ruTP-_-24" value="2023-08-23 10:06" style="rounded=0;whiteSpace=wrap;html=1;" vertex="1" parent="1">
          <mxGeometry x="510" y="483" width="323" height="22" as="geometry" />
        </mxCell>
        <mxCell id="UHfykyBwoHdar6ruTP-_-25" value="" style="rounded=0;whiteSpace=wrap;html=1;" vertex="1" parent="1">
          <mxGeometry x="510" y="513" width="323" height="22" as="geometry" />
        </mxCell>
        <mxCell id="UHfykyBwoHdar6ruTP-_-26" value="阻断IP：" style="text;html=1;strokeColor=none;fillColor=none;align=center;verticalAlign=middle;whiteSpace=wrap;rounded=0;" vertex="1" parent="1">
          <mxGeometry x="421" y="570" width="75" height="30" as="geometry" />
        </mxCell>
        <mxCell id="L4o-PnB18kgYqavaukP2-1" value="阻断物理接口：" style="text;html=1;strokeColor=none;fillColor=none;align=center;verticalAlign=middle;whiteSpace=wrap;rounded=0;" vertex="1" parent="1">
          <mxGeometry x="421.5" y="611" width="109" height="30" as="geometry" />
        </mxCell>
        <mxCell id="L4o-PnB18kgYqavaukP2-2" value="阻断服务：" style="text;html=1;strokeColor=none;fillColor=none;align=center;verticalAlign=middle;whiteSpace=wrap;rounded=0;" vertex="1" parent="1">
          <mxGeometry x="424.5" y="649" width="83" height="30" as="geometry" />
        </mxCell>
        <mxCell id="L4o-PnB18kgYqavaukP2-3" value="处置社会工程学攻击：" style="text;html=1;strokeColor=none;fillColor=none;align=center;verticalAlign=middle;whiteSpace=wrap;rounded=0;" vertex="1" parent="1">
          <mxGeometry x="424.5" y="702" width="139" height="30" as="geometry" />
        </mxCell>
        <mxCell id="L4o-PnB18kgYqavaukP2-4" value="阻断内网攻击入口或攻击板：" style="text;html=1;strokeColor=none;fillColor=none;align=center;verticalAlign=middle;whiteSpace=wrap;rounded=0;" vertex="1" parent="1">
          <mxGeometry x="431" y="770" width="108" height="30" as="geometry" />
        </mxCell>
        <mxCell id="L4o-PnB18kgYqavaukP2-5" value="其他：" style="text;html=1;strokeColor=none;fillColor=none;align=center;verticalAlign=middle;whiteSpace=wrap;rounded=0;" vertex="1" parent="1">
          <mxGeometry x="427" y="833" width="60" height="30" as="geometry" />
        </mxCell>
        <mxCell id="L4o-PnB18kgYqavaukP2-6" value="" style="rounded=0;whiteSpace=wrap;html=1;" vertex="1" parent="1">
          <mxGeometry x="556" y="615" width="326" height="22" as="geometry" />
        </mxCell>
        <mxCell id="L4o-PnB18kgYqavaukP2-7" value="36.110.82.56、42.81.132.188" style="rounded=0;whiteSpace=wrap;html=1;" vertex="1" parent="1">
          <mxGeometry x="556" y="576" width="323" height="22" as="geometry" />
        </mxCell>
        <mxCell id="L4o-PnB18kgYqavaukP2-8" value="" style="rounded=0;whiteSpace=wrap;html=1;" vertex="1" parent="1">
          <mxGeometry x="556" y="653" width="326" height="41" as="geometry" />
        </mxCell>
        <mxCell id="L4o-PnB18kgYqavaukP2-9" value="" style="rounded=0;whiteSpace=wrap;html=1;" vertex="1" parent="1">
          <mxGeometry x="556" y="707" width="323" height="43" as="geometry" />
        </mxCell>
        <mxCell id="L4o-PnB18kgYqavaukP2-10" value="10.10.28.176、10.10.28.250" style="rounded=0;whiteSpace=wrap;html=1;" vertex="1" parent="1">
          <mxGeometry x="556" y="763.5" width="323" height="43" as="geometry" />
        </mxCell>
        <mxCell id="L4o-PnB18kgYqavaukP2-11" value="" style="rounded=0;whiteSpace=wrap;html=1;" vertex="1" parent="1">
          <mxGeometry x="556" y="830" width="323" height="43" as="geometry" />
        </mxCell>
        <mxCell id="nuh91Gn9ch_38w9lImbc-1" value="" style="shape=image;verticalLabelPosition=bottom;labelBackgroundColor=default;verticalAlign=top;aspect=fixed;imageAspect=0;image=data:image/png,iVBORw0KGgoAAAANSUhEUgAAAMgAAADICAYAAACtWK6eAAAAAXNSR0IArs4c6QAAB0hJREFUeF7t2W1y03YAhPHI5CBwg0zs74WTFE4CnKT0JOUAdoYbNAcB1HEnnTKdvqC/vbG2+eWztFo962dkOdOVPwQQ+EcCEzYIIPDPBAji04HAvxAgiI8HAgTxGUBgjIAnyBg3Zz0RAgR5IkO7zTECBBnj5qwnQoAgT2RotzlGgCBj3Jz1RAgQ5IkM7TbHCBBkjJuzngiBmCA3NzfPr6+vn19dXb18Iizd5iMT+Pr16/3xkpvN5n6/339MXP7sgux2u3fzPP94dXV1lMMfAo9F4H6app/3+/27c17wbILsdruX8zz/RIxzziNrgMBZRTmLIA9PjbcDN+MUBCIEpml6f46nycmCbLfbX7xnRDYWejqBD4fD4c0pMScJ4slxCnrnPgaBU58kw4I8vHMcnx7+EFg1gWmaXo3+yjUsyHa7/dUL+ao/F8r9SeD+cDi8GAEyJMjt7e3raZqOv1j5Q6CCwDzPb+7u7j4sLTskiKfHUsyOXwGBoafIqCDzCm5YBQQWERh5F1ksiK9XizZx8IoIEGRFY6iyPgIjP/kufoKM/O/jcDgsvs768Gq0NgLb7XbRV32CrG1BfaIECBLFK7ydAEHaF9Q/SoAgUbzC2wkQpH1B/aMECBLFK7ydAEHaF9Q/SoAgUbzC2wkQpH1B/aMECBLFK7ydAEHaF9Q/SoAgUbzC2wkQpH1B/aMECBLFK7ydAEHaF9Q/SoAgUbzC2wkQpH1B/aMECBLFK7ydAEHaF9Q/SoAgUbzC2wkQpH1B/aMECBLFK7ydAEHaF9Q/SoAgUbzC2wkQpH1B/aMECBLFK7ydAEHaF9Q/SoAgUbzC2wkQpH1B/aMECBLFK7ydAEHaF9Q/SoAgUbzC2wkQpH1B/aMECBLFK7ydAEHaF9Q/SoAgUbzC2wkQpH1B/aMECBLFK7ydAEHaF9Q/SoAgUbzC2wkQpH1B/aMECBLFK7ydAEHaF9Q/SoAgUbzC2wkQpH1B/aMECBLFK7ydAEHaF9Q/SoAgUbzC2wkQpH1B/aMECBLFK7ydAEHaF9Q/SoAgUbzC2wkQpH1B/aMECBLFK7ydAEHaF9Q/SoAgUbzC2wkQpH1B/aMECBLFK7ydAEHaF9Q/SoAgUbzC2wkQpH1B/aMECBLFK7ydAEHaF9Q/SoAgUbzC2wkQpH1B/aMECBLFK7ydAEHaF9Q/SoAgUbzC2wkQpH1B/aMECBLFK7ydAEHaF9Q/SoAgUbzC2wkQpH1B/aMECBLFK7ydAEHaF9Q/SoAgUbzC2wkQpH1B/aMECBLFK7ydAEHaF9Q/SoAgUbzC2wkQpH1B/aMECBLFK7ydAEHaF9Q/SoAgUbzC2wkQpH1B/aMECBLFK7ydAEHaF9Q/SoAgUbzC2wkQpH1B/aMECBLFK7ydAEHaF9Q/SoAgUbzC2wkQpH1B/aMECBLFK7ydAEHaF9Q/SoAgUbzC2wkQpH1B/aMECBLFK7ydAEHaF9Q/SoAgUbzC2wkQpH1B/aMECBLFK7ydAEHaF9Q/SoAgUbzC2wkQpH1B/aMECBLFK7ydAEHaF9Q/SoAgUbzC2wkQpH1B/aMECBLFK7ydAEHaF9Q/SoAgUbzC2wkQpH1B/aMECBLFK7ydAEHaF9Q/SoAgUbzC2wkQpH1B/aMECBLFK7ydAEHaF9Q/SoAgUbzC2wkQpH1B/aMECBLFK7ydAEHaF9Q/SoAgUbzC2wkQpH1B/aMECBLFK7ydAEHaF9Q/SoAgUbzC2wkQpH1B/aMECBLFK7ydAEHaF9Q/SoAgUbzC2wkQpH1B/aMECBLFK7ydAEHaF9Q/SoAgUbzC2wkQpH1B/aMECBLFK7ydAEHaF9Q/SoAgUbzC2wkQpH1B/aMECBLFK7ydAEHaF9Q/SoAgUbzC2wkQpH1B/aMECBLFK7ydAEHaF9Q/SoAgUbzC2wkQpH1B/aME/jeCRCkJR+A7Cczz/Obu7u7Ddx7++2HTkoOPx+52u5fzPP+y9DzHI3BpAo8iyM3NzfNnz579eumbdX0ElhL48uXLi0+fPt0vOW/xE+QYvt1uj0+Ql0su5FgELkzg4+FweLW0w5Agt7e3r6dp+mnpxRyPwKUIjHy9GnoHOZ708DXrKIinyKUWd90lBO4Ph8OLJSf8cezQE8TL+ghq51yKwDRNr/b7/ceR6w8L8iDJu3me345c2DkIPAaBaZre7/f7d6PXOkkQkoxid94jERh6Mf+228mCkOSRpnaZRQROfXKc/A7y17YPv2wdv249X3QnDkbgvATup2l6M/rO8dcqZ3mC/BF6/HXr+vr69TzPP/iF67yrS/tPAkcxfj7lfePvrnBWQb69wFGWzWbz+8/Am83GU+U/93XAIIGPnz9/vl/6H/LvvVZMkO8t4DgE1kyAIGteR7eLEyDIxSdQYM0ECLLmdXS7OAGCXHwCBdZMgCBrXke3ixMgyMUnUGDNBAiy5nV0uzgBglx8AgXWTIAga15Ht4sTIMjFJ1BgzQQIsuZ1dLs4gd8AVTnKMgr30rsAAAAASUVORK5CYII=;" vertex="1" parent="1">
          <mxGeometry x="421" y="840" width="16" height="16" as="geometry" />
        </mxCell>
        <mxCell id="nuh91Gn9ch_38w9lImbc-3" value="" style="shape=image;verticalLabelPosition=bottom;labelBackgroundColor=default;verticalAlign=top;aspect=fixed;imageAspect=0;image=data:image/png,iVBORw0KGgoAAAANSUhEUgAAAMgAAADICAYAAACtWK6eAAAAAXNSR0IArs4c6QAAB0hJREFUeF7t2W1y03YAhPHI5CBwg0zs74WTFE4CnKT0JOUAdoYbNAcB1HEnnTKdvqC/vbG2+eWztFo962dkOdOVPwQQ+EcCEzYIIPDPBAji04HAvxAgiI8HAgTxGUBgjIAnyBg3Zz0RAgR5IkO7zTECBBnj5qwnQoAgT2RotzlGgCBj3Jz1RAgQ5IkM7TbHCBBkjJuzngiBmCA3NzfPr6+vn19dXb18Iizd5iMT+Pr16/3xkpvN5n6/339MXP7sgux2u3fzPP94dXV1lMMfAo9F4H6app/3+/27c17wbILsdruX8zz/RIxzziNrgMBZRTmLIA9PjbcDN+MUBCIEpml6f46nycmCbLfbX7xnRDYWejqBD4fD4c0pMScJ4slxCnrnPgaBU58kw4I8vHMcnx7+EFg1gWmaXo3+yjUsyHa7/dUL+ao/F8r9SeD+cDi8GAEyJMjt7e3raZqOv1j5Q6CCwDzPb+7u7j4sLTskiKfHUsyOXwGBoafIqCDzCm5YBQQWERh5F1ksiK9XizZx8IoIEGRFY6iyPgIjP/kufoKM/O/jcDgsvs768Gq0NgLb7XbRV32CrG1BfaIECBLFK7ydAEHaF9Q/SoAgUbzC2wkQpH1B/aMECBLFK7ydAEHaF9Q/SoAgUbzC2wkQpH1B/aMECBLFK7ydAEHaF9Q/SoAgUbzC2wkQpH1B/aMECBLFK7ydAEHaF9Q/SoAgUbzC2wkQpH1B/aMECBLFK7ydAEHaF9Q/SoAgUbzC2wkQpH1B/aMECBLFK7ydAEHaF9Q/SoAgUbzC2wkQpH1B/aMECBLFK7ydAEHaF9Q/SoAgUbzC2wkQpH1B/aMECBLFK7ydAEHaF9Q/SoAgUbzC2wkQpH1B/aMECBLFK7ydAEHaF9Q/SoAgUbzC2wkQpH1B/aMECBLFK7ydAEHaF9Q/SoAgUbzC2wkQpH1B/aMECBLFK7ydAEHaF9Q/SoAgUbzC2wkQpH1B/aMECBLFK7ydAEHaF9Q/SoAgUbzC2wkQpH1B/aMECBLFK7ydAEHaF9Q/SoAgUbzC2wkQpH1B/aMECBLFK7ydAEHaF9Q/SoAgUbzC2wkQpH1B/aMECBLFK7ydAEHaF9Q/SoAgUbzC2wkQpH1B/aMECBLFK7ydAEHaF9Q/SoAgUbzC2wkQpH1B/aMECBLFK7ydAEHaF9Q/SoAgUbzC2wkQpH1B/aMECBLFK7ydAEHaF9Q/SoAgUbzC2wkQpH1B/aMECBLFK7ydAEHaF9Q/SoAgUbzC2wkQpH1B/aMECBLFK7ydAEHaF9Q/SoAgUbzC2wkQpH1B/aMECBLFK7ydAEHaF9Q/SoAgUbzC2wkQpH1B/aMECBLFK7ydAEHaF9Q/SoAgUbzC2wkQpH1B/aMECBLFK7ydAEHaF9Q/SoAgUbzC2wkQpH1B/aMECBLFK7ydAEHaF9Q/SoAgUbzC2wkQpH1B/aMECBLFK7ydAEHaF9Q/SoAgUbzC2wkQpH1B/aMECBLFK7ydAEHaF9Q/SoAgUbzC2wkQpH1B/aMECBLFK7ydAEHaF9Q/SoAgUbzC2wkQpH1B/aMECBLFK7ydAEHaF9Q/SoAgUbzC2wkQpH1B/aMECBLFK7ydAEHaF9Q/SoAgUbzC2wkQpH1B/aMECBLFK7ydAEHaF9Q/SoAgUbzC2wkQpH1B/aMECBLFK7ydAEHaF9Q/SoAgUbzC2wkQpH1B/aMECBLFK7ydAEHaF9Q/SoAgUbzC2wkQpH1B/aMECBLFK7ydAEHaF9Q/SoAgUbzC2wkQpH1B/aMECBLFK7ydAEHaF9Q/SoAgUbzC2wkQpH1B/aMECBLFK7ydAEHaF9Q/SoAgUbzC2wkQpH1B/aMECBLFK7ydAEHaF9Q/SoAgUbzC2wkQpH1B/aMECBLFK7ydAEHaF9Q/SoAgUbzC2wkQpH1B/aME/jeCRCkJR+A7Cczz/Obu7u7Ddx7++2HTkoOPx+52u5fzPP+y9DzHI3BpAo8iyM3NzfNnz579eumbdX0ElhL48uXLi0+fPt0vOW/xE+QYvt1uj0+Ql0su5FgELkzg4+FweLW0w5Agt7e3r6dp+mnpxRyPwKUIjHy9GnoHOZ708DXrKIinyKUWd90lBO4Ph8OLJSf8cezQE8TL+ghq51yKwDRNr/b7/ceR6w8L8iDJu3me345c2DkIPAaBaZre7/f7d6PXOkkQkoxid94jERh6Mf+228mCkOSRpnaZRQROfXKc/A7y17YPv2wdv249X3QnDkbgvATup2l6M/rO8dcqZ3mC/BF6/HXr+vr69TzPP/iF67yrS/tPAkcxfj7lfePvrnBWQb69wFGWzWbz+8/Am83GU+U/93XAIIGPnz9/vl/6H/LvvVZMkO8t4DgE1kyAIGteR7eLEyDIxSdQYM0ECLLmdXS7OAGCXHwCBdZMgCBrXke3ixMgyMUnUGDNBAiy5nV0uzgBglx8AgXWTIAga15Ht4sTIMjFJ1BgzQQIsuZ1dLs4gd8AVTnKMgr30rsAAAAASUVORK5CYII=;" vertex="1" parent="1">
          <mxGeometry x="417" y="618" width="16" height="16" as="geometry" />
        </mxCell>
        <mxCell id="nuh91Gn9ch_38w9lImbc-4" value="" style="shape=image;verticalLabelPosition=bottom;labelBackgroundColor=default;verticalAlign=top;aspect=fixed;imageAspect=0;image=data:image/png,iVBORw0KGgoAAAANSUhEUgAAAMgAAADICAYAAACtWK6eAAAAAXNSR0IArs4c6QAAB0hJREFUeF7t2W1y03YAhPHI5CBwg0zs74WTFE4CnKT0JOUAdoYbNAcB1HEnnTKdvqC/vbG2+eWztFo962dkOdOVPwQQ+EcCEzYIIPDPBAji04HAvxAgiI8HAgTxGUBgjIAnyBg3Zz0RAgR5IkO7zTECBBnj5qwnQoAgT2RotzlGgCBj3Jz1RAgQ5IkM7TbHCBBkjJuzngiBmCA3NzfPr6+vn19dXb18Iizd5iMT+Pr16/3xkpvN5n6/339MXP7sgux2u3fzPP94dXV1lMMfAo9F4H6app/3+/27c17wbILsdruX8zz/RIxzziNrgMBZRTmLIA9PjbcDN+MUBCIEpml6f46nycmCbLfbX7xnRDYWejqBD4fD4c0pMScJ4slxCnrnPgaBU58kw4I8vHMcnx7+EFg1gWmaXo3+yjUsyHa7/dUL+ao/F8r9SeD+cDi8GAEyJMjt7e3raZqOv1j5Q6CCwDzPb+7u7j4sLTskiKfHUsyOXwGBoafIqCDzCm5YBQQWERh5F1ksiK9XizZx8IoIEGRFY6iyPgIjP/kufoKM/O/jcDgsvs768Gq0NgLb7XbRV32CrG1BfaIECBLFK7ydAEHaF9Q/SoAgUbzC2wkQpH1B/aMECBLFK7ydAEHaF9Q/SoAgUbzC2wkQpH1B/aMECBLFK7ydAEHaF9Q/SoAgUbzC2wkQpH1B/aMECBLFK7ydAEHaF9Q/SoAgUbzC2wkQpH1B/aMECBLFK7ydAEHaF9Q/SoAgUbzC2wkQpH1B/aMECBLFK7ydAEHaF9Q/SoAgUbzC2wkQpH1B/aMECBLFK7ydAEHaF9Q/SoAgUbzC2wkQpH1B/aMECBLFK7ydAEHaF9Q/SoAgUbzC2wkQpH1B/aMECBLFK7ydAEHaF9Q/SoAgUbzC2wkQpH1B/aMECBLFK7ydAEHaF9Q/SoAgUbzC2wkQpH1B/aMECBLFK7ydAEHaF9Q/SoAgUbzC2wkQpH1B/aMECBLFK7ydAEHaF9Q/SoAgUbzC2wkQpH1B/aMECBLFK7ydAEHaF9Q/SoAgUbzC2wkQpH1B/aMECBLFK7ydAEHaF9Q/SoAgUbzC2wkQpH1B/aMECBLFK7ydAEHaF9Q/SoAgUbzC2wkQpH1B/aMECBLFK7ydAEHaF9Q/SoAgUbzC2wkQpH1B/aMECBLFK7ydAEHaF9Q/SoAgUbzC2wkQpH1B/aMECBLFK7ydAEHaF9Q/SoAgUbzC2wkQpH1B/aMECBLFK7ydAEHaF9Q/SoAgUbzC2wkQpH1B/aMECBLFK7ydAEHaF9Q/SoAgUbzC2wkQpH1B/aMECBLFK7ydAEHaF9Q/SoAgUbzC2wkQpH1B/aMECBLFK7ydAEHaF9Q/SoAgUbzC2wkQpH1B/aMECBLFK7ydAEHaF9Q/SoAgUbzC2wkQpH1B/aMECBLFK7ydAEHaF9Q/SoAgUbzC2wkQpH1B/aMECBLFK7ydAEHaF9Q/SoAgUbzC2wkQpH1B/aMECBLFK7ydAEHaF9Q/SoAgUbzC2wkQpH1B/aMECBLFK7ydAEHaF9Q/SoAgUbzC2wkQpH1B/aMECBLFK7ydAEHaF9Q/SoAgUbzC2wkQpH1B/aMECBLFK7ydAEHaF9Q/SoAgUbzC2wkQpH1B/aMECBLFK7ydAEHaF9Q/SoAgUbzC2wkQpH1B/aMECBLFK7ydAEHaF9Q/SoAgUbzC2wkQpH1B/aMECBLFK7ydAEHaF9Q/SoAgUbzC2wkQpH1B/aMECBLFK7ydAEHaF9Q/SoAgUbzC2wkQpH1B/aMECBLFK7ydAEHaF9Q/SoAgUbzC2wkQpH1B/aMECBLFK7ydAEHaF9Q/SoAgUbzC2wkQpH1B/aMECBLFK7ydAEHaF9Q/SoAgUbzC2wkQpH1B/aMECBLFK7ydAEHaF9Q/SoAgUbzC2wkQpH1B/aME/jeCRCkJR+A7Cczz/Obu7u7Ddx7++2HTkoOPx+52u5fzPP+y9DzHI3BpAo8iyM3NzfNnz579eumbdX0ElhL48uXLi0+fPt0vOW/xE+QYvt1uj0+Ql0su5FgELkzg4+FweLW0w5Agt7e3r6dp+mnpxRyPwKUIjHy9GnoHOZ708DXrKIinyKUWd90lBO4Ph8OLJSf8cezQE8TL+ghq51yKwDRNr/b7/ceR6w8L8iDJu3me345c2DkIPAaBaZre7/f7d6PXOkkQkoxid94jERh6Mf+228mCkOSRpnaZRQROfXKc/A7y17YPv2wdv249X3QnDkbgvATup2l6M/rO8dcqZ3mC/BF6/HXr+vr69TzPP/iF67yrS/tPAkcxfj7lfePvrnBWQb69wFGWzWbz+8/Am83GU+U/93XAIIGPnz9/vl/6H/LvvVZMkO8t4DgE1kyAIGteR7eLEyDIxSdQYM0ECLLmdXS7OAGCXHwCBdZMgCBrXke3ixMgyMUnUGDNBAiy5nV0uzgBglx8AgXWTIAga15Ht4sTIMjFJ1BgzQQIsuZ1dLs4gd8AVTnKMgr30rsAAAAASUVORK5CYII=;" vertex="1" parent="1">
          <mxGeometry x="417" y="656" width="16" height="16" as="geometry" />
        </mxCell>
        <mxCell id="nuh91Gn9ch_38w9lImbc-5" value="" style="shape=image;verticalLabelPosition=bottom;labelBackgroundColor=default;verticalAlign=top;aspect=fixed;imageAspect=0;image=data:image/png,iVBORw0KGgoAAAANSUhEUgAAAMgAAADICAYAAACtWK6eAAAAAXNSR0IArs4c6QAAB0hJREFUeF7t2W1y03YAhPHI5CBwg0zs74WTFE4CnKT0JOUAdoYbNAcB1HEnnTKdvqC/vbG2+eWztFo962dkOdOVPwQQ+EcCEzYIIPDPBAji04HAvxAgiI8HAgTxGUBgjIAnyBg3Zz0RAgR5IkO7zTECBBnj5qwnQoAgT2RotzlGgCBj3Jz1RAgQ5IkM7TbHCBBkjJuzngiBmCA3NzfPr6+vn19dXb18Iizd5iMT+Pr16/3xkpvN5n6/339MXP7sgux2u3fzPP94dXV1lMMfAo9F4H6app/3+/27c17wbILsdruX8zz/RIxzziNrgMBZRTmLIA9PjbcDN+MUBCIEpml6f46nycmCbLfbX7xnRDYWejqBD4fD4c0pMScJ4slxCnrnPgaBU58kw4I8vHMcnx7+EFg1gWmaXo3+yjUsyHa7/dUL+ao/F8r9SeD+cDi8GAEyJMjt7e3raZqOv1j5Q6CCwDzPb+7u7j4sLTskiKfHUsyOXwGBoafIqCDzCm5YBQQWERh5F1ksiK9XizZx8IoIEGRFY6iyPgIjP/kufoKM/O/jcDgsvs768Gq0NgLb7XbRV32CrG1BfaIECBLFK7ydAEHaF9Q/SoAgUbzC2wkQpH1B/aMECBLFK7ydAEHaF9Q/SoAgUbzC2wkQpH1B/aMECBLFK7ydAEHaF9Q/SoAgUbzC2wkQpH1B/aMECBLFK7ydAEHaF9Q/SoAgUbzC2wkQpH1B/aMECBLFK7ydAEHaF9Q/SoAgUbzC2wkQpH1B/aMECBLFK7ydAEHaF9Q/SoAgUbzC2wkQpH1B/aMECBLFK7ydAEHaF9Q/SoAgUbzC2wkQpH1B/aMECBLFK7ydAEHaF9Q/SoAgUbzC2wkQpH1B/aMECBLFK7ydAEHaF9Q/SoAgUbzC2wkQpH1B/aMECBLFK7ydAEHaF9Q/SoAgUbzC2wkQpH1B/aMECBLFK7ydAEHaF9Q/SoAgUbzC2wkQpH1B/aMECBLFK7ydAEHaF9Q/SoAgUbzC2wkQpH1B/aMECBLFK7ydAEHaF9Q/SoAgUbzC2wkQpH1B/aMECBLFK7ydAEHaF9Q/SoAgUbzC2wkQpH1B/aMECBLFK7ydAEHaF9Q/SoAgUbzC2wkQpH1B/aMECBLFK7ydAEHaF9Q/SoAgUbzC2wkQpH1B/aMECBLFK7ydAEHaF9Q/SoAgUbzC2wkQpH1B/aMECBLFK7ydAEHaF9Q/SoAgUbzC2wkQpH1B/aMECBLFK7ydAEHaF9Q/SoAgUbzC2wkQpH1B/aMECBLFK7ydAEHaF9Q/SoAgUbzC2wkQpH1B/aMECBLFK7ydAEHaF9Q/SoAgUbzC2wkQpH1B/aMECBLFK7ydAEHaF9Q/SoAgUbzC2wkQpH1B/aMECBLFK7ydAEHaF9Q/SoAgUbzC2wkQpH1B/aMECBLFK7ydAEHaF9Q/SoAgUbzC2wkQpH1B/aMECBLFK7ydAEHaF9Q/SoAgUbzC2wkQpH1B/aMECBLFK7ydAEHaF9Q/SoAgUbzC2wkQpH1B/aMECBLFK7ydAEHaF9Q/SoAgUbzC2wkQpH1B/aMECBLFK7ydAEHaF9Q/SoAgUbzC2wkQpH1B/aMECBLFK7ydAEHaF9Q/SoAgUbzC2wkQpH1B/aMECBLFK7ydAEHaF9Q/SoAgUbzC2wkQpH1B/aMECBLFK7ydAEHaF9Q/SoAgUbzC2wkQpH1B/aMECBLFK7ydAEHaF9Q/SoAgUbzC2wkQpH1B/aMECBLFK7ydAEHaF9Q/SoAgUbzC2wkQpH1B/aMECBLFK7ydAEHaF9Q/SoAgUbzC2wkQpH1B/aMECBLFK7ydAEHaF9Q/SoAgUbzC2wkQpH1B/aMECBLFK7ydAEHaF9Q/SoAgUbzC2wkQpH1B/aMECBLFK7ydAEHaF9Q/SoAgUbzC2wkQpH1B/aME/jeCRCkJR+A7Cczz/Obu7u7Ddx7++2HTkoOPx+52u5fzPP+y9DzHI3BpAo8iyM3NzfNnz579eumbdX0ElhL48uXLi0+fPt0vOW/xE+QYvt1uj0+Ql0su5FgELkzg4+FweLW0w5Agt7e3r6dp+mnpxRyPwKUIjHy9GnoHOZ708DXrKIinyKUWd90lBO4Ph8OLJSf8cezQE8TL+ghq51yKwDRNr/b7/ceR6w8L8iDJu3me345c2DkIPAaBaZre7/f7d6PXOkkQkoxid94jERh6Mf+228mCkOSRpnaZRQROfXKc/A7y17YPv2wdv249X3QnDkbgvATup2l6M/rO8dcqZ3mC/BF6/HXr+vr69TzPP/iF67yrS/tPAkcxfj7lfePvrnBWQb69wFGWzWbz+8/Am83GU+U/93XAIIGPnz9/vl/6H/LvvVZMkO8t4DgE1kyAIGteR7eLEyDIxSdQYM0ECLLmdXS7OAGCXHwCBdZMgCBrXke3ixMgyMUnUGDNBAiy5nV0uzgBglx8AgXWTIAga15Ht4sTIMjFJ1BgzQQIsuZ1dLs4gd8AVTnKMgr30rsAAAAASUVORK5CYII=;" vertex="1" parent="1">
          <mxGeometry x="417" y="709" width="16" height="16" as="geometry" />
        </mxCell>
        <mxCell id="nuh91Gn9ch_38w9lImbc-6" value="" style="shape=image;verticalLabelPosition=bottom;labelBackgroundColor=default;verticalAlign=top;aspect=fixed;imageAspect=0;image=data:image/png,iVBORw0KGgoAAAANSUhEUgAAAMgAAADICAYAAACtWK6eAAAAAXNSR0IArs4c6QAAB0hJREFUeF7t2W1y03YAhPHI5CBwg0zs74WTFE4CnKT0JOUAdoYbNAcB1HEnnTKdvqC/vbG2+eWztFo962dkOdOVPwQQ+EcCEzYIIPDPBAji04HAvxAgiI8HAgTxGUBgjIAnyBg3Zz0RAgR5IkO7zTECBBnj5qwnQoAgT2RotzlGgCBj3Jz1RAgQ5IkM7TbHCBBkjJuzngiBmCA3NzfPr6+vn19dXb18Iizd5iMT+Pr16/3xkpvN5n6/339MXP7sgux2u3fzPP94dXV1lMMfAo9F4H6app/3+/27c17wbILsdruX8zz/RIxzziNrgMBZRTmLIA9PjbcDN+MUBCIEpml6f46nycmCbLfbX7xnRDYWejqBD4fD4c0pMScJ4slxCnrnPgaBU58kw4I8vHMcnx7+EFg1gWmaXo3+yjUsyHa7/dUL+ao/F8r9SeD+cDi8GAEyJMjt7e3raZqOv1j5Q6CCwDzPb+7u7j4sLTskiKfHUsyOXwGBoafIqCDzCm5YBQQWERh5F1ksiK9XizZx8IoIEGRFY6iyPgIjP/kufoKM/O/jcDgsvs768Gq0NgLb7XbRV32CrG1BfaIECBLFK7ydAEHaF9Q/SoAgUbzC2wkQpH1B/aMECBLFK7ydAEHaF9Q/SoAgUbzC2wkQpH1B/aMECBLFK7ydAEHaF9Q/SoAgUbzC2wkQpH1B/aMECBLFK7ydAEHaF9Q/SoAgUbzC2wkQpH1B/aMECBLFK7ydAEHaF9Q/SoAgUbzC2wkQpH1B/aMECBLFK7ydAEHaF9Q/SoAgUbzC2wkQpH1B/aMECBLFK7ydAEHaF9Q/SoAgUbzC2wkQpH1B/aMECBLFK7ydAEHaF9Q/SoAgUbzC2wkQpH1B/aMECBLFK7ydAEHaF9Q/SoAgUbzC2wkQpH1B/aMECBLFK7ydAEHaF9Q/SoAgUbzC2wkQpH1B/aMECBLFK7ydAEHaF9Q/SoAgUbzC2wkQpH1B/aMECBLFK7ydAEHaF9Q/SoAgUbzC2wkQpH1B/aMECBLFK7ydAEHaF9Q/SoAgUbzC2wkQpH1B/aMECBLFK7ydAEHaF9Q/SoAgUbzC2wkQpH1B/aMECBLFK7ydAEHaF9Q/SoAgUbzC2wkQpH1B/aMECBLFK7ydAEHaF9Q/SoAgUbzC2wkQpH1B/aMECBLFK7ydAEHaF9Q/SoAgUbzC2wkQpH1B/aMECBLFK7ydAEHaF9Q/SoAgUbzC2wkQpH1B/aMECBLFK7ydAEHaF9Q/SoAgUbzC2wkQpH1B/aMECBLFK7ydAEHaF9Q/SoAgUbzC2wkQpH1B/aMECBLFK7ydAEHaF9Q/SoAgUbzC2wkQpH1B/aMECBLFK7ydAEHaF9Q/SoAgUbzC2wkQpH1B/aMECBLFK7ydAEHaF9Q/SoAgUbzC2wkQpH1B/aMECBLFK7ydAEHaF9Q/SoAgUbzC2wkQpH1B/aMECBLFK7ydAEHaF9Q/SoAgUbzC2wkQpH1B/aMECBLFK7ydAEHaF9Q/SoAgUbzC2wkQpH1B/aMECBLFK7ydAEHaF9Q/SoAgUbzC2wkQpH1B/aMECBLFK7ydAEHaF9Q/SoAgUbzC2wkQpH1B/aMECBLFK7ydAEHaF9Q/SoAgUbzC2wkQpH1B/aMECBLFK7ydAEHaF9Q/SoAgUbzC2wkQpH1B/aMECBLFK7ydAEHaF9Q/SoAgUbzC2wkQpH1B/aMECBLFK7ydAEHaF9Q/SoAgUbzC2wkQpH1B/aMECBLFK7ydAEHaF9Q/SoAgUbzC2wkQpH1B/aMECBLFK7ydAEHaF9Q/SoAgUbzC2wkQpH1B/aMECBLFK7ydAEHaF9Q/SoAgUbzC2wkQpH1B/aMECBLFK7ydAEHaF9Q/SoAgUbzC2wkQpH1B/aMECBLFK7ydAEHaF9Q/SoAgUbzC2wkQpH1B/aME/jeCRCkJR+A7Cczz/Obu7u7Ddx7++2HTkoOPx+52u5fzPP+y9DzHI3BpAo8iyM3NzfNnz579eumbdX0ElhL48uXLi0+fPt0vOW/xE+QYvt1uj0+Ql0su5FgELkzg4+FweLW0w5Agt7e3r6dp+mnpxRyPwKUIjHy9GnoHOZ708DXrKIinyKUWd90lBO4Ph8OLJSf8cezQE8TL+ghq51yKwDRNr/b7/ceR6w8L8iDJu3me345c2DkIPAaBaZre7/f7d6PXOkkQkoxid94jERh6Mf+228mCkOSRpnaZRQROfXKc/A7y17YPv2wdv249X3QnDkbgvATup2l6M/rO8dcqZ3mC/BF6/HXr+vr69TzPP/iF67yrS/tPAkcxfj7lfePvrnBWQb69wFGWzWbz+8/Am83GU+U/93XAIIGPnz9/vl/6H/LvvVZMkO8t4DgE1kyAIGteR7eLEyDIxSdQYM0ECLLmdXS7OAGCXHwCBdZMgCBrXke3ixMgyMUnUGDNBAiy5nV0uzgBglx8AgXWTIAga15Ht4sTIMjFJ1BgzQQIsuZ1dLs4gd8AVTnKMgr30rsAAAAASUVORK5CYII=;" vertex="1" parent="1">
          <mxGeometry x="417" y="770" width="16" height="16" as="geometry" />
        </mxCell>
        <mxCell id="nuh91Gn9ch_38w9lImbc-7" value="" style="shape=image;verticalLabelPosition=bottom;labelBackgroundColor=default;verticalAlign=top;aspect=fixed;imageAspect=0;image=data:image/png,iVBORw0KGgoAAAANSUhEUgAAAMgAAADICAYAAACtWK6eAAAAAXNSR0IArs4c6QAAB0hJREFUeF7t2W1y03YAhPHI5CBwg0zs74WTFE4CnKT0JOUAdoYbNAcB1HEnnTKdvqC/vbG2+eWztFo962dkOdOVPwQQ+EcCEzYIIPDPBAji04HAvxAgiI8HAgTxGUBgjIAnyBg3Zz0RAgR5IkO7zTECBBnj5qwnQoAgT2RotzlGgCBj3Jz1RAgQ5IkM7TbHCBBkjJuzngiBmCA3NzfPr6+vn19dXb18Iizd5iMT+Pr16/3xkpvN5n6/339MXP7sgux2u3fzPP94dXV1lMMfAo9F4H6app/3+/27c17wbILsdruX8zz/RIxzziNrgMBZRTmLIA9PjbcDN+MUBCIEpml6f46nycmCbLfbX7xnRDYWejqBD4fD4c0pMScJ4slxCnrnPgaBU58kw4I8vHMcnx7+EFg1gWmaXo3+yjUsyHa7/dUL+ao/F8r9SeD+cDi8GAEyJMjt7e3raZqOv1j5Q6CCwDzPb+7u7j4sLTskiKfHUsyOXwGBoafIqCDzCm5YBQQWERh5F1ksiK9XizZx8IoIEGRFY6iyPgIjP/kufoKM/O/jcDgsvs768Gq0NgLb7XbRV32CrG1BfaIECBLFK7ydAEHaF9Q/SoAgUbzC2wkQpH1B/aMECBLFK7ydAEHaF9Q/SoAgUbzC2wkQpH1B/aMECBLFK7ydAEHaF9Q/SoAgUbzC2wkQpH1B/aMECBLFK7ydAEHaF9Q/SoAgUbzC2wkQpH1B/aMECBLFK7ydAEHaF9Q/SoAgUbzC2wkQpH1B/aMECBLFK7ydAEHaF9Q/SoAgUbzC2wkQpH1B/aMECBLFK7ydAEHaF9Q/SoAgUbzC2wkQpH1B/aMECBLFK7ydAEHaF9Q/SoAgUbzC2wkQpH1B/aMECBLFK7ydAEHaF9Q/SoAgUbzC2wkQpH1B/aMECBLFK7ydAEHaF9Q/SoAgUbzC2wkQpH1B/aMECBLFK7ydAEHaF9Q/SoAgUbzC2wkQpH1B/aMECBLFK7ydAEHaF9Q/SoAgUbzC2wkQpH1B/aMECBLFK7ydAEHaF9Q/SoAgUbzC2wkQpH1B/aMECBLFK7ydAEHaF9Q/SoAgUbzC2wkQpH1B/aMECBLFK7ydAEHaF9Q/SoAgUbzC2wkQpH1B/aMECBLFK7ydAEHaF9Q/SoAgUbzC2wkQpH1B/aMECBLFK7ydAEHaF9Q/SoAgUbzC2wkQpH1B/aMECBLFK7ydAEHaF9Q/SoAgUbzC2wkQpH1B/aMECBLFK7ydAEHaF9Q/SoAgUbzC2wkQpH1B/aMECBLFK7ydAEHaF9Q/SoAgUbzC2wkQpH1B/aMECBLFK7ydAEHaF9Q/SoAgUbzC2wkQpH1B/aMECBLFK7ydAEHaF9Q/SoAgUbzC2wkQpH1B/aMECBLFK7ydAEHaF9Q/SoAgUbzC2wkQpH1B/aMECBLFK7ydAEHaF9Q/SoAgUbzC2wkQpH1B/aMECBLFK7ydAEHaF9Q/SoAgUbzC2wkQpH1B/aMECBLFK7ydAEHaF9Q/SoAgUbzC2wkQpH1B/aMECBLFK7ydAEHaF9Q/SoAgUbzC2wkQpH1B/aMECBLFK7ydAEHaF9Q/SoAgUbzC2wkQpH1B/aMECBLFK7ydAEHaF9Q/SoAgUbzC2wkQpH1B/aMECBLFK7ydAEHaF9Q/SoAgUbzC2wkQpH1B/aMECBLFK7ydAEHaF9Q/SoAgUbzC2wkQpH1B/aMECBLFK7ydAEHaF9Q/SoAgUbzC2wkQpH1B/aMECBLFK7ydAEHaF9Q/SoAgUbzC2wkQpH1B/aMECBLFK7ydAEHaF9Q/SoAgUbzC2wkQpH1B/aMECBLFK7ydAEHaF9Q/SoAgUbzC2wkQpH1B/aMECBLFK7ydAEHaF9Q/SoAgUbzC2wkQpH1B/aMECBLFK7ydAEHaF9Q/SoAgUbzC2wkQpH1B/aME/jeCRCkJR+A7Cczz/Obu7u7Ddx7++2HTkoOPx+52u5fzPP+y9DzHI3BpAo8iyM3NzfNnz579eumbdX0ElhL48uXLi0+fPt0vOW/xE+QYvt1uj0+Ql0su5FgELkzg4+FweLW0w5Agt7e3r6dp+mnpxRyPwKUIjHy9GnoHOZ708DXrKIinyKUWd90lBO4Ph8OLJSf8cezQE8TL+ghq51yKwDRNr/b7/ceR6w8L8iDJu3me345c2DkIPAaBaZre7/f7d6PXOkkQkoxid94jERh6Mf+228mCkOSRpnaZRQROfXKc/A7y17YPv2wdv249X3QnDkbgvATup2l6M/rO8dcqZ3mC/BF6/HXr+vr69TzPP/iF67yrS/tPAkcxfj7lfePvrnBWQb69wFGWzWbz+8/Am83GU+U/93XAIIGPnz9/vl/6H/LvvVZMkO8t4DgE1kyAIGteR7eLEyDIxSdQYM0ECLLmdXS7OAGCXHwCBdZMgCBrXke3ixMgyMUnUGDNBAiy5nV0uzgBglx8AgXWTIAga15Ht4sTIMjFJ1BgzQQIsuZ1dLs4gd8AVTnKMgr30rsAAAAASUVORK5CYII=;" vertex="1" parent="1">
          <mxGeometry x="286" y="666" width="16" height="16" as="geometry" />
        </mxCell>
        <mxCell id="nuh91Gn9ch_38w9lImbc-8" value="" style="shape=image;verticalLabelPosition=bottom;labelBackgroundColor=default;verticalAlign=top;aspect=fixed;imageAspect=0;image=data:image/png,iVBORw0KGgoAAAANSUhEUgAAAMgAAADICAYAAACtWK6eAAAAAXNSR0IArs4c6QAAB0hJREFUeF7t2W1y03YAhPHI5CBwg0zs74WTFE4CnKT0JOUAdoYbNAcB1HEnnTKdvqC/vbG2+eWztFo962dkOdOVPwQQ+EcCEzYIIPDPBAji04HAvxAgiI8HAgTxGUBgjIAnyBg3Zz0RAgR5IkO7zTECBBnj5qwnQoAgT2RotzlGgCBj3Jz1RAgQ5IkM7TbHCBBkjJuzngiBmCA3NzfPr6+vn19dXb18Iizd5iMT+Pr16/3xkpvN5n6/339MXP7sgux2u3fzPP94dXV1lMMfAo9F4H6app/3+/27c17wbILsdruX8zz/RIxzziNrgMBZRTmLIA9PjbcDN+MUBCIEpml6f46nycmCbLfbX7xnRDYWejqBD4fD4c0pMScJ4slxCnrnPgaBU58kw4I8vHMcnx7+EFg1gWmaXo3+yjUsyHa7/dUL+ao/F8r9SeD+cDi8GAEyJMjt7e3raZqOv1j5Q6CCwDzPb+7u7j4sLTskiKfHUsyOXwGBoafIqCDzCm5YBQQWERh5F1ksiK9XizZx8IoIEGRFY6iyPgIjP/kufoKM/O/jcDgsvs768Gq0NgLb7XbRV32CrG1BfaIECBLFK7ydAEHaF9Q/SoAgUbzC2wkQpH1B/aMECBLFK7ydAEHaF9Q/SoAgUbzC2wkQpH1B/aMECBLFK7ydAEHaF9Q/SoAgUbzC2wkQpH1B/aMECBLFK7ydAEHaF9Q/SoAgUbzC2wkQpH1B/aMECBLFK7ydAEHaF9Q/SoAgUbzC2wkQpH1B/aMECBLFK7ydAEHaF9Q/SoAgUbzC2wkQpH1B/aMECBLFK7ydAEHaF9Q/SoAgUbzC2wkQpH1B/aMECBLFK7ydAEHaF9Q/SoAgUbzC2wkQpH1B/aMECBLFK7ydAEHaF9Q/SoAgUbzC2wkQpH1B/aMECBLFK7ydAEHaF9Q/SoAgUbzC2wkQpH1B/aMECBLFK7ydAEHaF9Q/SoAgUbzC2wkQpH1B/aMECBLFK7ydAEHaF9Q/SoAgUbzC2wkQpH1B/aMECBLFK7ydAEHaF9Q/SoAgUbzC2wkQpH1B/aMECBLFK7ydAEHaF9Q/SoAgUbzC2wkQpH1B/aMECBLFK7ydAEHaF9Q/SoAgUbzC2wkQpH1B/aMECBLFK7ydAEHaF9Q/SoAgUbzC2wkQpH1B/aMECBLFK7ydAEHaF9Q/SoAgUbzC2wkQpH1B/aMECBLFK7ydAEHaF9Q/SoAgUbzC2wkQpH1B/aMECBLFK7ydAEHaF9Q/SoAgUbzC2wkQpH1B/aMECBLFK7ydAEHaF9Q/SoAgUbzC2wkQpH1B/aMECBLFK7ydAEHaF9Q/SoAgUbzC2wkQpH1B/aMECBLFK7ydAEHaF9Q/SoAgUbzC2wkQpH1B/aMECBLFK7ydAEHaF9Q/SoAgUbzC2wkQpH1B/aMECBLFK7ydAEHaF9Q/SoAgUbzC2wkQpH1B/aMECBLFK7ydAEHaF9Q/SoAgUbzC2wkQpH1B/aMECBLFK7ydAEHaF9Q/SoAgUbzC2wkQpH1B/aMECBLFK7ydAEHaF9Q/SoAgUbzC2wkQpH1B/aMECBLFK7ydAEHaF9Q/SoAgUbzC2wkQpH1B/aMECBLFK7ydAEHaF9Q/SoAgUbzC2wkQpH1B/aMECBLFK7ydAEHaF9Q/SoAgUbzC2wkQpH1B/aMECBLFK7ydAEHaF9Q/SoAgUbzC2wkQpH1B/aMECBLFK7ydAEHaF9Q/SoAgUbzC2wkQpH1B/aMECBLFK7ydAEHaF9Q/SoAgUbzC2wkQpH1B/aMECBLFK7ydAEHaF9Q/SoAgUbzC2wkQpH1B/aMECBLFK7ydAEHaF9Q/SoAgUbzC2wkQpH1B/aMECBLFK7ydAEHaF9Q/SoAgUbzC2wkQpH1B/aMECBLFK7ydAEHaF9Q/SoAgUbzC2wkQpH1B/aME/jeCRCkJR+A7Cczz/Obu7u7Ddx7++2HTkoOPx+52u5fzPP+y9DzHI3BpAo8iyM3NzfNnz579eumbdX0ElhL48uXLi0+fPt0vOW/xE+QYvt1uj0+Ql0su5FgELkzg4+FweLW0w5Agt7e3r6dp+mnpxRyPwKUIjHy9GnoHOZ708DXrKIinyKUWd90lBO4Ph8OLJSf8cezQE8TL+ghq51yKwDRNr/b7/ceR6w8L8iDJu3me345c2DkIPAaBaZre7/f7d6PXOkkQkoxid94jERh6Mf+228mCkOSRpnaZRQROfXKc/A7y17YPv2wdv249X3QnDkbgvATup2l6M/rO8dcqZ3mC/BF6/HXr+vr69TzPP/iF67yrS/tPAkcxfj7lfePvrnBWQb69wFGWzWbz+8/Am83GU+U/93XAIIGPnz9/vl/6H/LvvVZMkO8t4DgE1kyAIGteR7eLEyDIxSdQYM0ECLLmdXS7OAGCXHwCBdZMgCBrXke3ixMgyMUnUGDNBAiy5nV0uzgBglx8AgXWTIAga15Ht4sTIMjFJ1BgzQQIsuZ1dLs4gd8AVTnKMgr30rsAAAAASUVORK5CYII=;" vertex="1" parent="1">
          <mxGeometry x="277" y="134" width="16" height="16" as="geometry" />
        </mxCell>
        <mxCell id="gd9AsMWz3PdLgUzAn3Fu-1" value="" style="shape=image;verticalLabelPosition=bottom;labelBackgroundColor=default;verticalAlign=top;aspect=fixed;imageAspect=0;image=data:image/png,iVBORw0KGgoAAAANSUhEUgAAAMgAAADICAYAAACtWK6eAAAAAXNSR0IArs4c6QAACGdJREFUeF7t3UtW21gUheErjySdUJ5AUvRCzQRGEhhJmElIjyIT8CKdTCRSLRPIMpQf8m/Zukfnr7Y31t1bX5lXcFP8zwZsYGMDjd3YgA1sbkAg3h02sKUBgXh72IBAvAdsgDXgKwjrzVSSBgSSZGiPyRoQCOvNVJIGBJJkaI/JGhAI681UkgYEkmRoj8kaEAjrzVSSBgSSZGiPyRoQCOvNVJIGBJJkaI/JGhAI681UkgYEkmRoj8kaEAjrzVSSBgSSZGiPyRoQCOvNVJIGBJJkaI/JGhAI681UkgYEkmRoj8kaEAjrzVSSBgSSZGiPyRoQCOvNVJIGBJJkaI/JGhAI681UkgYEkmRoj8kaEAjrzVSSBgSSZGiPyRoQCOvNVJIGBJJkaI/JGhAI681UkgaqATKfn1+Utr1I0rvH3NbAbHa3WNzf1VBSPUDOPl53pXyuoRSvYdwGmlJuFo8P1+Nexe9nF0gNK3gNrxoQyJobYu4riEyeGxCIQMSwpQGBCEQgAtnvHvBTrP36mvKjfQXxFWTK9/fBZxMIANKV5nbWtd8Obt8PMHoDbTP71JTuctOFCAQAabruavHj++3o63oBBzcwf//hsmuaLwLZo8pdX4MIZI8yK3+oQMBAAgGlBY0IBAwnEFBa0IhAwHACAaUFjQgEDCcQUFrQiEDAcAIBpQWNCAQMJxBQWtCIQMBwAgGlBY0IBAwnEFBa0IhAwHACAaUFjQgEDCcQUFrQiEDAcAIBpQWNCAQMJxBQWtCIQMBwAgGlBY0IBAwnEFBa0IhAwHACAaUFjQgEDCcQUFrQiEDAcAIBpQWNCAQMJxBQWtCIQMBwAgGlBY0IBAwnEFBa0IhAwHACAaUFjQgEDCcQUFrQiEDAcAIBpQWNCAQMJxBQWtCIQMBwAgGlBY0IBAwnEFDaCSLz+fm7tu0+Pz7+ezXU0wkENCkQUNqRI8s3Vu3a9uvyaZZ/PHwoJAIBwwkElHbEyCqOl6cZColAwHACAaUdKbIOx5BIBAKGEwgo7QiRbTiGQiIQMJxAQGkDR/rgGAKJQMBwAgGlDRjZB8ehSAQChhMIKG2gCMHx8tTNbPbPYnF/t8+lCGSftp4fKxBQ2gCRg3DAt8UTCBhOIKC0AyNj4FheskDAcAIBpR0QGQuHQOBoAoHFgdiYOAQCBnsq7ezjdVfK501x3+UWFvsmNjYOgcAdBQKL2yNWAw6B7DHY6kMFAovrGasFh0B6Dvb2YQKBxfWI1YRDID0GW/cQgcDidsRqwyEQuLNAYHFbYjXiEAjcWSCwuA2xWnEIBO4sEFjcmljNOAQCdxYILO5NrHYcAoE7CwQWtxKLgEMgcGeBwOKeY1FwCATuXBOQs7O/v8xmzc1icf8THueksUg4BAJvjVqA/PX+w9fSNBellJ/P/xioaiTRcAgkMJAVHC+nqBpJRBwCCQpkDY6qkUTFIZCAQLbgqBJJZBwCCQakB46qkETHIZBAQPbAUQWSKeAQSBAgu/5wwJZjjPKF+0E4wJ/mgTP2iu3qvinlZvH4cN3rgx35Qc2RP37vD3/qb/Mu/6x/advLbf/MtxYkU8LhK0hvEq8feGogT0MFQDI1HAIJBKR2JFPEIZBgQGpFMlUcAgkIpDYkU8YhkKBAakEydRwCCQxkbCQZcAgkOJCxkGTBIZAJADk1kkw4BDIRIKdCkg2HQCYE5NhIdv3KxbYqyTs7wWkGj+06t79qsqbyMX6S3nf5Y/zEfddNMlUcvoL0vevePK5mIEO/kmTGIZCJAhkKSfn166Jrmi+kpsifVq2ed9f/IPwUK9inWK/GPfAXHEsp7zLj8BWErB/sHaYO/Jpk74am8srxcnBfQfa+BeK9BdupkEwNh68gAMdTaQHfo/DYSKaIQyCJgAzwhfvGtqaKQyDJgBwDyZRxCCQhkCGRTB2HQJIC+fMdmh1fS22rJwMOgSQH0ucbDusqyoJDIAJ5amDXd+VWa8qEQyAC+dNAHyTZcAhEIK8a2IYkIw6BCOR/DaxDkhWHQASytoFVJJlxCEQgGxtYIimz2d1icX8Ha5pEzF9WBDPu+oK26bqrxY/vt+BDG6msAYGAQQQCSgsaEQgYTiCgtKARgYDhBAJKCxoRCBhOIKC0oBGBgOEEAkoLGhEIGE4goLSgEYGA4QQCSgsaEQgYTiCgtKARgYDhBAJKCxoRCBhOIKC0oBGBgOEEAkoLGhEIGE4goLSgEYGA4QQCSgsaEQgYTiCgtKARgYDhBAJKCxoRCBhOIKC0oBGBgOEEAkoLGhEIGE4goLSgEYGA4QQCSgsaEQgYTiCgtKARgYDhBAJKCxoRCBhOIKC0oBGBgOEEAkoLGhEIGE4goLSgEYGA4QQCSgsaEQgYTiCgtKARgYDhdgHpSnM769pv4EMbqayBtpl9akp3uemymlJuFo8P1zVcdlPDRSyvYReQWq7T6zh+AwJZ07FAjn/jRXkGgQgkyr06ynUKRCCj3HhRnlQgAolyr45ynQIRyCg3XpQnFYhAotyro1ynQNYBmZ9flLa9GGURn7SuBip6H8dqfg5S10JejQ38bkAg3gk2sKUBgXh72IBAvAdsgDXgKwjrzVSSBgSSZGiPyRoQCOvNVJIGBJJkaI/JGhAI681UkgYEkmRoj8kaEAjrzVSSBgSSZGiPyRoQCOvNVJIGBJJkaI/JGhAI681UkgYEkmRoj8kaEAjrzVSSBgSSZGiPyRoQCOvNVJIGBJJkaI/JGhAI681UkgYEkmRoj8kaEAjrzVSSBgSSZGiPyRoQCOvNVJIGBJJkaI/JGhAI681UkgYEkmRoj8kaEAjrzVSSBgSSZGiPyRoQCOvNVJIGBJJkaI/JGhAI681UkgYEkmRoj8ka+A94Z15Q9DZVigAAAABJRU5ErkJggg==;" vertex="1" parent="1">
          <mxGeometry x="413" y="575" width="20" height="20" as="geometry" />
        </mxCell>
      </root>
    </mxGraphModel>
  </diagram>
  <diagram id="2p7tE6zH2btx6wOQENbS" name="第 4 页">
    <mxGraphModel dx="1020" dy="496" grid="0" gridSize="10" guides="1" tooltips="1" connect="1" arrows="1" fold="1" page="1" pageScale="1" pageWidth="1200" pageHeight="1920" math="0" shadow="0">
      <root>
        <mxCell id="0" />
        <mxCell id="1" parent="0" />
        <mxCell id="JbfWvrzCSoDFf9l_nG_D-1" style="edgeStyle=orthogonalEdgeStyle;rounded=0;orthogonalLoop=1;jettySize=auto;html=1;exitX=1;exitY=0.5;exitDx=0;exitDy=0;entryX=0;entryY=0.5;entryDx=0;entryDy=0;strokeColor=#00AB7A;strokeWidth=2;" edge="1" parent="1" source="JbfWvrzCSoDFf9l_nG_D-3" target="JbfWvrzCSoDFf9l_nG_D-4">
          <mxGeometry relative="1" as="geometry" />
        </mxCell>
        <mxCell id="JbfWvrzCSoDFf9l_nG_D-3" value="通报预警" style="rounded=0;whiteSpace=wrap;html=1;fillColor=#00ab7a;fontColor=#ffffff;strokeColor=#2D7600;" vertex="1" parent="1">
          <mxGeometry x="62" y="194" width="120" height="60" as="geometry" />
        </mxCell>
        <mxCell id="JbfWvrzCSoDFf9l_nG_D-4" value="规范性" style="rounded=0;whiteSpace=wrap;html=1;fillColor=#647687;fontColor=#ffffff;strokeColor=#314354;" vertex="1" parent="1">
          <mxGeometry x="237" y="204" width="182" height="40" as="geometry" />
        </mxCell>
        <mxCell id="JbfWvrzCSoDFf9l_nG_D-6" value="" style="group;fillColor=#eeeeee;strokeColor=#36393d;" vertex="1" connectable="0" parent="1">
          <mxGeometry x="437" y="110" width="332" height="249" as="geometry" />
        </mxCell>
        <mxCell id="JbfWvrzCSoDFf9l_nG_D-7" value="" style="rounded=0;whiteSpace=wrap;html=1;fillColor=#eeeeee;strokeColor=#36393d;" vertex="1" parent="JbfWvrzCSoDFf9l_nG_D-6">
          <mxGeometry width="332" height="249.00000000000003" as="geometry" />
        </mxCell>
        <mxCell id="JbfWvrzCSoDFf9l_nG_D-8" value="简要说明：" style="text;html=1;strokeColor=none;fillColor=none;align=left;verticalAlign=middle;whiteSpace=wrap;rounded=0;" vertex="1" parent="JbfWvrzCSoDFf9l_nG_D-6">
          <mxGeometry x="14" y="127" width="68" height="35.17" as="geometry" />
        </mxCell>
        <mxCell id="JbfWvrzCSoDFf9l_nG_D-10" value="" style="rounded=0;whiteSpace=wrap;html=1;" vertex="1" parent="JbfWvrzCSoDFf9l_nG_D-6">
          <mxGeometry x="14" y="162.17000000000002" width="314" height="75.16981132075472" as="geometry" />
        </mxCell>
        <mxCell id="JbfWvrzCSoDFf9l_nG_D-9" value="上传附件：" style="text;html=1;strokeColor=none;fillColor=none;align=left;verticalAlign=middle;whiteSpace=wrap;rounded=0;" vertex="1" parent="JbfWvrzCSoDFf9l_nG_D-6">
          <mxGeometry x="17" y="17" width="73" height="30.43" as="geometry" />
        </mxCell>
        <mxCell id="wnKlX-0--VlYyvjO11Hy-1" value="" style="shape=image;verticalLabelPosition=bottom;labelBackgroundColor=default;verticalAlign=top;aspect=fixed;imageAspect=0;image=data:image/png,iVBORw0KGgoAAAANSUhEUgAAAMgAAADICAYAAACtWK6eAAAAAXNSR0IArs4c6QAAB0hJREFUeF7t2W1y03YAhPHI5CBwg0zs74WTFE4CnKT0JOUAdoYbNAcB1HEnnTKdvqC/vbG2+eWztFo962dkOdOVPwQQ+EcCEzYIIPDPBAji04HAvxAgiI8HAgTxGUBgjIAnyBg3Zz0RAgR5IkO7zTECBBnj5qwnQoAgT2RotzlGgCBj3Jz1RAgQ5IkM7TbHCBBkjJuzngiBmCA3NzfPr6+vn19dXb18Iizd5iMT+Pr16/3xkpvN5n6/339MXP7sgux2u3fzPP94dXV1lMMfAo9F4H6app/3+/27c17wbILsdruX8zz/RIxzziNrgMBZRTmLIA9PjbcDN+MUBCIEpml6f46nycmCbLfbX7xnRDYWejqBD4fD4c0pMScJ4slxCnrnPgaBU58kw4I8vHMcnx7+EFg1gWmaXo3+yjUsyHa7/dUL+ao/F8r9SeD+cDi8GAEyJMjt7e3raZqOv1j5Q6CCwDzPb+7u7j4sLTskiKfHUsyOXwGBoafIqCDzCm5YBQQWERh5F1ksiK9XizZx8IoIEGRFY6iyPgIjP/kufoKM/O/jcDgsvs768Gq0NgLb7XbRV32CrG1BfaIECBLFK7ydAEHaF9Q/SoAgUbzC2wkQpH1B/aMECBLFK7ydAEHaF9Q/SoAgUbzC2wkQpH1B/aMECBLFK7ydAEHaF9Q/SoAgUbzC2wkQpH1B/aMECBLFK7ydAEHaF9Q/SoAgUbzC2wkQpH1B/aMECBLFK7ydAEHaF9Q/SoAgUbzC2wkQpH1B/aMECBLFK7ydAEHaF9Q/SoAgUbzC2wkQpH1B/aMECBLFK7ydAEHaF9Q/SoAgUbzC2wkQpH1B/aMECBLFK7ydAEHaF9Q/SoAgUbzC2wkQpH1B/aMECBLFK7ydAEHaF9Q/SoAgUbzC2wkQpH1B/aMECBLFK7ydAEHaF9Q/SoAgUbzC2wkQpH1B/aMECBLFK7ydAEHaF9Q/SoAgUbzC2wkQpH1B/aMECBLFK7ydAEHaF9Q/SoAgUbzC2wkQpH1B/aMECBLFK7ydAEHaF9Q/SoAgUbzC2wkQpH1B/aMECBLFK7ydAEHaF9Q/SoAgUbzC2wkQpH1B/aMECBLFK7ydAEHaF9Q/SoAgUbzC2wkQpH1B/aMECBLFK7ydAEHaF9Q/SoAgUbzC2wkQpH1B/aMECBLFK7ydAEHaF9Q/SoAgUbzC2wkQpH1B/aMECBLFK7ydAEHaF9Q/SoAgUbzC2wkQpH1B/aMECBLFK7ydAEHaF9Q/SoAgUbzC2wkQpH1B/aMECBLFK7ydAEHaF9Q/SoAgUbzC2wkQpH1B/aMECBLFK7ydAEHaF9Q/SoAgUbzC2wkQpH1B/aMECBLFK7ydAEHaF9Q/SoAgUbzC2wkQpH1B/aMECBLFK7ydAEHaF9Q/SoAgUbzC2wkQpH1B/aMECBLFK7ydAEHaF9Q/SoAgUbzC2wkQpH1B/aMECBLFK7ydAEHaF9Q/SoAgUbzC2wkQpH1B/aMECBLFK7ydAEHaF9Q/SoAgUbzC2wkQpH1B/aMECBLFK7ydAEHaF9Q/SoAgUbzC2wkQpH1B/aMECBLFK7ydAEHaF9Q/SoAgUbzC2wkQpH1B/aMECBLFK7ydAEHaF9Q/SoAgUbzC2wkQpH1B/aMECBLFK7ydAEHaF9Q/SoAgUbzC2wkQpH1B/aMECBLFK7ydAEHaF9Q/SoAgUbzC2wkQpH1B/aMECBLFK7ydAEHaF9Q/SoAgUbzC2wkQpH1B/aMECBLFK7ydAEHaF9Q/SoAgUbzC2wkQpH1B/aMECBLFK7ydAEHaF9Q/SoAgUbzC2wkQpH1B/aMECBLFK7ydAEHaF9Q/SoAgUbzC2wkQpH1B/aMECBLFK7ydAEHaF9Q/SoAgUbzC2wkQpH1B/aMECBLFK7ydAEHaF9Q/SoAgUbzC2wkQpH1B/aME/jeCRCkJR+A7Cczz/Obu7u7Ddx7++2HTkoOPx+52u5fzPP+y9DzHI3BpAo8iyM3NzfNnz579eumbdX0ElhL48uXLi0+fPt0vOW/xE+QYvt1uj0+Ql0su5FgELkzg4+FweLW0w5Agt7e3r6dp+mnpxRyPwKUIjHy9GnoHOZ708DXrKIinyKUWd90lBO4Ph8OLJSf8cezQE8TL+ghq51yKwDRNr/b7/ceR6w8L8iDJu3me345c2DkIPAaBaZre7/f7d6PXOkkQkoxid94jERh6Mf+228mCkOSRpnaZRQROfXKc/A7y17YPv2wdv249X3QnDkbgvATup2l6M/rO8dcqZ3mC/BF6/HXr+vr69TzPP/iF67yrS/tPAkcxfj7lfePvrnBWQb69wFGWzWbz+8/Am83GU+U/93XAIIGPnz9/vl/6H/LvvVZMkO8t4DgE1kyAIGteR7eLEyDIxSdQYM0ECLLmdXS7OAGCXHwCBdZMgCBrXke3ixMgyMUnUGDNBAiy5nV0uzgBglx8AgXWTIAga15Ht4sTIMjFJ1BgzQQIsuZ1dLs4gd8AVTnKMgr30rsAAAAASUVORK5CYII=;" vertex="1" parent="1">
          <mxGeometry x="291" y="216" width="16" height="16" as="geometry" />
        </mxCell>
      </root>
    </mxGraphModel>
  </diagram>
  <diagram id="mQQdd37KCG1ggDGPq0LU" name="第 5 页">
    <mxGraphModel dx="1020" dy="496" grid="0" gridSize="10" guides="1" tooltips="1" connect="1" arrows="1" fold="1" page="1" pageScale="1" pageWidth="1200" pageHeight="1920" math="0" shadow="0">
      <root>
        <mxCell id="0" />
        <mxCell id="1" parent="0" />
        <mxCell id="YhT68nm2lyjtiluxuVeR-1" style="edgeStyle=orthogonalEdgeStyle;rounded=0;orthogonalLoop=1;jettySize=auto;html=1;exitX=1;exitY=0.5;exitDx=0;exitDy=0;entryX=0;entryY=0.5;entryDx=0;entryDy=0;strokeColor=#00AB7A;strokeWidth=2;" edge="1" parent="1" source="YhT68nm2lyjtiluxuVeR-3" target="YhT68nm2lyjtiluxuVeR-4">
          <mxGeometry relative="1" as="geometry" />
        </mxCell>
        <mxCell id="YhT68nm2lyjtiluxuVeR-2" style="edgeStyle=orthogonalEdgeStyle;rounded=0;orthogonalLoop=1;jettySize=auto;html=1;exitX=1;exitY=0.5;exitDx=0;exitDy=0;entryX=0;entryY=0.5;entryDx=0;entryDy=0;strokeColor=#00AB7A;strokeWidth=2;" edge="1" parent="1" source="YhT68nm2lyjtiluxuVeR-3" target="YhT68nm2lyjtiluxuVeR-5">
          <mxGeometry relative="1" as="geometry" />
        </mxCell>
        <mxCell id="YhT68nm2lyjtiluxuVeR-3" value="排查整改" style="rounded=0;whiteSpace=wrap;html=1;fillColor=#00ab7a;fontColor=#ffffff;strokeColor=#2D7600;" vertex="1" parent="1">
          <mxGeometry x="74" y="250" width="120" height="60" as="geometry" />
        </mxCell>
        <mxCell id="YhT68nm2lyjtiluxuVeR-4" value="整改加固" style="rounded=0;whiteSpace=wrap;html=1;fillColor=#647687;fontColor=#ffffff;strokeColor=#314354;" vertex="1" parent="1">
          <mxGeometry x="244" y="189" width="120" height="40" as="geometry" />
        </mxCell>
        <mxCell id="YhT68nm2lyjtiluxuVeR-5" value="全面排查整改" style="rounded=0;whiteSpace=wrap;html=1;fillColor=#647687;fontColor=#ffffff;strokeColor=#314354;" vertex="1" parent="1">
          <mxGeometry x="244" y="353" width="120" height="40" as="geometry" />
        </mxCell>
        <mxCell id="YhT68nm2lyjtiluxuVeR-6" value="" style="group" vertex="1" connectable="0" parent="1">
          <mxGeometry x="378" y="316" width="499" height="121" as="geometry" />
        </mxCell>
        <mxCell id="YhT68nm2lyjtiluxuVeR-7" value="" style="rounded=0;whiteSpace=wrap;html=1;fillColor=#eeeeee;strokeColor=#36393d;" vertex="1" parent="YhT68nm2lyjtiluxuVeR-6">
          <mxGeometry y="3.46" width="416" height="117.54" as="geometry" />
        </mxCell>
        <mxCell id="YhT68nm2lyjtiluxuVeR-8" value="&lt;div&gt;在大范围内开展排查整改，&lt;span style=&quot;background-color: initial;&quot;&gt;提交详细整改排查方案&lt;/span&gt;&lt;/div&gt;" style="text;html=1;strokeColor=none;fillColor=none;align=left;verticalAlign=middle;whiteSpace=wrap;rounded=0;" vertex="1" parent="YhT68nm2lyjtiluxuVeR-6">
          <mxGeometry x="33" width="297" height="65.69" as="geometry" />
        </mxCell>
        <mxCell id="YhT68nm2lyjtiluxuVeR-9" value="提交正式通知" style="text;html=1;strokeColor=none;fillColor=none;align=left;verticalAlign=middle;whiteSpace=wrap;rounded=0;" vertex="1" parent="YhT68nm2lyjtiluxuVeR-6">
          <mxGeometry x="33" y="50" width="291" height="34.57" as="geometry" />
        </mxCell>
        <mxCell id="YhT68nm2lyjtiluxuVeR-15" value="提交排查整改成果成效" style="text;html=1;strokeColor=none;fillColor=none;align=left;verticalAlign=middle;whiteSpace=wrap;rounded=0;" vertex="1" parent="YhT68nm2lyjtiluxuVeR-6">
          <mxGeometry x="33" y="83" width="242" height="34.57" as="geometry" />
        </mxCell>
        <mxCell id="AyHNqSgMIkRmnR5VlhFU-8" value="" style="shape=image;verticalLabelPosition=bottom;labelBackgroundColor=default;verticalAlign=top;aspect=fixed;imageAspect=0;image=data:image/png,iVBORw0KGgoAAAANSUhEUgAAAMgAAADICAYAAACtWK6eAAAAAXNSR0IArs4c6QAACGdJREFUeF7t3UtW21gUheErjySdUJ5AUvRCzQRGEhhJmElIjyIT8CKdTCRSLRPIMpQf8m/Zukfnr7Y31t1bX5lXcFP8zwZsYGMDjd3YgA1sbkAg3h02sKUBgXh72IBAvAdsgDXgKwjrzVSSBgSSZGiPyRoQCOvNVJIGBJJkaI/JGhAI681UkgYEkmRoj8kaEAjrzVSSBgSSZGiPyRoQCOvNVJIGBJJkaI/JGhAI681UkgYEkmRoj8kaEAjrzVSSBgSSZGiPyRoQCOvNVJIGBJJkaI/JGhAI681UkgYEkmRoj8kaEAjrzVSSBgSSZGiPyRoQCOvNVJIGBJJkaI/JGhAI681UkgYEkmRoj8kaEAjrzVSSBgSSZGiPyRoQCOvNVJIGBJJkaI/JGhAI681UkgaqATKfn1+Utr1I0rvH3NbAbHa3WNzf1VBSPUDOPl53pXyuoRSvYdwGmlJuFo8P1+Nexe9nF0gNK3gNrxoQyJobYu4riEyeGxCIQMSwpQGBCEQgAtnvHvBTrP36mvKjfQXxFWTK9/fBZxMIANKV5nbWtd8Obt8PMHoDbTP71JTuctOFCAQAabruavHj++3o63oBBzcwf//hsmuaLwLZo8pdX4MIZI8yK3+oQMBAAgGlBY0IBAwnEFBa0IhAwHACAaUFjQgEDCcQUFrQiEDAcAIBpQWNCAQMJxBQWtCIQMBwAgGlBY0IBAwnEFBa0IhAwHACAaUFjQgEDCcQUFrQiEDAcAIBpQWNCAQMJxBQWtCIQMBwAgGlBY0IBAwnEFBa0IhAwHACAaUFjQgEDCcQUFrQiEDAcAIBpQWNCAQMJxBQWtCIQMBwAgGlBY0IBAwnEFBa0IhAwHACAaUFjQgEDCcQUFrQiEDAcAIBpQWNCAQMJxBQWtCIQMBwAgGlBY0IBAwnEFDaCSLz+fm7tu0+Pz7+ezXU0wkENCkQUNqRI8s3Vu3a9uvyaZZ/PHwoJAIBwwkElHbEyCqOl6cZColAwHACAaUdKbIOx5BIBAKGEwgo7QiRbTiGQiIQMJxAQGkDR/rgGAKJQMBwAgGlDRjZB8ehSAQChhMIKG2gCMHx8tTNbPbPYnF/t8+lCGSftp4fKxBQ2gCRg3DAt8UTCBhOIKC0AyNj4FheskDAcAIBpR0QGQuHQOBoAoHFgdiYOAQCBnsq7ezjdVfK501x3+UWFvsmNjYOgcAdBQKL2yNWAw6B7DHY6kMFAovrGasFh0B6Dvb2YQKBxfWI1YRDID0GW/cQgcDidsRqwyEQuLNAYHFbYjXiEAjcWSCwuA2xWnEIBO4sEFjcmljNOAQCdxYILO5NrHYcAoE7CwQWtxKLgEMgcGeBwOKeY1FwCATuXBOQs7O/v8xmzc1icf8THueksUg4BAJvjVqA/PX+w9fSNBellJ/P/xioaiTRcAgkMJAVHC+nqBpJRBwCCQpkDY6qkUTFIZCAQLbgqBJJZBwCCQakB46qkETHIZBAQPbAUQWSKeAQSBAgu/5wwJZjjPKF+0E4wJ/mgTP2iu3qvinlZvH4cN3rgx35Qc2RP37vD3/qb/Mu/6x/advLbf/MtxYkU8LhK0hvEq8feGogT0MFQDI1HAIJBKR2JFPEIZBgQGpFMlUcAgkIpDYkU8YhkKBAakEydRwCCQxkbCQZcAgkOJCxkGTBIZAJADk1kkw4BDIRIKdCkg2HQCYE5NhIdv3KxbYqyTs7wWkGj+06t79qsqbyMX6S3nf5Y/zEfddNMlUcvoL0vevePK5mIEO/kmTGIZCJAhkKSfn166Jrmi+kpsifVq2ed9f/IPwUK9inWK/GPfAXHEsp7zLj8BWErB/sHaYO/Jpk74am8srxcnBfQfa+BeK9BdupkEwNh68gAMdTaQHfo/DYSKaIQyCJgAzwhfvGtqaKQyDJgBwDyZRxCCQhkCGRTB2HQJIC+fMdmh1fS22rJwMOgSQH0ucbDusqyoJDIAJ5amDXd+VWa8qEQyAC+dNAHyTZcAhEIK8a2IYkIw6BCOR/DaxDkhWHQASytoFVJJlxCEQgGxtYIimz2d1icX8Ha5pEzF9WBDPu+oK26bqrxY/vt+BDG6msAYGAQQQCSgsaEQgYTiCgtKARgYDhBAJKCxoRCBhOIKC0oBGBgOEEAkoLGhEIGE4goLSgEYGA4QQCSgsaEQgYTiCgtKARgYDhBAJKCxoRCBhOIKC0oBGBgOEEAkoLGhEIGE4goLSgEYGA4QQCSgsaEQgYTiCgtKARgYDhBAJKCxoRCBhOIKC0oBGBgOEEAkoLGhEIGE4goLSgEYGA4QQCSgsaEQgYTiCgtKARgYDhBAJKCxoRCBhOIKC0oBGBgOEEAkoLGhEIGE4goLSgEYGA4QQCSgsaEQgYTiCgtKARgYDhdgHpSnM769pv4EMbqayBtpl9akp3uemymlJuFo8P1zVcdlPDRSyvYReQWq7T6zh+AwJZ07FAjn/jRXkGgQgkyr06ynUKRCCj3HhRnlQgAolyr45ynQIRyCg3XpQnFYhAotyro1ynQNYBmZ9flLa9GGURn7SuBip6H8dqfg5S10JejQ38bkAg3gk2sKUBgXh72IBAvAdsgDXgKwjrzVSSBgSSZGiPyRoQCOvNVJIGBJJkaI/JGhAI681UkgYEkmRoj8kaEAjrzVSSBgSSZGiPyRoQCOvNVJIGBJJkaI/JGhAI681UkgYEkmRoj8kaEAjrzVSSBgSSZGiPyRoQCOvNVJIGBJJkaI/JGhAI681UkgYEkmRoj8kaEAjrzVSSBgSSZGiPyRoQCOvNVJIGBJJkaI/JGhAI681UkgYEkmRoj8kaEAjrzVSSBgSSZGiPyRoQCOvNVJIGBJJkaI/JGhAI681UkgYEkmRoj8ka+A94Z15Q9DZVigAAAABJRU5ErkJggg==;" vertex="1" parent="YhT68nm2lyjtiluxuVeR-6">
          <mxGeometry x="16" y="23" width="20" height="20" as="geometry" />
        </mxCell>
        <mxCell id="AyHNqSgMIkRmnR5VlhFU-10" value="" style="shape=image;verticalLabelPosition=bottom;labelBackgroundColor=default;verticalAlign=top;aspect=fixed;imageAspect=0;image=data:image/png,iVBORw0KGgoAAAANSUhEUgAAAMgAAADICAYAAACtWK6eAAAAAXNSR0IArs4c6QAACGdJREFUeF7t3UtW21gUheErjySdUJ5AUvRCzQRGEhhJmElIjyIT8CKdTCRSLRPIMpQf8m/Zukfnr7Y31t1bX5lXcFP8zwZsYGMDjd3YgA1sbkAg3h02sKUBgXh72IBAvAdsgDXgKwjrzVSSBgSSZGiPyRoQCOvNVJIGBJJkaI/JGhAI681UkgYEkmRoj8kaEAjrzVSSBgSSZGiPyRoQCOvNVJIGBJJkaI/JGhAI681UkgYEkmRoj8kaEAjrzVSSBgSSZGiPyRoQCOvNVJIGBJJkaI/JGhAI681UkgYEkmRoj8kaEAjrzVSSBgSSZGiPyRoQCOvNVJIGBJJkaI/JGhAI681UkgYEkmRoj8kaEAjrzVSSBgSSZGiPyRoQCOvNVJIGBJJkaI/JGhAI681UkgaqATKfn1+Utr1I0rvH3NbAbHa3WNzf1VBSPUDOPl53pXyuoRSvYdwGmlJuFo8P1+Nexe9nF0gNK3gNrxoQyJobYu4riEyeGxCIQMSwpQGBCEQgAtnvHvBTrP36mvKjfQXxFWTK9/fBZxMIANKV5nbWtd8Obt8PMHoDbTP71JTuctOFCAQAabruavHj++3o63oBBzcwf//hsmuaLwLZo8pdX4MIZI8yK3+oQMBAAgGlBY0IBAwnEFBa0IhAwHACAaUFjQgEDCcQUFrQiEDAcAIBpQWNCAQMJxBQWtCIQMBwAgGlBY0IBAwnEFBa0IhAwHACAaUFjQgEDCcQUFrQiEDAcAIBpQWNCAQMJxBQWtCIQMBwAgGlBY0IBAwnEFBa0IhAwHACAaUFjQgEDCcQUFrQiEDAcAIBpQWNCAQMJxBQWtCIQMBwAgGlBY0IBAwnEFBa0IhAwHACAaUFjQgEDCcQUFrQiEDAcAIBpQWNCAQMJxBQWtCIQMBwAgGlBY0IBAwnEFDaCSLz+fm7tu0+Pz7+ezXU0wkENCkQUNqRI8s3Vu3a9uvyaZZ/PHwoJAIBwwkElHbEyCqOl6cZColAwHACAaUdKbIOx5BIBAKGEwgo7QiRbTiGQiIQMJxAQGkDR/rgGAKJQMBwAgGlDRjZB8ehSAQChhMIKG2gCMHx8tTNbPbPYnF/t8+lCGSftp4fKxBQ2gCRg3DAt8UTCBhOIKC0AyNj4FheskDAcAIBpR0QGQuHQOBoAoHFgdiYOAQCBnsq7ezjdVfK501x3+UWFvsmNjYOgcAdBQKL2yNWAw6B7DHY6kMFAovrGasFh0B6Dvb2YQKBxfWI1YRDID0GW/cQgcDidsRqwyEQuLNAYHFbYjXiEAjcWSCwuA2xWnEIBO4sEFjcmljNOAQCdxYILO5NrHYcAoE7CwQWtxKLgEMgcGeBwOKeY1FwCATuXBOQs7O/v8xmzc1icf8THueksUg4BAJvjVqA/PX+w9fSNBellJ/P/xioaiTRcAgkMJAVHC+nqBpJRBwCCQpkDY6qkUTFIZCAQLbgqBJJZBwCCQakB46qkETHIZBAQPbAUQWSKeAQSBAgu/5wwJZjjPKF+0E4wJ/mgTP2iu3qvinlZvH4cN3rgx35Qc2RP37vD3/qb/Mu/6x/advLbf/MtxYkU8LhK0hvEq8feGogT0MFQDI1HAIJBKR2JFPEIZBgQGpFMlUcAgkIpDYkU8YhkKBAakEydRwCCQxkbCQZcAgkOJCxkGTBIZAJADk1kkw4BDIRIKdCkg2HQCYE5NhIdv3KxbYqyTs7wWkGj+06t79qsqbyMX6S3nf5Y/zEfddNMlUcvoL0vevePK5mIEO/kmTGIZCJAhkKSfn166Jrmi+kpsifVq2ed9f/IPwUK9inWK/GPfAXHEsp7zLj8BWErB/sHaYO/Jpk74am8srxcnBfQfa+BeK9BdupkEwNh68gAMdTaQHfo/DYSKaIQyCJgAzwhfvGtqaKQyDJgBwDyZRxCCQhkCGRTB2HQJIC+fMdmh1fS22rJwMOgSQH0ucbDusqyoJDIAJ5amDXd+VWa8qEQyAC+dNAHyTZcAhEIK8a2IYkIw6BCOR/DaxDkhWHQASytoFVJJlxCEQgGxtYIimz2d1icX8Ha5pEzF9WBDPu+oK26bqrxY/vt+BDG6msAYGAQQQCSgsaEQgYTiCgtKARgYDhBAJKCxoRCBhOIKC0oBGBgOEEAkoLGhEIGE4goLSgEYGA4QQCSgsaEQgYTiCgtKARgYDhBAJKCxoRCBhOIKC0oBGBgOEEAkoLGhEIGE4goLSgEYGA4QQCSgsaEQgYTiCgtKARgYDhBAJKCxoRCBhOIKC0oBGBgOEEAkoLGhEIGE4goLSgEYGA4QQCSgsaEQgYTiCgtKARgYDhBAJKCxoRCBhOIKC0oBGBgOEEAkoLGhEIGE4goLSgEYGA4QQCSgsaEQgYTiCgtKARgYDhdgHpSnM769pv4EMbqayBtpl9akp3uemymlJuFo8P1zVcdlPDRSyvYReQWq7T6zh+AwJZ07FAjn/jRXkGgQgkyr06ynUKRCCj3HhRnlQgAolyr45ynQIRyCg3XpQnFYhAotyro1ynQNYBmZ9flLa9GGURn7SuBip6H8dqfg5S10JejQ38bkAg3gk2sKUBgXh72IBAvAdsgDXgKwjrzVSSBgSSZGiPyRoQCOvNVJIGBJJkaI/JGhAI681UkgYEkmRoj8kaEAjrzVSSBgSSZGiPyRoQCOvNVJIGBJJkaI/JGhAI681UkgYEkmRoj8kaEAjrzVSSBgSSZGiPyRoQCOvNVJIGBJJkaI/JGhAI681UkgYEkmRoj8kaEAjrzVSSBgSSZGiPyRoQCOvNVJIGBJJkaI/JGhAI681UkgYEkmRoj8kaEAjrzVSSBgSSZGiPyRoQCOvNVJIGBJJkaI/JGhAI681UkgYEkmRoj8ka+A94Z15Q9DZVigAAAABJRU5ErkJggg==;" vertex="1" parent="YhT68nm2lyjtiluxuVeR-6">
          <mxGeometry x="6" y="90" width="20" height="20" as="geometry" />
        </mxCell>
        <mxCell id="AyHNqSgMIkRmnR5VlhFU-11" value="" style="shape=image;verticalLabelPosition=bottom;labelBackgroundColor=default;verticalAlign=top;aspect=fixed;imageAspect=0;image=data:image/png,iVBORw0KGgoAAAANSUhEUgAAAMgAAADICAYAAACtWK6eAAAAAXNSR0IArs4c6QAAB0hJREFUeF7t2W1y03YAhPHI5CBwg0zs74WTFE4CnKT0JOUAdoYbNAcB1HEnnTKdvqC/vbG2+eWztFo962dkOdOVPwQQ+EcCEzYIIPDPBAji04HAvxAgiI8HAgTxGUBgjIAnyBg3Zz0RAgR5IkO7zTECBBnj5qwnQoAgT2RotzlGgCBj3Jz1RAgQ5IkM7TbHCBBkjJuzngiBmCA3NzfPr6+vn19dXb18Iizd5iMT+Pr16/3xkpvN5n6/339MXP7sgux2u3fzPP94dXV1lMMfAo9F4H6app/3+/27c17wbILsdruX8zz/RIxzziNrgMBZRTmLIA9PjbcDN+MUBCIEpml6f46nycmCbLfbX7xnRDYWejqBD4fD4c0pMScJ4slxCnrnPgaBU58kw4I8vHMcnx7+EFg1gWmaXo3+yjUsyHa7/dUL+ao/F8r9SeD+cDi8GAEyJMjt7e3raZqOv1j5Q6CCwDzPb+7u7j4sLTskiKfHUsyOXwGBoafIqCDzCm5YBQQWERh5F1ksiK9XizZx8IoIEGRFY6iyPgIjP/kufoKM/O/jcDgsvs768Gq0NgLb7XbRV32CrG1BfaIECBLFK7ydAEHaF9Q/SoAgUbzC2wkQpH1B/aMECBLFK7ydAEHaF9Q/SoAgUbzC2wkQpH1B/aMECBLFK7ydAEHaF9Q/SoAgUbzC2wkQpH1B/aMECBLFK7ydAEHaF9Q/SoAgUbzC2wkQpH1B/aMECBLFK7ydAEHaF9Q/SoAgUbzC2wkQpH1B/aMECBLFK7ydAEHaF9Q/SoAgUbzC2wkQpH1B/aMECBLFK7ydAEHaF9Q/SoAgUbzC2wkQpH1B/aMECBLFK7ydAEHaF9Q/SoAgUbzC2wkQpH1B/aMECBLFK7ydAEHaF9Q/SoAgUbzC2wkQpH1B/aMECBLFK7ydAEHaF9Q/SoAgUbzC2wkQpH1B/aMECBLFK7ydAEHaF9Q/SoAgUbzC2wkQpH1B/aMECBLFK7ydAEHaF9Q/SoAgUbzC2wkQpH1B/aMECBLFK7ydAEHaF9Q/SoAgUbzC2wkQpH1B/aMECBLFK7ydAEHaF9Q/SoAgUbzC2wkQpH1B/aMECBLFK7ydAEHaF9Q/SoAgUbzC2wkQpH1B/aMECBLFK7ydAEHaF9Q/SoAgUbzC2wkQpH1B/aMECBLFK7ydAEHaF9Q/SoAgUbzC2wkQpH1B/aMECBLFK7ydAEHaF9Q/SoAgUbzC2wkQpH1B/aMECBLFK7ydAEHaF9Q/SoAgUbzC2wkQpH1B/aMECBLFK7ydAEHaF9Q/SoAgUbzC2wkQpH1B/aMECBLFK7ydAEHaF9Q/SoAgUbzC2wkQpH1B/aMECBLFK7ydAEHaF9Q/SoAgUbzC2wkQpH1B/aMECBLFK7ydAEHaF9Q/SoAgUbzC2wkQpH1B/aMECBLFK7ydAEHaF9Q/SoAgUbzC2wkQpH1B/aMECBLFK7ydAEHaF9Q/SoAgUbzC2wkQpH1B/aMECBLFK7ydAEHaF9Q/SoAgUbzC2wkQpH1B/aMECBLFK7ydAEHaF9Q/SoAgUbzC2wkQpH1B/aMECBLFK7ydAEHaF9Q/SoAgUbzC2wkQpH1B/aMECBLFK7ydAEHaF9Q/SoAgUbzC2wkQpH1B/aMECBLFK7ydAEHaF9Q/SoAgUbzC2wkQpH1B/aMECBLFK7ydAEHaF9Q/SoAgUbzC2wkQpH1B/aMECBLFK7ydAEHaF9Q/SoAgUbzC2wkQpH1B/aMECBLFK7ydAEHaF9Q/SoAgUbzC2wkQpH1B/aMECBLFK7ydAEHaF9Q/SoAgUbzC2wkQpH1B/aMECBLFK7ydAEHaF9Q/SoAgUbzC2wkQpH1B/aMECBLFK7ydAEHaF9Q/SoAgUbzC2wkQpH1B/aMECBLFK7ydAEHaF9Q/SoAgUbzC2wkQpH1B/aME/jeCRCkJR+A7Cczz/Obu7u7Ddx7++2HTkoOPx+52u5fzPP+y9DzHI3BpAo8iyM3NzfNnz579eumbdX0ElhL48uXLi0+fPt0vOW/xE+QYvt1uj0+Ql0su5FgELkzg4+FweLW0w5Agt7e3r6dp+mnpxRyPwKUIjHy9GnoHOZ708DXrKIinyKUWd90lBO4Ph8OLJSf8cezQE8TL+ghq51yKwDRNr/b7/ceR6w8L8iDJu3me345c2DkIPAaBaZre7/f7d6PXOkkQkoxid94jERh6Mf+228mCkOSRpnaZRQROfXKc/A7y17YPv2wdv249X3QnDkbgvATup2l6M/rO8dcqZ3mC/BF6/HXr+vr69TzPP/iF67yrS/tPAkcxfj7lfePvrnBWQb69wFGWzWbz+8/Am83GU+U/93XAIIGPnz9/vl/6H/LvvVZMkO8t4DgE1kyAIGteR7eLEyDIxSdQYM0ECLLmdXS7OAGCXHwCBdZMgCBrXke3ixMgyMUnUGDNBAiy5nV0uzgBglx8AgXWTIAga15Ht4sTIMjFJ1BgzQQIsuZ1dLs4gd8AVTnKMgr30rsAAAAASUVORK5CYII=;" vertex="1" parent="YhT68nm2lyjtiluxuVeR-6">
          <mxGeometry x="16" y="59" width="16" height="16" as="geometry" />
        </mxCell>
        <mxCell id="YhT68nm2lyjtiluxuVeR-10" value="" style="group;fillColor=#eeeeee;strokeColor=#36393d;" vertex="1" connectable="0" parent="1">
          <mxGeometry x="384" y="140" width="410" height="108" as="geometry" />
        </mxCell>
        <mxCell id="YhT68nm2lyjtiluxuVeR-11" value="" style="rounded=0;whiteSpace=wrap;html=1;fillColor=#eeeeee;strokeColor=#36393d;" vertex="1" parent="YhT68nm2lyjtiluxuVeR-10">
          <mxGeometry width="410" height="108" as="geometry" />
        </mxCell>
        <mxCell id="YhT68nm2lyjtiluxuVeR-12" value="确定该起事件涉及的资产范围、资产所属单位、运营单位等&lt;span style=&quot;background-color: initial;&quot;&gt;&lt;br&gt;&lt;/span&gt;" style="text;html=1;strokeColor=none;fillColor=none;align=left;verticalAlign=middle;whiteSpace=wrap;rounded=0;" vertex="1" parent="YhT68nm2lyjtiluxuVeR-10">
          <mxGeometry x="30" y="7" width="358" height="30" as="geometry" />
        </mxCell>
        <mxCell id="YhT68nm2lyjtiluxuVeR-13" value="提交整改措施，提供清除被攻击利用的问题隐患详细方案" style="text;html=1;strokeColor=none;fillColor=none;align=left;verticalAlign=middle;whiteSpace=wrap;rounded=0;" vertex="1" parent="YhT68nm2lyjtiluxuVeR-10">
          <mxGeometry x="30" y="40" width="346" height="30" as="geometry" />
        </mxCell>
        <mxCell id="YhT68nm2lyjtiluxuVeR-14" value="提交完善防护策略方案" style="text;html=1;strokeColor=none;fillColor=none;align=left;verticalAlign=middle;whiteSpace=wrap;rounded=0;" vertex="1" parent="YhT68nm2lyjtiluxuVeR-10">
          <mxGeometry x="30" y="75" width="346" height="30" as="geometry" />
        </mxCell>
        <mxCell id="AyHNqSgMIkRmnR5VlhFU-2" value="" style="shape=image;verticalLabelPosition=bottom;labelBackgroundColor=default;verticalAlign=top;aspect=fixed;imageAspect=0;image=data:image/png,iVBORw0KGgoAAAANSUhEUgAAAMgAAADICAYAAACtWK6eAAAAAXNSR0IArs4c6QAACGdJREFUeF7t3UtW21gUheErjySdUJ5AUvRCzQRGEhhJmElIjyIT8CKdTCRSLRPIMpQf8m/Zukfnr7Y31t1bX5lXcFP8zwZsYGMDjd3YgA1sbkAg3h02sKUBgXh72IBAvAdsgDXgKwjrzVSSBgSSZGiPyRoQCOvNVJIGBJJkaI/JGhAI681UkgYEkmRoj8kaEAjrzVSSBgSSZGiPyRoQCOvNVJIGBJJkaI/JGhAI681UkgYEkmRoj8kaEAjrzVSSBgSSZGiPyRoQCOvNVJIGBJJkaI/JGhAI681UkgYEkmRoj8kaEAjrzVSSBgSSZGiPyRoQCOvNVJIGBJJkaI/JGhAI681UkgYEkmRoj8kaEAjrzVSSBgSSZGiPyRoQCOvNVJIGBJJkaI/JGhAI681UkgaqATKfn1+Utr1I0rvH3NbAbHa3WNzf1VBSPUDOPl53pXyuoRSvYdwGmlJuFo8P1+Nexe9nF0gNK3gNrxoQyJobYu4riEyeGxCIQMSwpQGBCEQgAtnvHvBTrP36mvKjfQXxFWTK9/fBZxMIANKV5nbWtd8Obt8PMHoDbTP71JTuctOFCAQAabruavHj++3o63oBBzcwf//hsmuaLwLZo8pdX4MIZI8yK3+oQMBAAgGlBY0IBAwnEFBa0IhAwHACAaUFjQgEDCcQUFrQiEDAcAIBpQWNCAQMJxBQWtCIQMBwAgGlBY0IBAwnEFBa0IhAwHACAaUFjQgEDCcQUFrQiEDAcAIBpQWNCAQMJxBQWtCIQMBwAgGlBY0IBAwnEFBa0IhAwHACAaUFjQgEDCcQUFrQiEDAcAIBpQWNCAQMJxBQWtCIQMBwAgGlBY0IBAwnEFBa0IhAwHACAaUFjQgEDCcQUFrQiEDAcAIBpQWNCAQMJxBQWtCIQMBwAgGlBY0IBAwnEFDaCSLz+fm7tu0+Pz7+ezXU0wkENCkQUNqRI8s3Vu3a9uvyaZZ/PHwoJAIBwwkElHbEyCqOl6cZColAwHACAaUdKbIOx5BIBAKGEwgo7QiRbTiGQiIQMJxAQGkDR/rgGAKJQMBwAgGlDRjZB8ehSAQChhMIKG2gCMHx8tTNbPbPYnF/t8+lCGSftp4fKxBQ2gCRg3DAt8UTCBhOIKC0AyNj4FheskDAcAIBpR0QGQuHQOBoAoHFgdiYOAQCBnsq7ezjdVfK501x3+UWFvsmNjYOgcAdBQKL2yNWAw6B7DHY6kMFAovrGasFh0B6Dvb2YQKBxfWI1YRDID0GW/cQgcDidsRqwyEQuLNAYHFbYjXiEAjcWSCwuA2xWnEIBO4sEFjcmljNOAQCdxYILO5NrHYcAoE7CwQWtxKLgEMgcGeBwOKeY1FwCATuXBOQs7O/v8xmzc1icf8THueksUg4BAJvjVqA/PX+w9fSNBellJ/P/xioaiTRcAgkMJAVHC+nqBpJRBwCCQpkDY6qkUTFIZCAQLbgqBJJZBwCCQakB46qkETHIZBAQPbAUQWSKeAQSBAgu/5wwJZjjPKF+0E4wJ/mgTP2iu3qvinlZvH4cN3rgx35Qc2RP37vD3/qb/Mu/6x/advLbf/MtxYkU8LhK0hvEq8feGogT0MFQDI1HAIJBKR2JFPEIZBgQGpFMlUcAgkIpDYkU8YhkKBAakEydRwCCQxkbCQZcAgkOJCxkGTBIZAJADk1kkw4BDIRIKdCkg2HQCYE5NhIdv3KxbYqyTs7wWkGj+06t79qsqbyMX6S3nf5Y/zEfddNMlUcvoL0vevePK5mIEO/kmTGIZCJAhkKSfn166Jrmi+kpsifVq2ed9f/IPwUK9inWK/GPfAXHEsp7zLj8BWErB/sHaYO/Jpk74am8srxcnBfQfa+BeK9BdupkEwNh68gAMdTaQHfo/DYSKaIQyCJgAzwhfvGtqaKQyDJgBwDyZRxCCQhkCGRTB2HQJIC+fMdmh1fS22rJwMOgSQH0ucbDusqyoJDIAJ5amDXd+VWa8qEQyAC+dNAHyTZcAhEIK8a2IYkIw6BCOR/DaxDkhWHQASytoFVJJlxCEQgGxtYIimz2d1icX8Ha5pEzF9WBDPu+oK26bqrxY/vt+BDG6msAYGAQQQCSgsaEQgYTiCgtKARgYDhBAJKCxoRCBhOIKC0oBGBgOEEAkoLGhEIGE4goLSgEYGA4QQCSgsaEQgYTiCgtKARgYDhBAJKCxoRCBhOIKC0oBGBgOEEAkoLGhEIGE4goLSgEYGA4QQCSgsaEQgYTiCgtKARgYDhBAJKCxoRCBhOIKC0oBGBgOEEAkoLGhEIGE4goLSgEYGA4QQCSgsaEQgYTiCgtKARgYDhBAJKCxoRCBhOIKC0oBGBgOEEAkoLGhEIGE4goLSgEYGA4QQCSgsaEQgYTiCgtKARgYDhdgHpSnM769pv4EMbqayBtpl9akp3uemymlJuFo8P1zVcdlPDRSyvYReQWq7T6zh+AwJZ07FAjn/jRXkGgQgkyr06ynUKRCCj3HhRnlQgAolyr45ynQIRyCg3XpQnFYhAotyro1ynQNYBmZ9flLa9GGURn7SuBip6H8dqfg5S10JejQ38bkAg3gk2sKUBgXh72IBAvAdsgDXgKwjrzVSSBgSSZGiPyRoQCOvNVJIGBJJkaI/JGhAI681UkgYEkmRoj8kaEAjrzVSSBgSSZGiPyRoQCOvNVJIGBJJkaI/JGhAI681UkgYEkmRoj8kaEAjrzVSSBgSSZGiPyRoQCOvNVJIGBJJkaI/JGhAI681UkgYEkmRoj8kaEAjrzVSSBgSSZGiPyRoQCOvNVJIGBJJkaI/JGhAI681UkgYEkmRoj8kaEAjrzVSSBgSSZGiPyRoQCOvNVJIGBJJkaI/JGhAI681UkgYEkmRoj8ka+A94Z15Q9DZVigAAAABJRU5ErkJggg==;" vertex="1" parent="YhT68nm2lyjtiluxuVeR-10">
          <mxGeometry x="9" y="14" width="20" height="20" as="geometry" />
        </mxCell>
        <mxCell id="AyHNqSgMIkRmnR5VlhFU-6" value="" style="shape=image;verticalLabelPosition=bottom;labelBackgroundColor=default;verticalAlign=top;aspect=fixed;imageAspect=0;image=data:image/png,iVBORw0KGgoAAAANSUhEUgAAAMgAAADICAYAAACtWK6eAAAAAXNSR0IArs4c6QAACGdJREFUeF7t3UtW21gUheErjySdUJ5AUvRCzQRGEhhJmElIjyIT8CKdTCRSLRPIMpQf8m/Zukfnr7Y31t1bX5lXcFP8zwZsYGMDjd3YgA1sbkAg3h02sKUBgXh72IBAvAdsgDXgKwjrzVSSBgSSZGiPyRoQCOvNVJIGBJJkaI/JGhAI681UkgYEkmRoj8kaEAjrzVSSBgSSZGiPyRoQCOvNVJIGBJJkaI/JGhAI681UkgYEkmRoj8kaEAjrzVSSBgSSZGiPyRoQCOvNVJIGBJJkaI/JGhAI681UkgYEkmRoj8kaEAjrzVSSBgSSZGiPyRoQCOvNVJIGBJJkaI/JGhAI681UkgYEkmRoj8kaEAjrzVSSBgSSZGiPyRoQCOvNVJIGBJJkaI/JGhAI681UkgaqATKfn1+Utr1I0rvH3NbAbHa3WNzf1VBSPUDOPl53pXyuoRSvYdwGmlJuFo8P1+Nexe9nF0gNK3gNrxoQyJobYu4riEyeGxCIQMSwpQGBCEQgAtnvHvBTrP36mvKjfQXxFWTK9/fBZxMIANKV5nbWtd8Obt8PMHoDbTP71JTuctOFCAQAabruavHj++3o63oBBzcwf//hsmuaLwLZo8pdX4MIZI8yK3+oQMBAAgGlBY0IBAwnEFBa0IhAwHACAaUFjQgEDCcQUFrQiEDAcAIBpQWNCAQMJxBQWtCIQMBwAgGlBY0IBAwnEFBa0IhAwHACAaUFjQgEDCcQUFrQiEDAcAIBpQWNCAQMJxBQWtCIQMBwAgGlBY0IBAwnEFBa0IhAwHACAaUFjQgEDCcQUFrQiEDAcAIBpQWNCAQMJxBQWtCIQMBwAgGlBY0IBAwnEFBa0IhAwHACAaUFjQgEDCcQUFrQiEDAcAIBpQWNCAQMJxBQWtCIQMBwAgGlBY0IBAwnEFDaCSLz+fm7tu0+Pz7+ezXU0wkENCkQUNqRI8s3Vu3a9uvyaZZ/PHwoJAIBwwkElHbEyCqOl6cZColAwHACAaUdKbIOx5BIBAKGEwgo7QiRbTiGQiIQMJxAQGkDR/rgGAKJQMBwAgGlDRjZB8ehSAQChhMIKG2gCMHx8tTNbPbPYnF/t8+lCGSftp4fKxBQ2gCRg3DAt8UTCBhOIKC0AyNj4FheskDAcAIBpR0QGQuHQOBoAoHFgdiYOAQCBnsq7ezjdVfK501x3+UWFvsmNjYOgcAdBQKL2yNWAw6B7DHY6kMFAovrGasFh0B6Dvb2YQKBxfWI1YRDID0GW/cQgcDidsRqwyEQuLNAYHFbYjXiEAjcWSCwuA2xWnEIBO4sEFjcmljNOAQCdxYILO5NrHYcAoE7CwQWtxKLgEMgcGeBwOKeY1FwCATuXBOQs7O/v8xmzc1icf8THueksUg4BAJvjVqA/PX+w9fSNBellJ/P/xioaiTRcAgkMJAVHC+nqBpJRBwCCQpkDY6qkUTFIZCAQLbgqBJJZBwCCQakB46qkETHIZBAQPbAUQWSKeAQSBAgu/5wwJZjjPKF+0E4wJ/mgTP2iu3qvinlZvH4cN3rgx35Qc2RP37vD3/qb/Mu/6x/advLbf/MtxYkU8LhK0hvEq8feGogT0MFQDI1HAIJBKR2JFPEIZBgQGpFMlUcAgkIpDYkU8YhkKBAakEydRwCCQxkbCQZcAgkOJCxkGTBIZAJADk1kkw4BDIRIKdCkg2HQCYE5NhIdv3KxbYqyTs7wWkGj+06t79qsqbyMX6S3nf5Y/zEfddNMlUcvoL0vevePK5mIEO/kmTGIZCJAhkKSfn166Jrmi+kpsifVq2ed9f/IPwUK9inWK/GPfAXHEsp7zLj8BWErB/sHaYO/Jpk74am8srxcnBfQfa+BeK9BdupkEwNh68gAMdTaQHfo/DYSKaIQyCJgAzwhfvGtqaKQyDJgBwDyZRxCCQhkCGRTB2HQJIC+fMdmh1fS22rJwMOgSQH0ucbDusqyoJDIAJ5amDXd+VWa8qEQyAC+dNAHyTZcAhEIK8a2IYkIw6BCOR/DaxDkhWHQASytoFVJJlxCEQgGxtYIimz2d1icX8Ha5pEzF9WBDPu+oK26bqrxY/vt+BDG6msAYGAQQQCSgsaEQgYTiCgtKARgYDhBAJKCxoRCBhOIKC0oBGBgOEEAkoLGhEIGE4goLSgEYGA4QQCSgsaEQgYTiCgtKARgYDhBAJKCxoRCBhOIKC0oBGBgOEEAkoLGhEIGE4goLSgEYGA4QQCSgsaEQgYTiCgtKARgYDhBAJKCxoRCBhOIKC0oBGBgOEEAkoLGhEIGE4goLSgEYGA4QQCSgsaEQgYTiCgtKARgYDhBAJKCxoRCBhOIKC0oBGBgOEEAkoLGhEIGE4goLSgEYGA4QQCSgsaEQgYTiCgtKARgYDhdgHpSnM769pv4EMbqayBtpl9akp3uemymlJuFo8P1zVcdlPDRSyvYReQWq7T6zh+AwJZ07FAjn/jRXkGgQgkyr06ynUKRCCj3HhRnlQgAolyr45ynQIRyCg3XpQnFYhAotyro1ynQNYBmZ9flLa9GGURn7SuBip6H8dqfg5S10JejQ38bkAg3gk2sKUBgXh72IBAvAdsgDXgKwjrzVSSBgSSZGiPyRoQCOvNVJIGBJJkaI/JGhAI681UkgYEkmRoj8kaEAjrzVSSBgSSZGiPyRoQCOvNVJIGBJJkaI/JGhAI681UkgYEkmRoj8kaEAjrzVSSBgSSZGiPyRoQCOvNVJIGBJJkaI/JGhAI681UkgYEkmRoj8kaEAjrzVSSBgSSZGiPyRoQCOvNVJIGBJJkaI/JGhAI681UkgYEkmRoj8kaEAjrzVSSBgSSZGiPyRoQCOvNVJIGBJJkaI/JGhAI681UkgYEkmRoj8ka+A94Z15Q9DZVigAAAABJRU5ErkJggg==;" vertex="1" parent="YhT68nm2lyjtiluxuVeR-10">
          <mxGeometry x="6" y="44" width="20" height="20" as="geometry" />
        </mxCell>
        <mxCell id="AyHNqSgMIkRmnR5VlhFU-7" value="" style="shape=image;verticalLabelPosition=bottom;labelBackgroundColor=default;verticalAlign=top;aspect=fixed;imageAspect=0;image=data:image/png,iVBORw0KGgoAAAANSUhEUgAAAMgAAADICAYAAACtWK6eAAAAAXNSR0IArs4c6QAACGdJREFUeF7t3UtW21gUheErjySdUJ5AUvRCzQRGEhhJmElIjyIT8CKdTCRSLRPIMpQf8m/Zukfnr7Y31t1bX5lXcFP8zwZsYGMDjd3YgA1sbkAg3h02sKUBgXh72IBAvAdsgDXgKwjrzVSSBgSSZGiPyRoQCOvNVJIGBJJkaI/JGhAI681UkgYEkmRoj8kaEAjrzVSSBgSSZGiPyRoQCOvNVJIGBJJkaI/JGhAI681UkgYEkmRoj8kaEAjrzVSSBgSSZGiPyRoQCOvNVJIGBJJkaI/JGhAI681UkgYEkmRoj8kaEAjrzVSSBgSSZGiPyRoQCOvNVJIGBJJkaI/JGhAI681UkgYEkmRoj8kaEAjrzVSSBgSSZGiPyRoQCOvNVJIGBJJkaI/JGhAI681UkgaqATKfn1+Utr1I0rvH3NbAbHa3WNzf1VBSPUDOPl53pXyuoRSvYdwGmlJuFo8P1+Nexe9nF0gNK3gNrxoQyJobYu4riEyeGxCIQMSwpQGBCEQgAtnvHvBTrP36mvKjfQXxFWTK9/fBZxMIANKV5nbWtd8Obt8PMHoDbTP71JTuctOFCAQAabruavHj++3o63oBBzcwf//hsmuaLwLZo8pdX4MIZI8yK3+oQMBAAgGlBY0IBAwnEFBa0IhAwHACAaUFjQgEDCcQUFrQiEDAcAIBpQWNCAQMJxBQWtCIQMBwAgGlBY0IBAwnEFBa0IhAwHACAaUFjQgEDCcQUFrQiEDAcAIBpQWNCAQMJxBQWtCIQMBwAgGlBY0IBAwnEFBa0IhAwHACAaUFjQgEDCcQUFrQiEDAcAIBpQWNCAQMJxBQWtCIQMBwAgGlBY0IBAwnEFBa0IhAwHACAaUFjQgEDCcQUFrQiEDAcAIBpQWNCAQMJxBQWtCIQMBwAgGlBY0IBAwnEFDaCSLz+fm7tu0+Pz7+ezXU0wkENCkQUNqRI8s3Vu3a9uvyaZZ/PHwoJAIBwwkElHbEyCqOl6cZColAwHACAaUdKbIOx5BIBAKGEwgo7QiRbTiGQiIQMJxAQGkDR/rgGAKJQMBwAgGlDRjZB8ehSAQChhMIKG2gCMHx8tTNbPbPYnF/t8+lCGSftp4fKxBQ2gCRg3DAt8UTCBhOIKC0AyNj4FheskDAcAIBpR0QGQuHQOBoAoHFgdiYOAQCBnsq7ezjdVfK501x3+UWFvsmNjYOgcAdBQKL2yNWAw6B7DHY6kMFAovrGasFh0B6Dvb2YQKBxfWI1YRDID0GW/cQgcDidsRqwyEQuLNAYHFbYjXiEAjcWSCwuA2xWnEIBO4sEFjcmljNOAQCdxYILO5NrHYcAoE7CwQWtxKLgEMgcGeBwOKeY1FwCATuXBOQs7O/v8xmzc1icf8THueksUg4BAJvjVqA/PX+w9fSNBellJ/P/xioaiTRcAgkMJAVHC+nqBpJRBwCCQpkDY6qkUTFIZCAQLbgqBJJZBwCCQakB46qkETHIZBAQPbAUQWSKeAQSBAgu/5wwJZjjPKF+0E4wJ/mgTP2iu3qvinlZvH4cN3rgx35Qc2RP37vD3/qb/Mu/6x/advLbf/MtxYkU8LhK0hvEq8feGogT0MFQDI1HAIJBKR2JFPEIZBgQGpFMlUcAgkIpDYkU8YhkKBAakEydRwCCQxkbCQZcAgkOJCxkGTBIZAJADk1kkw4BDIRIKdCkg2HQCYE5NhIdv3KxbYqyTs7wWkGj+06t79qsqbyMX6S3nf5Y/zEfddNMlUcvoL0vevePK5mIEO/kmTGIZCJAhkKSfn166Jrmi+kpsifVq2ed9f/IPwUK9inWK/GPfAXHEsp7zLj8BWErB/sHaYO/Jpk74am8srxcnBfQfa+BeK9BdupkEwNh68gAMdTaQHfo/DYSKaIQyCJgAzwhfvGtqaKQyDJgBwDyZRxCCQhkCGRTB2HQJIC+fMdmh1fS22rJwMOgSQH0ucbDusqyoJDIAJ5amDXd+VWa8qEQyAC+dNAHyTZcAhEIK8a2IYkIw6BCOR/DaxDkhWHQASytoFVJJlxCEQgGxtYIimz2d1icX8Ha5pEzF9WBDPu+oK26bqrxY/vt+BDG6msAYGAQQQCSgsaEQgYTiCgtKARgYDhBAJKCxoRCBhOIKC0oBGBgOEEAkoLGhEIGE4goLSgEYGA4QQCSgsaEQgYTiCgtKARgYDhBAJKCxoRCBhOIKC0oBGBgOEEAkoLGhEIGE4goLSgEYGA4QQCSgsaEQgYTiCgtKARgYDhBAJKCxoRCBhOIKC0oBGBgOEEAkoLGhEIGE4goLSgEYGA4QQCSgsaEQgYTiCgtKARgYDhBAJKCxoRCBhOIKC0oBGBgOEEAkoLGhEIGE4goLSgEYGA4QQCSgsaEQgYTiCgtKARgYDhdgHpSnM769pv4EMbqayBtpl9akp3uemymlJuFo8P1zVcdlPDRSyvYReQWq7T6zh+AwJZ07FAjn/jRXkGgQgkyr06ynUKRCCj3HhRnlQgAolyr45ynQIRyCg3XpQnFYhAotyro1ynQNYBmZ9flLa9GGURn7SuBip6H8dqfg5S10JejQ38bkAg3gk2sKUBgXh72IBAvAdsgDXgKwjrzVSSBgSSZGiPyRoQCOvNVJIGBJJkaI/JGhAI681UkgYEkmRoj8kaEAjrzVSSBgSSZGiPyRoQCOvNVJIGBJJkaI/JGhAI681UkgYEkmRoj8kaEAjrzVSSBgSSZGiPyRoQCOvNVJIGBJJkaI/JGhAI681UkgYEkmRoj8kaEAjrzVSSBgSSZGiPyRoQCOvNVJIGBJJkaI/JGhAI681UkgYEkmRoj8kaEAjrzVSSBgSSZGiPyRoQCOvNVJIGBJJkaI/JGhAI681UkgYEkmRoj8ka+A94Z15Q9DZVigAAAABJRU5ErkJggg==;" vertex="1" parent="YhT68nm2lyjtiluxuVeR-10">
          <mxGeometry x="9" y="80" width="20" height="20" as="geometry" />
        </mxCell>
        <mxCell id="FptJBJOcgb5XrMM6Hwfx-7" value="" style="shape=image;verticalLabelPosition=bottom;labelBackgroundColor=default;verticalAlign=top;aspect=fixed;imageAspect=0;image=data:image/png,iVBORw0KGgoAAAANSUhEUgAAAMgAAADICAYAAACtWK6eAAAAAXNSR0IArs4c6QAAB0hJREFUeF7t2W1y03YAhPHI5CBwg0zs74WTFE4CnKT0JOUAdoYbNAcB1HEnnTKdvqC/vbG2+eWztFo962dkOdOVPwQQ+EcCEzYIIPDPBAji04HAvxAgiI8HAgTxGUBgjIAnyBg3Zz0RAgR5IkO7zTECBBnj5qwnQoAgT2RotzlGgCBj3Jz1RAgQ5IkM7TbHCBBkjJuzngiBmCA3NzfPr6+vn19dXb18Iizd5iMT+Pr16/3xkpvN5n6/339MXP7sgux2u3fzPP94dXV1lMMfAo9F4H6app/3+/27c17wbILsdruX8zz/RIxzziNrgMBZRTmLIA9PjbcDN+MUBCIEpml6f46nycmCbLfbX7xnRDYWejqBD4fD4c0pMScJ4slxCnrnPgaBU58kw4I8vHMcnx7+EFg1gWmaXo3+yjUsyHa7/dUL+ao/F8r9SeD+cDi8GAEyJMjt7e3raZqOv1j5Q6CCwDzPb+7u7j4sLTskiKfHUsyOXwGBoafIqCDzCm5YBQQWERh5F1ksiK9XizZx8IoIEGRFY6iyPgIjP/kufoKM/O/jcDgsvs768Gq0NgLb7XbRV32CrG1BfaIECBLFK7ydAEHaF9Q/SoAgUbzC2wkQpH1B/aMECBLFK7ydAEHaF9Q/SoAgUbzC2wkQpH1B/aMECBLFK7ydAEHaF9Q/SoAgUbzC2wkQpH1B/aMECBLFK7ydAEHaF9Q/SoAgUbzC2wkQpH1B/aMECBLFK7ydAEHaF9Q/SoAgUbzC2wkQpH1B/aMECBLFK7ydAEHaF9Q/SoAgUbzC2wkQpH1B/aMECBLFK7ydAEHaF9Q/SoAgUbzC2wkQpH1B/aMECBLFK7ydAEHaF9Q/SoAgUbzC2wkQpH1B/aMECBLFK7ydAEHaF9Q/SoAgUbzC2wkQpH1B/aMECBLFK7ydAEHaF9Q/SoAgUbzC2wkQpH1B/aMECBLFK7ydAEHaF9Q/SoAgUbzC2wkQpH1B/aMECBLFK7ydAEHaF9Q/SoAgUbzC2wkQpH1B/aMECBLFK7ydAEHaF9Q/SoAgUbzC2wkQpH1B/aMECBLFK7ydAEHaF9Q/SoAgUbzC2wkQpH1B/aMECBLFK7ydAEHaF9Q/SoAgUbzC2wkQpH1B/aMECBLFK7ydAEHaF9Q/SoAgUbzC2wkQpH1B/aMECBLFK7ydAEHaF9Q/SoAgUbzC2wkQpH1B/aMECBLFK7ydAEHaF9Q/SoAgUbzC2wkQpH1B/aMECBLFK7ydAEHaF9Q/SoAgUbzC2wkQpH1B/aMECBLFK7ydAEHaF9Q/SoAgUbzC2wkQpH1B/aMECBLFK7ydAEHaF9Q/SoAgUbzC2wkQpH1B/aMECBLFK7ydAEHaF9Q/SoAgUbzC2wkQpH1B/aMECBLFK7ydAEHaF9Q/SoAgUbzC2wkQpH1B/aMECBLFK7ydAEHaF9Q/SoAgUbzC2wkQpH1B/aMECBLFK7ydAEHaF9Q/SoAgUbzC2wkQpH1B/aMECBLFK7ydAEHaF9Q/SoAgUbzC2wkQpH1B/aMECBLFK7ydAEHaF9Q/SoAgUbzC2wkQpH1B/aMECBLFK7ydAEHaF9Q/SoAgUbzC2wkQpH1B/aMECBLFK7ydAEHaF9Q/SoAgUbzC2wkQpH1B/aMECBLFK7ydAEHaF9Q/SoAgUbzC2wkQpH1B/aMECBLFK7ydAEHaF9Q/SoAgUbzC2wkQpH1B/aMECBLFK7ydAEHaF9Q/SoAgUbzC2wkQpH1B/aMECBLFK7ydAEHaF9Q/SoAgUbzC2wkQpH1B/aMECBLFK7ydAEHaF9Q/SoAgUbzC2wkQpH1B/aMECBLFK7ydAEHaF9Q/SoAgUbzC2wkQpH1B/aMECBLFK7ydAEHaF9Q/SoAgUbzC2wkQpH1B/aMECBLFK7ydAEHaF9Q/SoAgUbzC2wkQpH1B/aME/jeCRCkJR+A7Cczz/Obu7u7Ddx7++2HTkoOPx+52u5fzPP+y9DzHI3BpAo8iyM3NzfNnz579eumbdX0ElhL48uXLi0+fPt0vOW/xE+QYvt1uj0+Ql0su5FgELkzg4+FweLW0w5Agt7e3r6dp+mnpxRyPwKUIjHy9GnoHOZ708DXrKIinyKUWd90lBO4Ph8OLJSf8cezQE8TL+ghq51yKwDRNr/b7/ceR6w8L8iDJu3me345c2DkIPAaBaZre7/f7d6PXOkkQkoxid94jERh6Mf+228mCkOSRpnaZRQROfXKc/A7y17YPv2wdv249X3QnDkbgvATup2l6M/rO8dcqZ3mC/BF6/HXr+vr69TzPP/iF67yrS/tPAkcxfj7lfePvrnBWQb69wFGWzWbz+8/Am83GU+U/93XAIIGPnz9/vl/6H/LvvVZMkO8t4DgE1kyAIGteR7eLEyDIxSdQYM0ECLLmdXS7OAGCXHwCBdZMgCBrXke3ixMgyMUnUGDNBAiy5nV0uzgBglx8AgXWTIAga15Ht4sTIMjFJ1BgzQQIsuZ1dLs4gd8AVTnKMgr30rsAAAAASUVORK5CYII=;" vertex="1" parent="1">
          <mxGeometry x="261" y="203" width="16" height="16" as="geometry" />
        </mxCell>
        <mxCell id="FptJBJOcgb5XrMM6Hwfx-8" value="" style="shape=image;verticalLabelPosition=bottom;labelBackgroundColor=default;verticalAlign=top;aspect=fixed;imageAspect=0;image=data:image/png,iVBORw0KGgoAAAANSUhEUgAAAMgAAADICAYAAACtWK6eAAAAAXNSR0IArs4c6QAAB0hJREFUeF7t2W1y03YAhPHI5CBwg0zs74WTFE4CnKT0JOUAdoYbNAcB1HEnnTKdvqC/vbG2+eWztFo962dkOdOVPwQQ+EcCEzYIIPDPBAji04HAvxAgiI8HAgTxGUBgjIAnyBg3Zz0RAgR5IkO7zTECBBnj5qwnQoAgT2RotzlGgCBj3Jz1RAgQ5IkM7TbHCBBkjJuzngiBmCA3NzfPr6+vn19dXb18Iizd5iMT+Pr16/3xkpvN5n6/339MXP7sgux2u3fzPP94dXV1lMMfAo9F4H6app/3+/27c17wbILsdruX8zz/RIxzziNrgMBZRTmLIA9PjbcDN+MUBCIEpml6f46nycmCbLfbX7xnRDYWejqBD4fD4c0pMScJ4slxCnrnPgaBU58kw4I8vHMcnx7+EFg1gWmaXo3+yjUsyHa7/dUL+ao/F8r9SeD+cDi8GAEyJMjt7e3raZqOv1j5Q6CCwDzPb+7u7j4sLTskiKfHUsyOXwGBoafIqCDzCm5YBQQWERh5F1ksiK9XizZx8IoIEGRFY6iyPgIjP/kufoKM/O/jcDgsvs768Gq0NgLb7XbRV32CrG1BfaIECBLFK7ydAEHaF9Q/SoAgUbzC2wkQpH1B/aMECBLFK7ydAEHaF9Q/SoAgUbzC2wkQpH1B/aMECBLFK7ydAEHaF9Q/SoAgUbzC2wkQpH1B/aMECBLFK7ydAEHaF9Q/SoAgUbzC2wkQpH1B/aMECBLFK7ydAEHaF9Q/SoAgUbzC2wkQpH1B/aMECBLFK7ydAEHaF9Q/SoAgUbzC2wkQpH1B/aMECBLFK7ydAEHaF9Q/SoAgUbzC2wkQpH1B/aMECBLFK7ydAEHaF9Q/SoAgUbzC2wkQpH1B/aMECBLFK7ydAEHaF9Q/SoAgUbzC2wkQpH1B/aMECBLFK7ydAEHaF9Q/SoAgUbzC2wkQpH1B/aMECBLFK7ydAEHaF9Q/SoAgUbzC2wkQpH1B/aMECBLFK7ydAEHaF9Q/SoAgUbzC2wkQpH1B/aMECBLFK7ydAEHaF9Q/SoAgUbzC2wkQpH1B/aMECBLFK7ydAEHaF9Q/SoAgUbzC2wkQpH1B/aMECBLFK7ydAEHaF9Q/SoAgUbzC2wkQpH1B/aMECBLFK7ydAEHaF9Q/SoAgUbzC2wkQpH1B/aMECBLFK7ydAEHaF9Q/SoAgUbzC2wkQpH1B/aMECBLFK7ydAEHaF9Q/SoAgUbzC2wkQpH1B/aMECBLFK7ydAEHaF9Q/SoAgUbzC2wkQpH1B/aMECBLFK7ydAEHaF9Q/SoAgUbzC2wkQpH1B/aMECBLFK7ydAEHaF9Q/SoAgUbzC2wkQpH1B/aMECBLFK7ydAEHaF9Q/SoAgUbzC2wkQpH1B/aMECBLFK7ydAEHaF9Q/SoAgUbzC2wkQpH1B/aMECBLFK7ydAEHaF9Q/SoAgUbzC2wkQpH1B/aMECBLFK7ydAEHaF9Q/SoAgUbzC2wkQpH1B/aMECBLFK7ydAEHaF9Q/SoAgUbzC2wkQpH1B/aMECBLFK7ydAEHaF9Q/SoAgUbzC2wkQpH1B/aMECBLFK7ydAEHaF9Q/SoAgUbzC2wkQpH1B/aMECBLFK7ydAEHaF9Q/SoAgUbzC2wkQpH1B/aMECBLFK7ydAEHaF9Q/SoAgUbzC2wkQpH1B/aMECBLFK7ydAEHaF9Q/SoAgUbzC2wkQpH1B/aMECBLFK7ydAEHaF9Q/SoAgUbzC2wkQpH1B/aMECBLFK7ydAEHaF9Q/SoAgUbzC2wkQpH1B/aMECBLFK7ydAEHaF9Q/SoAgUbzC2wkQpH1B/aMECBLFK7ydAEHaF9Q/SoAgUbzC2wkQpH1B/aMECBLFK7ydAEHaF9Q/SoAgUbzC2wkQpH1B/aMECBLFK7ydAEHaF9Q/SoAgUbzC2wkQpH1B/aME/jeCRCkJR+A7Cczz/Obu7u7Ddx7++2HTkoOPx+52u5fzPP+y9DzHI3BpAo8iyM3NzfNnz579eumbdX0ElhL48uXLi0+fPt0vOW/xE+QYvt1uj0+Ql0su5FgELkzg4+FweLW0w5Agt7e3r6dp+mnpxRyPwKUIjHy9GnoHOZ708DXrKIinyKUWd90lBO4Ph8OLJSf8cezQE8TL+ghq51yKwDRNr/b7/ceR6w8L8iDJu3me345c2DkIPAaBaZre7/f7d6PXOkkQkoxid94jERh6Mf+228mCkOSRpnaZRQROfXKc/A7y17YPv2wdv249X3QnDkbgvATup2l6M/rO8dcqZ3mC/BF6/HXr+vr69TzPP/iF67yrS/tPAkcxfj7lfePvrnBWQb69wFGWzWbz+8/Am83GU+U/93XAIIGPnz9/vl/6H/LvvVZMkO8t4DgE1kyAIGteR7eLEyDIxSdQYM0ECLLmdXS7OAGCXHwCBdZMgCBrXke3ixMgyMUnUGDNBAiy5nV0uzgBglx8AgXWTIAga15Ht4sTIMjFJ1BgzQQIsuZ1dLs4gd8AVTnKMgr30rsAAAAASUVORK5CYII=;" vertex="1" parent="1">
          <mxGeometry x="250" y="366" width="16" height="16" as="geometry" />
        </mxCell>
      </root>
    </mxGraphModel>
  </diagram>
  <diagram id="Zhru9ta7GqFc-fdNkrxd" name="第 6 页">
    <mxGraphModel dx="1020" dy="496" grid="0" gridSize="10" guides="1" tooltips="1" connect="1" arrows="1" fold="1" page="1" pageScale="1" pageWidth="1200" pageHeight="1920" math="0" shadow="0">
      <root>
        <mxCell id="0" />
        <mxCell id="1" parent="0" />
        <mxCell id="xmYn6MSLZONbyI5kkwYW-1" style="edgeStyle=orthogonalEdgeStyle;rounded=0;orthogonalLoop=1;jettySize=auto;html=1;exitX=1;exitY=0.5;exitDx=0;exitDy=0;entryX=0;entryY=0.5;entryDx=0;entryDy=0;strokeColor=#00AB7A;strokeWidth=2;" edge="1" parent="1" source="xmYn6MSLZONbyI5kkwYW-3" target="xmYn6MSLZONbyI5kkwYW-4">
          <mxGeometry relative="1" as="geometry" />
        </mxCell>
        <mxCell id="xmYn6MSLZONbyI5kkwYW-3" value="追踪朔源" style="rounded=0;whiteSpace=wrap;html=1;fillColor=#00ab7a;fontColor=#ffffff;strokeColor=#2D7600;" vertex="1" parent="1">
          <mxGeometry x="84" y="179" width="120" height="60" as="geometry" />
        </mxCell>
        <mxCell id="xmYn6MSLZONbyI5kkwYW-4" value="还原攻击链条" style="rounded=0;whiteSpace=wrap;html=1;fillColor=#647687;fontColor=#ffffff;strokeColor=#314354;" vertex="1" parent="1">
          <mxGeometry x="252" y="189" width="120" height="40" as="geometry" />
        </mxCell>
        <mxCell id="xmYn6MSLZONbyI5kkwYW-12" value="" style="rounded=0;whiteSpace=wrap;html=1;container=0;fillColor=#eeeeee;strokeColor=#36393d;" vertex="1" parent="1">
          <mxGeometry x="392" y="140" width="175" height="157" as="geometry" />
        </mxCell>
        <mxCell id="xmYn6MSLZONbyI5kkwYW-13" value="定位攻击入口&lt;span style=&quot;background-color: initial;&quot;&gt;&lt;br&gt;&lt;/span&gt;" style="text;html=1;strokeColor=none;fillColor=none;align=left;verticalAlign=middle;whiteSpace=wrap;rounded=0;container=0;" vertex="1" parent="1">
          <mxGeometry x="418" y="146" width="145" height="30" as="geometry" />
        </mxCell>
        <mxCell id="xmYn6MSLZONbyI5kkwYW-14" value="锁定内网跳板" style="text;html=1;strokeColor=none;fillColor=none;align=left;verticalAlign=middle;whiteSpace=wrap;rounded=0;container=0;" vertex="1" parent="1">
          <mxGeometry x="418" y="179" width="121" height="30" as="geometry" />
        </mxCell>
        <mxCell id="xmYn6MSLZONbyI5kkwYW-15" value="还原攻击路径" style="text;html=1;strokeColor=none;fillColor=none;align=left;verticalAlign=middle;whiteSpace=wrap;rounded=0;container=0;" vertex="1" parent="1">
          <mxGeometry x="418" y="214" width="96" height="30" as="geometry" />
        </mxCell>
        <mxCell id="xmYn6MSLZONbyI5kkwYW-16" value="刻画出完整的攻击链条" style="text;html=1;strokeColor=none;fillColor=none;align=left;verticalAlign=middle;whiteSpace=wrap;rounded=0;container=0;" vertex="1" parent="1">
          <mxGeometry x="418" y="253" width="126" height="30" as="geometry" />
        </mxCell>
        <mxCell id="O0prfaPkWb7AgjyQHh8y-2" value="" style="shape=image;verticalLabelPosition=bottom;labelBackgroundColor=default;verticalAlign=top;aspect=fixed;imageAspect=0;image=data:image/png,iVBORw0KGgoAAAANSUhEUgAAAMgAAADICAYAAACtWK6eAAAAAXNSR0IArs4c6QAACGdJREFUeF7t3UtW21gUheErjySdUJ5AUvRCzQRGEhhJmElIjyIT8CKdTCRSLRPIMpQf8m/Zukfnr7Y31t1bX5lXcFP8zwZsYGMDjd3YgA1sbkAg3h02sKUBgXh72IBAvAdsgDXgKwjrzVSSBgSSZGiPyRoQCOvNVJIGBJJkaI/JGhAI681UkgYEkmRoj8kaEAjrzVSSBgSSZGiPyRoQCOvNVJIGBJJkaI/JGhAI681UkgYEkmRoj8kaEAjrzVSSBgSSZGiPyRoQCOvNVJIGBJJkaI/JGhAI681UkgYEkmRoj8kaEAjrzVSSBgSSZGiPyRoQCOvNVJIGBJJkaI/JGhAI681UkgYEkmRoj8kaEAjrzVSSBgSSZGiPyRoQCOvNVJIGBJJkaI/JGhAI681UkgaqATKfn1+Utr1I0rvH3NbAbHa3WNzf1VBSPUDOPl53pXyuoRSvYdwGmlJuFo8P1+Nexe9nF0gNK3gNrxoQyJobYu4riEyeGxCIQMSwpQGBCEQgAtnvHvBTrP36mvKjfQXxFWTK9/fBZxMIANKV5nbWtd8Obt8PMHoDbTP71JTuctOFCAQAabruavHj++3o63oBBzcwf//hsmuaLwLZo8pdX4MIZI8yK3+oQMBAAgGlBY0IBAwnEFBa0IhAwHACAaUFjQgEDCcQUFrQiEDAcAIBpQWNCAQMJxBQWtCIQMBwAgGlBY0IBAwnEFBa0IhAwHACAaUFjQgEDCcQUFrQiEDAcAIBpQWNCAQMJxBQWtCIQMBwAgGlBY0IBAwnEFBa0IhAwHACAaUFjQgEDCcQUFrQiEDAcAIBpQWNCAQMJxBQWtCIQMBwAgGlBY0IBAwnEFBa0IhAwHACAaUFjQgEDCcQUFrQiEDAcAIBpQWNCAQMJxBQWtCIQMBwAgGlBY0IBAwnEFDaCSLz+fm7tu0+Pz7+ezXU0wkENCkQUNqRI8s3Vu3a9uvyaZZ/PHwoJAIBwwkElHbEyCqOl6cZColAwHACAaUdKbIOx5BIBAKGEwgo7QiRbTiGQiIQMJxAQGkDR/rgGAKJQMBwAgGlDRjZB8ehSAQChhMIKG2gCMHx8tTNbPbPYnF/t8+lCGSftp4fKxBQ2gCRg3DAt8UTCBhOIKC0AyNj4FheskDAcAIBpR0QGQuHQOBoAoHFgdiYOAQCBnsq7ezjdVfK501x3+UWFvsmNjYOgcAdBQKL2yNWAw6B7DHY6kMFAovrGasFh0B6Dvb2YQKBxfWI1YRDID0GW/cQgcDidsRqwyEQuLNAYHFbYjXiEAjcWSCwuA2xWnEIBO4sEFjcmljNOAQCdxYILO5NrHYcAoE7CwQWtxKLgEMgcGeBwOKeY1FwCATuXBOQs7O/v8xmzc1icf8THueksUg4BAJvjVqA/PX+w9fSNBellJ/P/xioaiTRcAgkMJAVHC+nqBpJRBwCCQpkDY6qkUTFIZCAQLbgqBJJZBwCCQakB46qkETHIZBAQPbAUQWSKeAQSBAgu/5wwJZjjPKF+0E4wJ/mgTP2iu3qvinlZvH4cN3rgx35Qc2RP37vD3/qb/Mu/6x/advLbf/MtxYkU8LhK0hvEq8feGogT0MFQDI1HAIJBKR2JFPEIZBgQGpFMlUcAgkIpDYkU8YhkKBAakEydRwCCQxkbCQZcAgkOJCxkGTBIZAJADk1kkw4BDIRIKdCkg2HQCYE5NhIdv3KxbYqyTs7wWkGj+06t79qsqbyMX6S3nf5Y/zEfddNMlUcvoL0vevePK5mIEO/kmTGIZCJAhkKSfn166Jrmi+kpsifVq2ed9f/IPwUK9inWK/GPfAXHEsp7zLj8BWErB/sHaYO/Jpk74am8srxcnBfQfa+BeK9BdupkEwNh68gAMdTaQHfo/DYSKaIQyCJgAzwhfvGtqaKQyDJgBwDyZRxCCQhkCGRTB2HQJIC+fMdmh1fS22rJwMOgSQH0ucbDusqyoJDIAJ5amDXd+VWa8qEQyAC+dNAHyTZcAhEIK8a2IYkIw6BCOR/DaxDkhWHQASytoFVJJlxCEQgGxtYIimz2d1icX8Ha5pEzF9WBDPu+oK26bqrxY/vt+BDG6msAYGAQQQCSgsaEQgYTiCgtKARgYDhBAJKCxoRCBhOIKC0oBGBgOEEAkoLGhEIGE4goLSgEYGA4QQCSgsaEQgYTiCgtKARgYDhBAJKCxoRCBhOIKC0oBGBgOEEAkoLGhEIGE4goLSgEYGA4QQCSgsaEQgYTiCgtKARgYDhBAJKCxoRCBhOIKC0oBGBgOEEAkoLGhEIGE4goLSgEYGA4QQCSgsaEQgYTiCgtKARgYDhBAJKCxoRCBhOIKC0oBGBgOEEAkoLGhEIGE4goLSgEYGA4QQCSgsaEQgYTiCgtKARgYDhdgHpSnM769pv4EMbqayBtpl9akp3uemymlJuFo8P1zVcdlPDRSyvYReQWq7T6zh+AwJZ07FAjn/jRXkGgQgkyr06ynUKRCCj3HhRnlQgAolyr45ynQIRyCg3XpQnFYhAotyro1ynQNYBmZ9flLa9GGURn7SuBip6H8dqfg5S10JejQ38bkAg3gk2sKUBgXh72IBAvAdsgDXgKwjrzVSSBgSSZGiPyRoQCOvNVJIGBJJkaI/JGhAI681UkgYEkmRoj8kaEAjrzVSSBgSSZGiPyRoQCOvNVJIGBJJkaI/JGhAI681UkgYEkmRoj8kaEAjrzVSSBgSSZGiPyRoQCOvNVJIGBJJkaI/JGhAI681UkgYEkmRoj8kaEAjrzVSSBgSSZGiPyRoQCOvNVJIGBJJkaI/JGhAI681UkgYEkmRoj8kaEAjrzVSSBgSSZGiPyRoQCOvNVJIGBJJkaI/JGhAI681UkgYEkmRoj8ka+A94Z15Q9DZVigAAAABJRU5ErkJggg==;" vertex="1" parent="1">
          <mxGeometry x="395" y="151" width="20" height="20" as="geometry" />
        </mxCell>
        <mxCell id="O0prfaPkWb7AgjyQHh8y-3" value="" style="shape=image;verticalLabelPosition=bottom;labelBackgroundColor=default;verticalAlign=top;aspect=fixed;imageAspect=0;image=data:image/png,iVBORw0KGgoAAAANSUhEUgAAAMgAAADICAYAAACtWK6eAAAAAXNSR0IArs4c6QAACGdJREFUeF7t3UtW21gUheErjySdUJ5AUvRCzQRGEhhJmElIjyIT8CKdTCRSLRPIMpQf8m/Zukfnr7Y31t1bX5lXcFP8zwZsYGMDjd3YgA1sbkAg3h02sKUBgXh72IBAvAdsgDXgKwjrzVSSBgSSZGiPyRoQCOvNVJIGBJJkaI/JGhAI681UkgYEkmRoj8kaEAjrzVSSBgSSZGiPyRoQCOvNVJIGBJJkaI/JGhAI681UkgYEkmRoj8kaEAjrzVSSBgSSZGiPyRoQCOvNVJIGBJJkaI/JGhAI681UkgYEkmRoj8kaEAjrzVSSBgSSZGiPyRoQCOvNVJIGBJJkaI/JGhAI681UkgYEkmRoj8kaEAjrzVSSBgSSZGiPyRoQCOvNVJIGBJJkaI/JGhAI681UkgaqATKfn1+Utr1I0rvH3NbAbHa3WNzf1VBSPUDOPl53pXyuoRSvYdwGmlJuFo8P1+Nexe9nF0gNK3gNrxoQyJobYu4riEyeGxCIQMSwpQGBCEQgAtnvHvBTrP36mvKjfQXxFWTK9/fBZxMIANKV5nbWtd8Obt8PMHoDbTP71JTuctOFCAQAabruavHj++3o63oBBzcwf//hsmuaLwLZo8pdX4MIZI8yK3+oQMBAAgGlBY0IBAwnEFBa0IhAwHACAaUFjQgEDCcQUFrQiEDAcAIBpQWNCAQMJxBQWtCIQMBwAgGlBY0IBAwnEFBa0IhAwHACAaUFjQgEDCcQUFrQiEDAcAIBpQWNCAQMJxBQWtCIQMBwAgGlBY0IBAwnEFBa0IhAwHACAaUFjQgEDCcQUFrQiEDAcAIBpQWNCAQMJxBQWtCIQMBwAgGlBY0IBAwnEFBa0IhAwHACAaUFjQgEDCcQUFrQiEDAcAIBpQWNCAQMJxBQWtCIQMBwAgGlBY0IBAwnEFDaCSLz+fm7tu0+Pz7+ezXU0wkENCkQUNqRI8s3Vu3a9uvyaZZ/PHwoJAIBwwkElHbEyCqOl6cZColAwHACAaUdKbIOx5BIBAKGEwgo7QiRbTiGQiIQMJxAQGkDR/rgGAKJQMBwAgGlDRjZB8ehSAQChhMIKG2gCMHx8tTNbPbPYnF/t8+lCGSftp4fKxBQ2gCRg3DAt8UTCBhOIKC0AyNj4FheskDAcAIBpR0QGQuHQOBoAoHFgdiYOAQCBnsq7ezjdVfK501x3+UWFvsmNjYOgcAdBQKL2yNWAw6B7DHY6kMFAovrGasFh0B6Dvb2YQKBxfWI1YRDID0GW/cQgcDidsRqwyEQuLNAYHFbYjXiEAjcWSCwuA2xWnEIBO4sEFjcmljNOAQCdxYILO5NrHYcAoE7CwQWtxKLgEMgcGeBwOKeY1FwCATuXBOQs7O/v8xmzc1icf8THueksUg4BAJvjVqA/PX+w9fSNBellJ/P/xioaiTRcAgkMJAVHC+nqBpJRBwCCQpkDY6qkUTFIZCAQLbgqBJJZBwCCQakB46qkETHIZBAQPbAUQWSKeAQSBAgu/5wwJZjjPKF+0E4wJ/mgTP2iu3qvinlZvH4cN3rgx35Qc2RP37vD3/qb/Mu/6x/advLbf/MtxYkU8LhK0hvEq8feGogT0MFQDI1HAIJBKR2JFPEIZBgQGpFMlUcAgkIpDYkU8YhkKBAakEydRwCCQxkbCQZcAgkOJCxkGTBIZAJADk1kkw4BDIRIKdCkg2HQCYE5NhIdv3KxbYqyTs7wWkGj+06t79qsqbyMX6S3nf5Y/zEfddNMlUcvoL0vevePK5mIEO/kmTGIZCJAhkKSfn166Jrmi+kpsifVq2ed9f/IPwUK9inWK/GPfAXHEsp7zLj8BWErB/sHaYO/Jpk74am8srxcnBfQfa+BeK9BdupkEwNh68gAMdTaQHfo/DYSKaIQyCJgAzwhfvGtqaKQyDJgBwDyZRxCCQhkCGRTB2HQJIC+fMdmh1fS22rJwMOgSQH0ucbDusqyoJDIAJ5amDXd+VWa8qEQyAC+dNAHyTZcAhEIK8a2IYkIw6BCOR/DaxDkhWHQASytoFVJJlxCEQgGxtYIimz2d1icX8Ha5pEzF9WBDPu+oK26bqrxY/vt+BDG6msAYGAQQQCSgsaEQgYTiCgtKARgYDhBAJKCxoRCBhOIKC0oBGBgOEEAkoLGhEIGE4goLSgEYGA4QQCSgsaEQgYTiCgtKARgYDhBAJKCxoRCBhOIKC0oBGBgOEEAkoLGhEIGE4goLSgEYGA4QQCSgsaEQgYTiCgtKARgYDhBAJKCxoRCBhOIKC0oBGBgOEEAkoLGhEIGE4goLSgEYGA4QQCSgsaEQgYTiCgtKARgYDhBAJKCxoRCBhOIKC0oBGBgOEEAkoLGhEIGE4goLSgEYGA4QQCSgsaEQgYTiCgtKARgYDhdgHpSnM769pv4EMbqayBtpl9akp3uemymlJuFo8P1zVcdlPDRSyvYReQWq7T6zh+AwJZ07FAjn/jRXkGgQgkyr06ynUKRCCj3HhRnlQgAolyr45ynQIRyCg3XpQnFYhAotyro1ynQNYBmZ9flLa9GGURn7SuBip6H8dqfg5S10JejQ38bkAg3gk2sKUBgXh72IBAvAdsgDXgKwjrzVSSBgSSZGiPyRoQCOvNVJIGBJJkaI/JGhAI681UkgYEkmRoj8kaEAjrzVSSBgSSZGiPyRoQCOvNVJIGBJJkaI/JGhAI681UkgYEkmRoj8kaEAjrzVSSBgSSZGiPyRoQCOvNVJIGBJJkaI/JGhAI681UkgYEkmRoj8kaEAjrzVSSBgSSZGiPyRoQCOvNVJIGBJJkaI/JGhAI681UkgYEkmRoj8kaEAjrzVSSBgSSZGiPyRoQCOvNVJIGBJJkaI/JGhAI681UkgYEkmRoj8ka+A94Z15Q9DZVigAAAABJRU5ErkJggg==;" vertex="1" parent="1">
          <mxGeometry x="398" y="187" width="20" height="20" as="geometry" />
        </mxCell>
        <mxCell id="O0prfaPkWb7AgjyQHh8y-4" value="" style="shape=image;verticalLabelPosition=bottom;labelBackgroundColor=default;verticalAlign=top;aspect=fixed;imageAspect=0;image=data:image/png,iVBORw0KGgoAAAANSUhEUgAAAMgAAADICAYAAACtWK6eAAAAAXNSR0IArs4c6QAACGdJREFUeF7t3UtW21gUheErjySdUJ5AUvRCzQRGEhhJmElIjyIT8CKdTCRSLRPIMpQf8m/Zukfnr7Y31t1bX5lXcFP8zwZsYGMDjd3YgA1sbkAg3h02sKUBgXh72IBAvAdsgDXgKwjrzVSSBgSSZGiPyRoQCOvNVJIGBJJkaI/JGhAI681UkgYEkmRoj8kaEAjrzVSSBgSSZGiPyRoQCOvNVJIGBJJkaI/JGhAI681UkgYEkmRoj8kaEAjrzVSSBgSSZGiPyRoQCOvNVJIGBJJkaI/JGhAI681UkgYEkmRoj8kaEAjrzVSSBgSSZGiPyRoQCOvNVJIGBJJkaI/JGhAI681UkgYEkmRoj8kaEAjrzVSSBgSSZGiPyRoQCOvNVJIGBJJkaI/JGhAI681UkgaqATKfn1+Utr1I0rvH3NbAbHa3WNzf1VBSPUDOPl53pXyuoRSvYdwGmlJuFo8P1+Nexe9nF0gNK3gNrxoQyJobYu4riEyeGxCIQMSwpQGBCEQgAtnvHvBTrP36mvKjfQXxFWTK9/fBZxMIANKV5nbWtd8Obt8PMHoDbTP71JTuctOFCAQAabruavHj++3o63oBBzcwf//hsmuaLwLZo8pdX4MIZI8yK3+oQMBAAgGlBY0IBAwnEFBa0IhAwHACAaUFjQgEDCcQUFrQiEDAcAIBpQWNCAQMJxBQWtCIQMBwAgGlBY0IBAwnEFBa0IhAwHACAaUFjQgEDCcQUFrQiEDAcAIBpQWNCAQMJxBQWtCIQMBwAgGlBY0IBAwnEFBa0IhAwHACAaUFjQgEDCcQUFrQiEDAcAIBpQWNCAQMJxBQWtCIQMBwAgGlBY0IBAwnEFBa0IhAwHACAaUFjQgEDCcQUFrQiEDAcAIBpQWNCAQMJxBQWtCIQMBwAgGlBY0IBAwnEFDaCSLz+fm7tu0+Pz7+ezXU0wkENCkQUNqRI8s3Vu3a9uvyaZZ/PHwoJAIBwwkElHbEyCqOl6cZColAwHACAaUdKbIOx5BIBAKGEwgo7QiRbTiGQiIQMJxAQGkDR/rgGAKJQMBwAgGlDRjZB8ehSAQChhMIKG2gCMHx8tTNbPbPYnF/t8+lCGSftp4fKxBQ2gCRg3DAt8UTCBhOIKC0AyNj4FheskDAcAIBpR0QGQuHQOBoAoHFgdiYOAQCBnsq7ezjdVfK501x3+UWFvsmNjYOgcAdBQKL2yNWAw6B7DHY6kMFAovrGasFh0B6Dvb2YQKBxfWI1YRDID0GW/cQgcDidsRqwyEQuLNAYHFbYjXiEAjcWSCwuA2xWnEIBO4sEFjcmljNOAQCdxYILO5NrHYcAoE7CwQWtxKLgEMgcGeBwOKeY1FwCATuXBOQs7O/v8xmzc1icf8THueksUg4BAJvjVqA/PX+w9fSNBellJ/P/xioaiTRcAgkMJAVHC+nqBpJRBwCCQpkDY6qkUTFIZCAQLbgqBJJZBwCCQakB46qkETHIZBAQPbAUQWSKeAQSBAgu/5wwJZjjPKF+0E4wJ/mgTP2iu3qvinlZvH4cN3rgx35Qc2RP37vD3/qb/Mu/6x/advLbf/MtxYkU8LhK0hvEq8feGogT0MFQDI1HAIJBKR2JFPEIZBgQGpFMlUcAgkIpDYkU8YhkKBAakEydRwCCQxkbCQZcAgkOJCxkGTBIZAJADk1kkw4BDIRIKdCkg2HQCYE5NhIdv3KxbYqyTs7wWkGj+06t79qsqbyMX6S3nf5Y/zEfddNMlUcvoL0vevePK5mIEO/kmTGIZCJAhkKSfn166Jrmi+kpsifVq2ed9f/IPwUK9inWK/GPfAXHEsp7zLj8BWErB/sHaYO/Jpk74am8srxcnBfQfa+BeK9BdupkEwNh68gAMdTaQHfo/DYSKaIQyCJgAzwhfvGtqaKQyDJgBwDyZRxCCQhkCGRTB2HQJIC+fMdmh1fS22rJwMOgSQH0ucbDusqyoJDIAJ5amDXd+VWa8qEQyAC+dNAHyTZcAhEIK8a2IYkIw6BCOR/DaxDkhWHQASytoFVJJlxCEQgGxtYIimz2d1icX8Ha5pEzF9WBDPu+oK26bqrxY/vt+BDG6msAYGAQQQCSgsaEQgYTiCgtKARgYDhBAJKCxoRCBhOIKC0oBGBgOEEAkoLGhEIGE4goLSgEYGA4QQCSgsaEQgYTiCgtKARgYDhBAJKCxoRCBhOIKC0oBGBgOEEAkoLGhEIGE4goLSgEYGA4QQCSgsaEQgYTiCgtKARgYDhBAJKCxoRCBhOIKC0oBGBgOEEAkoLGhEIGE4goLSgEYGA4QQCSgsaEQgYTiCgtKARgYDhBAJKCxoRCBhOIKC0oBGBgOEEAkoLGhEIGE4goLSgEYGA4QQCSgsaEQgYTiCgtKARgYDhdgHpSnM769pv4EMbqayBtpl9akp3uemymlJuFo8P1zVcdlPDRSyvYReQWq7T6zh+AwJZ07FAjn/jRXkGgQgkyr06ynUKRCCj3HhRnlQgAolyr45ynQIRyCg3XpQnFYhAotyro1ynQNYBmZ9flLa9GGURn7SuBip6H8dqfg5S10JejQ38bkAg3gk2sKUBgXh72IBAvAdsgDXgKwjrzVSSBgSSZGiPyRoQCOvNVJIGBJJkaI/JGhAI681UkgYEkmRoj8kaEAjrzVSSBgSSZGiPyRoQCOvNVJIGBJJkaI/JGhAI681UkgYEkmRoj8kaEAjrzVSSBgSSZGiPyRoQCOvNVJIGBJJkaI/JGhAI681UkgYEkmRoj8kaEAjrzVSSBgSSZGiPyRoQCOvNVJIGBJJkaI/JGhAI681UkgYEkmRoj8kaEAjrzVSSBgSSZGiPyRoQCOvNVJIGBJJkaI/JGhAI681UkgYEkmRoj8ka+A94Z15Q9DZVigAAAABJRU5ErkJggg==;" vertex="1" parent="1">
          <mxGeometry x="395" y="224" width="20" height="20" as="geometry" />
        </mxCell>
        <mxCell id="O0prfaPkWb7AgjyQHh8y-5" value="" style="shape=image;verticalLabelPosition=bottom;labelBackgroundColor=default;verticalAlign=top;aspect=fixed;imageAspect=0;image=data:image/png,iVBORw0KGgoAAAANSUhEUgAAAMgAAADICAYAAACtWK6eAAAAAXNSR0IArs4c6QAACGdJREFUeF7t3UtW21gUheErjySdUJ5AUvRCzQRGEhhJmElIjyIT8CKdTCRSLRPIMpQf8m/Zukfnr7Y31t1bX5lXcFP8zwZsYGMDjd3YgA1sbkAg3h02sKUBgXh72IBAvAdsgDXgKwjrzVSSBgSSZGiPyRoQCOvNVJIGBJJkaI/JGhAI681UkgYEkmRoj8kaEAjrzVSSBgSSZGiPyRoQCOvNVJIGBJJkaI/JGhAI681UkgYEkmRoj8kaEAjrzVSSBgSSZGiPyRoQCOvNVJIGBJJkaI/JGhAI681UkgYEkmRoj8kaEAjrzVSSBgSSZGiPyRoQCOvNVJIGBJJkaI/JGhAI681UkgYEkmRoj8kaEAjrzVSSBgSSZGiPyRoQCOvNVJIGBJJkaI/JGhAI681UkgaqATKfn1+Utr1I0rvH3NbAbHa3WNzf1VBSPUDOPl53pXyuoRSvYdwGmlJuFo8P1+Nexe9nF0gNK3gNrxoQyJobYu4riEyeGxCIQMSwpQGBCEQgAtnvHvBTrP36mvKjfQXxFWTK9/fBZxMIANKV5nbWtd8Obt8PMHoDbTP71JTuctOFCAQAabruavHj++3o63oBBzcwf//hsmuaLwLZo8pdX4MIZI8yK3+oQMBAAgGlBY0IBAwnEFBa0IhAwHACAaUFjQgEDCcQUFrQiEDAcAIBpQWNCAQMJxBQWtCIQMBwAgGlBY0IBAwnEFBa0IhAwHACAaUFjQgEDCcQUFrQiEDAcAIBpQWNCAQMJxBQWtCIQMBwAgGlBY0IBAwnEFBa0IhAwHACAaUFjQgEDCcQUFrQiEDAcAIBpQWNCAQMJxBQWtCIQMBwAgGlBY0IBAwnEFBa0IhAwHACAaUFjQgEDCcQUFrQiEDAcAIBpQWNCAQMJxBQWtCIQMBwAgGlBY0IBAwnEFDaCSLz+fm7tu0+Pz7+ezXU0wkENCkQUNqRI8s3Vu3a9uvyaZZ/PHwoJAIBwwkElHbEyCqOl6cZColAwHACAaUdKbIOx5BIBAKGEwgo7QiRbTiGQiIQMJxAQGkDR/rgGAKJQMBwAgGlDRjZB8ehSAQChhMIKG2gCMHx8tTNbPbPYnF/t8+lCGSftp4fKxBQ2gCRg3DAt8UTCBhOIKC0AyNj4FheskDAcAIBpR0QGQuHQOBoAoHFgdiYOAQCBnsq7ezjdVfK501x3+UWFvsmNjYOgcAdBQKL2yNWAw6B7DHY6kMFAovrGasFh0B6Dvb2YQKBxfWI1YRDID0GW/cQgcDidsRqwyEQuLNAYHFbYjXiEAjcWSCwuA2xWnEIBO4sEFjcmljNOAQCdxYILO5NrHYcAoE7CwQWtxKLgEMgcGeBwOKeY1FwCATuXBOQs7O/v8xmzc1icf8THueksUg4BAJvjVqA/PX+w9fSNBellJ/P/xioaiTRcAgkMJAVHC+nqBpJRBwCCQpkDY6qkUTFIZCAQLbgqBJJZBwCCQakB46qkETHIZBAQPbAUQWSKeAQSBAgu/5wwJZjjPKF+0E4wJ/mgTP2iu3qvinlZvH4cN3rgx35Qc2RP37vD3/qb/Mu/6x/advLbf/MtxYkU8LhK0hvEq8feGogT0MFQDI1HAIJBKR2JFPEIZBgQGpFMlUcAgkIpDYkU8YhkKBAakEydRwCCQxkbCQZcAgkOJCxkGTBIZAJADk1kkw4BDIRIKdCkg2HQCYE5NhIdv3KxbYqyTs7wWkGj+06t79qsqbyMX6S3nf5Y/zEfddNMlUcvoL0vevePK5mIEO/kmTGIZCJAhkKSfn166Jrmi+kpsifVq2ed9f/IPwUK9inWK/GPfAXHEsp7zLj8BWErB/sHaYO/Jpk74am8srxcnBfQfa+BeK9BdupkEwNh68gAMdTaQHfo/DYSKaIQyCJgAzwhfvGtqaKQyDJgBwDyZRxCCQhkCGRTB2HQJIC+fMdmh1fS22rJwMOgSQH0ucbDusqyoJDIAJ5amDXd+VWa8qEQyAC+dNAHyTZcAhEIK8a2IYkIw6BCOR/DaxDkhWHQASytoFVJJlxCEQgGxtYIimz2d1icX8Ha5pEzF9WBDPu+oK26bqrxY/vt+BDG6msAYGAQQQCSgsaEQgYTiCgtKARgYDhBAJKCxoRCBhOIKC0oBGBgOEEAkoLGhEIGE4goLSgEYGA4QQCSgsaEQgYTiCgtKARgYDhBAJKCxoRCBhOIKC0oBGBgOEEAkoLGhEIGE4goLSgEYGA4QQCSgsaEQgYTiCgtKARgYDhBAJKCxoRCBhOIKC0oBGBgOEEAkoLGhEIGE4goLSgEYGA4QQCSgsaEQgYTiCgtKARgYDhBAJKCxoRCBhOIKC0oBGBgOEEAkoLGhEIGE4goLSgEYGA4QQCSgsaEQgYTiCgtKARgYDhdgHpSnM769pv4EMbqayBtpl9akp3uemymlJuFo8P1zVcdlPDRSyvYReQWq7T6zh+AwJZ07FAjn/jRXkGgQgkyr06ynUKRCCj3HhRnlQgAolyr45ynQIRyCg3XpQnFYhAotyro1ynQNYBmZ9flLa9GGURn7SuBip6H8dqfg5S10JejQ38bkAg3gk2sKUBgXh72IBAvAdsgDXgKwjrzVSSBgSSZGiPyRoQCOvNVJIGBJJkaI/JGhAI681UkgYEkmRoj8kaEAjrzVSSBgSSZGiPyRoQCOvNVJIGBJJkaI/JGhAI681UkgYEkmRoj8kaEAjrzVSSBgSSZGiPyRoQCOvNVJIGBJJkaI/JGhAI681UkgYEkmRoj8kaEAjrzVSSBgSSZGiPyRoQCOvNVJIGBJJkaI/JGhAI681UkgYEkmRoj8kaEAjrzVSSBgSSZGiPyRoQCOvNVJIGBJJkaI/JGhAI681UkgYEkmRoj8ka+A94Z15Q9DZVigAAAABJRU5ErkJggg==;" vertex="1" parent="1">
          <mxGeometry x="395" y="258" width="20" height="20" as="geometry" />
        </mxCell>
      </root>
    </mxGraphModel>
  </diagram>
</mxfile>
